<svg xmlns="http://www.w3.org/2000/svg" viewBox="0 0 513.06 284.15"><defs><style>.a,.d,.e{fill:#fff;}.a{stroke:#326ce5;}.a,.e{stroke-miterlimit:10;stroke-width:1.06px;}.b{fill:#161a1d;}.c{fill:#326ce5;}.e{stroke:#161a1d;}.f{fill:#21262c;}.g{fill:#232f3e;}</style></defs><rect class="a" x="0.53" y="0.53" width="512" height="283.09"/><path class="b" d="M45.88,127.77A3.24,3.24,0,0,0,43.2,129a5.13,5.13,0,0,0-1,3.34,5.2,5.2,0,0,0,.94,3.38,3.33,3.33,0,0,0,2.72,1.15,6.7,6.7,0,0,0,1.5-.16q.72-.15,1.5-.39V138a9.1,9.1,0,0,1-3.24.54,5.19,5.19,0,0,1-4.09-1.61,6.78,6.78,0,0,1-1.42-4.62,7.47,7.47,0,0,1,.69-3.31,5,5,0,0,1,2-2.18,6.11,6.11,0,0,1,3.08-.75,7.68,7.68,0,0,1,3.44.78l-.72,1.65a11.72,11.72,0,0,0-1.3-.51A4.52,4.52,0,0,0,45.88,127.77Z" transform="translate(0.78 -114.09)"/><path class="b" d="M53.24,138.37h-2V125.46h2Z" transform="translate(0.78 -114.09)"/><path class="b" d="M62.5,138.37l-.28-1.2h-.1a2.71,2.71,0,0,1-1.16,1,3.77,3.77,0,0,1-1.71.37,2.93,2.93,0,0,1-3.31-3.34v-6h2v5.65a2.47,2.47,0,0,0,.43,1.59,1.65,1.65,0,0,0,1.35.52,2.17,2.17,0,0,0,1.81-.73,4.08,4.08,0,0,0,.57-2.46V129.2h2v9.17Z" transform="translate(0.78 -114.09)"/><path class="b" d="M73,135.76a2.39,2.39,0,0,1-1,2.06,4.7,4.7,0,0,1-2.81.72,6.61,6.61,0,0,1-2.94-.56V136.3a7.16,7.16,0,0,0,3,.75c1.2,0,1.8-.37,1.8-1.09a.87.87,0,0,0-.2-.58,2.08,2.08,0,0,0-.66-.48,9.65,9.65,0,0,0-1.27-.57,5.87,5.87,0,0,1-2.14-1.23,2.27,2.27,0,0,1-.56-1.59,2.11,2.11,0,0,1,1-1.83,4.52,4.52,0,0,1,2.58-.65,7.26,7.26,0,0,1,3.06.66l-.63,1.46a7,7,0,0,0-2.49-.61c-1,0-1.55.29-1.55.88a.89.89,0,0,0,.41.73,8.63,8.63,0,0,0,1.75.82,7.85,7.85,0,0,1,1.65.81,2.44,2.44,0,0,1,.77.84A2.52,2.52,0,0,1,73,135.76Z" transform="translate(0.78 -114.09)"/><path class="b" d="M78.5,137a4.73,4.73,0,0,0,1.43-.22v1.47a4.15,4.15,0,0,1-.84.23,5.19,5.19,0,0,1-1,.1c-1.85,0-2.78-1-2.78-2.92v-5H74v-.86l1.34-.71.67-1.94h1.2v2h2.62v1.47H77.22v4.92a1.4,1.4,0,0,0,.35,1A1.32,1.32,0,0,0,78.5,137Z" transform="translate(0.78 -114.09)"/><path class="b" d="M85.77,138.54a4.46,4.46,0,0,1-3.35-1.25,4.76,4.76,0,0,1-1.21-3.44,5.21,5.21,0,0,1,1.12-3.53A3.88,3.88,0,0,1,85.41,129a3.8,3.8,0,0,1,2.87,1.1,4.24,4.24,0,0,1,1.06,3v1.05H83.22a3,3,0,0,0,.72,2.06,2.53,2.53,0,0,0,1.92.72,7.14,7.14,0,0,0,1.51-.16,7.68,7.68,0,0,0,1.51-.51v1.59a6.77,6.77,0,0,1-1.44.48A9.3,9.3,0,0,1,85.77,138.54Zm-.36-8a1.94,1.94,0,0,0-1.49.59,2.85,2.85,0,0,0-.67,1.71h4.17a2.51,2.51,0,0,0-.55-1.72A1.86,1.86,0,0,0,85.41,130.51Z" transform="translate(0.78 -114.09)"/><path class="b" d="M96.21,129a5.18,5.18,0,0,1,1,.08L97,130.93a3.57,3.57,0,0,0-.87-.1,2.51,2.51,0,0,0-1.89.76,2.74,2.74,0,0,0-.73,2v4.79h-2V129.2h1.53l.25,1.61h.1a3.83,3.83,0,0,1,1.19-1.3A2.85,2.85,0,0,1,96.21,129Z" transform="translate(0.78 -114.09)"/><rect class="c" x="0.53" y="0.53" width="33.98" height="33.98"/><path class="d" d="M16.74,119.44a.76.76,0,0,0-.71.79v.2a4.69,4.69,0,0,0,.1.67,6.74,6.74,0,0,1,.08,1.29.8.8,0,0,1-.23.36l0,.3a9.7,9.7,0,0,0-1.28.2,9,9,0,0,0-4.62,2.64l-.25-.18a.66.66,0,0,1-.43,0,7.23,7.23,0,0,1-1-.87,5.25,5.25,0,0,0-.46-.49l-.16-.13a.84.84,0,0,0-.49-.18.69.69,0,0,0-.57.25.75.75,0,0,0,.18,1h0l.14.12c.21.14.39.22.59.34a6.8,6.8,0,0,1,1.05.74.72.72,0,0,1,.14.41l.23.2a9.17,9.17,0,0,0-1.44,6.38l-.3.08a1.11,1.11,0,0,1-.3.31,6.22,6.22,0,0,1-1.27.21c-.23,0-.43,0-.68,0l-.19.05h0a.71.71,0,1,0,.31,1.38h0l.19,0a5.87,5.87,0,0,0,.63-.24,6.27,6.27,0,0,1,1.23-.36.69.69,0,0,1,.41.14L8,135a9.23,9.23,0,0,0,4.08,5.09l-.13.31a.63.63,0,0,1,.06.4,7.24,7.24,0,0,1-.64,1.15,6.08,6.08,0,0,0-.38.56c0,.06-.06.14-.09.19a.71.71,0,1,0,1.28.61h0c0-.06.07-.13.09-.18a6,6,0,0,0,.2-.65,5,5,0,0,1,.55-1.27.54.54,0,0,1,.3-.15l.16-.29a9.13,9.13,0,0,0,5.32.38A9.42,9.42,0,0,0,20,140.8c0,.08.13.23.15.27a.54.54,0,0,1,.36.22,6.1,6.1,0,0,1,.49,1.19,6,6,0,0,0,.2.65l.09.18a.71.71,0,1,0,1.28-.61s-.06-.14-.09-.19a6.08,6.08,0,0,0-.38-.56,7,7,0,0,1-.63-1.12.52.52,0,0,1,.06-.42,1.7,1.7,0,0,1-.12-.29A9.17,9.17,0,0,0,25.49,135l.31.06a.56.56,0,0,1,.39-.15,7.81,7.81,0,0,1,1.24.36,5.17,5.17,0,0,0,.63.25l.18,0h0a.75.75,0,0,0,.91-.51.74.74,0,0,0-.6-.86l-.2-.05a5.52,5.52,0,0,0-.68-.06,6,6,0,0,1-1.27-.21c-.15-.05-.25-.23-.31-.3l-.28-.09a9,9,0,0,0-.15-3.3,9.44,9.44,0,0,0-1.32-3.06l.25-.23a.56.56,0,0,1,.13-.4,6.81,6.81,0,0,1,1.05-.73,6.08,6.08,0,0,0,.59-.35l.15-.12a.71.71,0,1,0-.88-1.11l-.15.13a5.38,5.38,0,0,0-.47.49,7.09,7.09,0,0,1-.95.86.75.75,0,0,1-.43,0l-.27.19a9.26,9.26,0,0,0-5.87-2.83c0-.1,0-.27,0-.32a.57.57,0,0,1-.23-.35,6.74,6.74,0,0,1,.08-1.29,6.73,6.73,0,0,0,.1-.67,1.34,1.34,0,0,0,0-.2.75.75,0,0,0-.7-.79Zm-.89,5.49-.21,3.71h0a.63.63,0,0,1-.63.59.58.58,0,0,1-.36-.12h0l-3-2.16a7.23,7.23,0,0,1,3.51-1.91A6.54,6.54,0,0,1,15.85,124.93Zm1.77,0a7.4,7.4,0,0,1,4.24,2l-3,2.14h0A.63.63,0,0,1,18,129a.64.64,0,0,1-.13-.37h0Zm-7.13,3.43,2.77,2.48v0a.61.61,0,0,1,.08.85.69.69,0,0,1-.32.22h0l-3.56,1A7.25,7.25,0,0,1,10.49,128.36Zm12.48,0a7.52,7.52,0,0,1,.91,2.22A7.34,7.34,0,0,1,24,133l-3.57-1h0a.63.63,0,0,1-.44-.74.56.56,0,0,1,.2-.33h0L23,128.36ZM16.17,131h1.14l.7.89-.25,1.1-1,.49-1-.49-.25-1.11Zm3.65,3H20l3.68.62a7.29,7.29,0,0,1-2.95,3.71l-1.43-3.46h0a.62.62,0,0,1,.31-.81.5.5,0,0,1,.24-.06Zm-6.19,0a.64.64,0,0,1,.6.49.55.55,0,0,1,0,.38l0,0-1.42,3.41a7.4,7.4,0,0,1-2.94-3.67l3.65-.62h.13Zm3.09,1.5a.79.79,0,0,1,.29.06.66.66,0,0,1,.28.27h0l1.8,3.25c-.23.08-.47.14-.72.2a7.36,7.36,0,0,1-4-.2l1.79-3.25h0A.63.63,0,0,1,16.72,135.57Z" transform="translate(0.78 -114.09)"/><rect class="e" x="36.64" y="49.97" width="169.92" height="134.82"/><path class="b" d="M55.12,184.82H52.69l-6-9.66h-.07l0,.54q.12,1.53.12,2.82v6.3H45V172.69h2.4l5.95,9.62h.05c0-.13,0-.59-.06-1.39s0-1.42,0-1.87v-6.36h1.81Z" transform="translate(0.78 -114.09)"/><path class="b" d="M66.26,180.22a5,5,0,0,1-1.15,3.51A4.14,4.14,0,0,1,61.89,185a4.48,4.48,0,0,1-2.27-.58,3.91,3.91,0,0,1-1.52-1.67,5.73,5.73,0,0,1-.53-2.52,5,5,0,0,1,1.15-3.49,4.16,4.16,0,0,1,3.22-1.25,4.08,4.08,0,0,1,3.16,1.28A5,5,0,0,1,66.26,180.22Zm-6.68,0c0,2.12.78,3.18,2.35,3.18s2.32-1.06,2.32-3.18-.78-3.15-2.34-3.15a2,2,0,0,0-1.78.82A4.12,4.12,0,0,0,59.58,180.22Z" transform="translate(0.78 -114.09)"/><path class="b" d="M71.59,185a3.22,3.22,0,0,1-2.68-1.25,6.8,6.8,0,0,1,0-7,3.22,3.22,0,0,1,2.7-1.26,3.17,3.17,0,0,1,2.75,1.34h.1a12.43,12.43,0,0,1-.14-1.56v-3.35h2v12.91H74.77l-.34-1.2h-.09A3.13,3.13,0,0,1,71.59,185Zm.53-1.58a2.13,2.13,0,0,0,1.75-.67,3.63,3.63,0,0,0,.56-2.2v-.27a4.18,4.18,0,0,0-.56-2.47,2.13,2.13,0,0,0-1.77-.73,1.78,1.78,0,0,0-1.58.84,5.3,5.3,0,0,0,0,4.7A1.81,1.81,0,0,0,72.12,183.41Z" transform="translate(0.78 -114.09)"/><path class="b" d="M83.09,185a4.43,4.43,0,0,1-3.34-1.25,4.72,4.72,0,0,1-1.21-3.44,5.16,5.16,0,0,1,1.12-3.53,3.87,3.87,0,0,1,3.08-1.29,3.8,3.8,0,0,1,2.87,1.1,4.24,4.24,0,0,1,1,3v1H80.55a3,3,0,0,0,.72,2.06,2.5,2.5,0,0,0,1.92.71,7.23,7.23,0,0,0,1.51-.15,7.68,7.68,0,0,0,1.51-.51v1.59a6.66,6.66,0,0,1-1.45.48A9.22,9.22,0,0,1,83.09,185Zm-.35-8a1.93,1.93,0,0,0-1.49.59,2.74,2.74,0,0,0-.67,1.71h4.17a2.62,2.62,0,0,0-.55-1.72A1.88,1.88,0,0,0,82.74,177Z" transform="translate(0.78 -114.09)"/><path class="b" d="M98.37,184.82h-2V177c0-.93,0-1.68.06-2.22-.12.13-.28.28-.46.44s-.81.67-1.87,1.52l-1-1.23,3.57-2.81h1.63Z" transform="translate(0.78 -114.09)"/><path class="f" d="M47.34,198.3a4,4,0,0,0,1.2-.22v1.42a4.3,4.3,0,0,1-1.74.31,2.14,2.14,0,0,1-1.66-.57,2.49,2.49,0,0,1-.52-1.73v-3.35h-.91v-.8l1-.64.55-1.47h1.22v1.48h1.94v1.43H46.52v3.35a.75.75,0,0,0,.22.6A.88.88,0,0,0,47.34,198.3Z" transform="translate(0.78 -114.09)"/><path class="f" d="M54.36,199.69l-.36-.95h0a2.68,2.68,0,0,1-1,.84,3.13,3.13,0,0,1-1.32.23,2.14,2.14,0,0,1-1.58-.57,2.2,2.2,0,0,1-.58-1.63,1.82,1.82,0,0,1,.78-1.63,4.43,4.43,0,0,1,2.34-.58l1.2,0v-.31A.94.94,0,0,0,52.72,194a4.83,4.83,0,0,0-2,.5l-.63-1.28a5.64,5.64,0,0,1,2.66-.63,3.3,3.3,0,0,1,2.15.61,2.24,2.24,0,0,1,.75,1.85v4.64Zm-.56-3.22-.73,0a2.41,2.41,0,0,0-1.23.3.94.94,0,0,0-.41.83c0,.54.31.81.92.81a1.5,1.5,0,0,0,1.06-.38,1.36,1.36,0,0,0,.39-1Z" transform="translate(0.78 -114.09)"/><path class="f" d="M57.56,190.94c0-.62.35-.93,1-.93s1,.31,1,.93a.9.9,0,0,1-.26.68,1.06,1.06,0,0,1-.78.25C57.91,191.87,57.56,191.56,57.56,190.94Zm2,8.75h-1.9v-7h1.9Z" transform="translate(0.78 -114.09)"/><path class="f" d="M68,199.69H66.06v-4.06a1.92,1.92,0,0,0-.27-1.13,1,1,0,0,0-.85-.38,1.3,1.3,0,0,0-1.16.53,3.41,3.41,0,0,0-.35,1.77v3.27h-1.9v-7H63l.26.89h.1a2,2,0,0,1,.88-.76,3,3,0,0,1,1.26-.26,2.44,2.44,0,0,1,1.85.66,2.67,2.67,0,0,1,.62,1.89Z" transform="translate(0.78 -114.09)"/><path class="f" d="M72.84,198.3a3.93,3.93,0,0,0,1.19-.22v1.42a4.27,4.27,0,0,1-1.74.31,2.15,2.15,0,0,1-1.66-.57,2.54,2.54,0,0,1-.52-1.73v-3.35H69.2v-.8l1-.64.55-1.47H72v1.48H74v1.43H72v3.35a.75.75,0,0,0,.23.6A.88.88,0,0,0,72.84,198.3Z" transform="translate(0.78 -114.09)"/><path class="f" d="M78.3,194.68v-1.36h6.18v1.36Zm0,2.41v-1.36h6.18v1.36Z" transform="translate(0.78 -114.09)"/><path class="f" d="M92.27,198.3a3.93,3.93,0,0,0,1.19-.22v1.42a4.27,4.27,0,0,1-1.74.31,2.15,2.15,0,0,1-1.66-.57,2.49,2.49,0,0,1-.52-1.73v-3.35h-.91v-.8l1.05-.64.55-1.47h1.21v1.48h2v1.43h-2v3.35a.72.72,0,0,0,.23.6A.88.88,0,0,0,92.27,198.3Z" transform="translate(0.78 -114.09)"/><path class="f" d="M98,199.81a3.59,3.59,0,0,1-2.63-.92,3.53,3.53,0,0,1-1-2.63,3.86,3.86,0,0,1,.88-2.7,3.1,3.1,0,0,1,2.42-1,3.06,3.06,0,0,1,2.29.84,3.18,3.18,0,0,1,.82,2.32v.93H96.37a1.82,1.82,0,0,0,.48,1.26,1.68,1.68,0,0,0,1.25.45,5,5,0,0,0,1.19-.13,5.52,5.52,0,0,0,1.17-.42v1.47a4.3,4.3,0,0,1-1.06.37A6.81,6.81,0,0,1,98,199.81ZM97.75,194a1.21,1.21,0,0,0-1,.39,1.71,1.71,0,0,0-.39,1.08h2.66a1.54,1.54,0,0,0-.36-1.08A1.24,1.24,0,0,0,97.75,194Z" transform="translate(0.78 -114.09)"/><path class="f" d="M107.25,197.62a1.91,1.91,0,0,1-.74,1.63,3.65,3.65,0,0,1-2.23.56,6.82,6.82,0,0,1-1.29-.1,5.07,5.07,0,0,1-1-.3v-1.57a6.14,6.14,0,0,0,1.19.42,4.92,4.92,0,0,0,1.16.17c.69,0,1-.2,1-.6a.49.49,0,0,0-.14-.36,1.87,1.87,0,0,0-.47-.32q-.34-.18-.9-.42a5.61,5.61,0,0,1-1.18-.62,1.86,1.86,0,0,1-.55-.65,2.26,2.26,0,0,1-.17-.92,1.66,1.66,0,0,1,.72-1.43,3.49,3.49,0,0,1,2-.51,5.9,5.9,0,0,1,2.45.55l-.58,1.37c-.35-.15-.67-.27-1-.37a3.33,3.33,0,0,0-.93-.14q-.84,0-.84.45a.55.55,0,0,0,.27.45,8.89,8.89,0,0,0,1.18.55,5,5,0,0,1,1.2.62,1.89,1.89,0,0,1,.56.65A2,2,0,0,1,107.25,197.62Z" transform="translate(0.78 -114.09)"/><path class="f" d="M111.66,198.3a4,4,0,0,0,1.2-.22v1.42a4.35,4.35,0,0,1-1.75.31,2.13,2.13,0,0,1-1.65-.57,2.49,2.49,0,0,1-.52-1.73v-3.35H108v-.8l1-.64.55-1.47h1.21v1.48h2v1.43h-2v3.35a.75.75,0,0,0,.23.6A.88.88,0,0,0,111.66,198.3Z" transform="translate(0.78 -114.09)"/><path class="f" d="M117.31,193.66a1,1,0,0,1,.28-.79,1.1,1.1,0,0,1,.81-.27,1.07,1.07,0,0,1,.8.28,1,1,0,0,1,.28.78,1,1,0,0,1-.29.78,1.06,1.06,0,0,1-.79.28,1.09,1.09,0,0,1-.81-.28A1,1,0,0,1,117.31,193.66Zm0,5.14a1,1,0,0,1,.28-.79,1.1,1.1,0,0,1,.81-.27,1.07,1.07,0,0,1,.8.28,1,1,0,0,1,.28.78,1.05,1.05,0,0,1-.28.78,1.13,1.13,0,0,1-.8.28,1.09,1.09,0,0,1-.81-.28A1,1,0,0,1,117.31,198.8Z" transform="translate(0.78 -114.09)"/><path class="f" d="M132.74,199.69h-2.45l-4-6.88h-.06c.08,1.21.12,2.08.12,2.6v4.28h-1.72v-9.1h2.43l4,6.82h0c-.07-1.19-.1-2-.1-2.51v-4.31h1.74Z" transform="translate(0.78 -114.09)"/><path class="f" d="M141.2,196.2a3.78,3.78,0,0,1-.89,2.66,3.25,3.25,0,0,1-2.5.95,3.52,3.52,0,0,1-1.77-.43,3,3,0,0,1-1.17-1.26,4.18,4.18,0,0,1-.41-1.92,3.68,3.68,0,0,1,.89-2.65,3.26,3.26,0,0,1,2.5-1,3.48,3.48,0,0,1,1.76.44,2.85,2.85,0,0,1,1.18,1.25A4.23,4.23,0,0,1,141.2,196.2Zm-4.81,0a2.87,2.87,0,0,0,.34,1.56,1.23,1.23,0,0,0,1.11.53,1.18,1.18,0,0,0,1.09-.53,3,3,0,0,0,.33-1.56,2.81,2.81,0,0,0-.34-1.55,1.22,1.22,0,0,0-1.1-.52,1.19,1.19,0,0,0-1.09.52A2.81,2.81,0,0,0,136.39,196.2Z" transform="translate(0.78 -114.09)"/><path class="f" d="M148.29,197.16a2.37,2.37,0,0,1-.89,2,3.85,3.85,0,0,1-2.46.7,5.86,5.86,0,0,1-2.58-.54v-1.79a10.3,10.3,0,0,0,1.56.57,4.23,4.23,0,0,0,1.16.17,1.69,1.69,0,0,0,1-.24.84.84,0,0,0,.34-.72.81.81,0,0,0-.15-.48,1.74,1.74,0,0,0-.44-.4,12.57,12.57,0,0,0-1.18-.62,5.51,5.51,0,0,1-1.25-.75,2.86,2.86,0,0,1-.67-.84,2.46,2.46,0,0,1-.24-1.12,2.37,2.37,0,0,1,.81-1.9,3.42,3.42,0,0,1,2.27-.69,5.43,5.43,0,0,1,1.35.17,9.48,9.48,0,0,1,1.35.47l-.63,1.5a7.43,7.43,0,0,0-1.2-.41,3.85,3.85,0,0,0-.94-.12,1.26,1.26,0,0,0-.84.25.86.86,0,0,0-.29.67.78.78,0,0,0,.12.44,1.22,1.22,0,0,0,.38.37,11.69,11.69,0,0,0,1.22.64,5,5,0,0,1,1.75,1.22A2.42,2.42,0,0,1,148.29,197.16Z" transform="translate(0.78 -114.09)"/><path class="f" d="M152.61,199.81c-2.16,0-3.24-1.18-3.24-3.56a3.79,3.79,0,0,1,.88-2.71,3.33,3.33,0,0,1,2.53-.94,4.78,4.78,0,0,1,2.17.48l-.56,1.46c-.3-.12-.58-.21-.84-.29a2.53,2.53,0,0,0-.77-.12c-1,0-1.48.7-1.48,2.11s.5,2,1.48,2a3.31,3.31,0,0,0,1-.15,3.65,3.65,0,0,0,.93-.46v1.63a3.12,3.12,0,0,1-.93.4A5,5,0,0,1,152.61,199.81Z" transform="translate(0.78 -114.09)"/><path class="f" d="M162.76,199.69h-1.89v-4.06c0-1-.38-1.51-1.12-1.51a1.28,1.28,0,0,0-1.16.54,3.39,3.39,0,0,0-.35,1.76v3.27h-1.9V190h1.9v2c0,.15,0,.51,0,1.08l0,.56h.1a2.21,2.21,0,0,1,2-1,2.45,2.45,0,0,1,1.86.66,2.63,2.63,0,0,1,.63,1.89Z" transform="translate(0.78 -114.09)"/><path class="f" d="M167.87,199.81a3.59,3.59,0,0,1-2.63-.92,3.53,3.53,0,0,1-1-2.63,3.86,3.86,0,0,1,.88-2.7,3.1,3.1,0,0,1,2.42-1,3.06,3.06,0,0,1,2.29.84,3.18,3.18,0,0,1,.82,2.32v.93h-4.48a1.82,1.82,0,0,0,.48,1.26,1.68,1.68,0,0,0,1.25.45,5,5,0,0,0,1.19-.13,5.33,5.33,0,0,0,1.17-.42v1.47a4.16,4.16,0,0,1-1.06.37A6.81,6.81,0,0,1,167.87,199.81ZM167.6,194a1.21,1.21,0,0,0-.95.39,1.71,1.71,0,0,0-.39,1.08h2.66a1.54,1.54,0,0,0-.36-1.08A1.24,1.24,0,0,0,167.6,194Z" transform="translate(0.78 -114.09)"/><path class="f" d="M174.45,199.81a2.25,2.25,0,0,1-1.93-.95,4.41,4.41,0,0,1-.7-2.64,4.31,4.31,0,0,1,.72-2.66,2.3,2.3,0,0,1,2-1,2.26,2.26,0,0,1,2,1h.07a7.41,7.41,0,0,1-.15-1.38V190h1.91v9.68h-1.46l-.37-.9h-.08A2.17,2.17,0,0,1,174.45,199.81Zm.67-1.51a1.27,1.27,0,0,0,1.06-.42,2.42,2.42,0,0,0,.37-1.44v-.2a2.88,2.88,0,0,0-.34-1.61,1.3,1.3,0,0,0-1.13-.48,1.11,1.11,0,0,0-1,.53,2.83,2.83,0,0,0-.35,1.57,2.78,2.78,0,0,0,.35,1.54A1.18,1.18,0,0,0,175.12,198.3Z" transform="translate(0.78 -114.09)"/><path class="f" d="M185.24,199.69l-.25-.89h-.1a2.13,2.13,0,0,1-.87.75,2.89,2.89,0,0,1-1.27.26,2.41,2.41,0,0,1-1.85-.65,2.63,2.63,0,0,1-.63-1.89v-4.54h1.9v4.07a1.94,1.94,0,0,0,.27,1.13,1,1,0,0,0,.85.37,1.26,1.26,0,0,0,1.15-.53,3.24,3.24,0,0,0,.36-1.76v-3.28h1.9v7Z" transform="translate(0.78 -114.09)"/><path class="f" d="M190.59,199.69h-1.9V190h1.9Z" transform="translate(0.78 -114.09)"/><path class="f" d="M195.73,199.81a3.59,3.59,0,0,1-2.63-.92,3.53,3.53,0,0,1-.95-2.63,3.86,3.86,0,0,1,.88-2.7,3.1,3.1,0,0,1,2.42-1,3.06,3.06,0,0,1,2.29.84,3.18,3.18,0,0,1,.82,2.32v.93h-4.48a1.82,1.82,0,0,0,.48,1.26,1.66,1.66,0,0,0,1.25.45,5,5,0,0,0,1.19-.13,5.52,5.52,0,0,0,1.17-.42v1.47a4.3,4.3,0,0,1-1.06.37A6.81,6.81,0,0,1,195.73,199.81Zm-.27-5.86a1.21,1.21,0,0,0-1,.39,1.71,1.71,0,0,0-.39,1.08h2.66a1.54,1.54,0,0,0-.36-1.08A1.24,1.24,0,0,0,195.46,194Z" transform="translate(0.78 -114.09)"/><path class="f" d="M47.34,213.17a4,4,0,0,0,1.2-.22v1.42a4.3,4.3,0,0,1-1.74.31,2.14,2.14,0,0,1-1.66-.57,2.5,2.5,0,0,1-.52-1.73V209h-.91v-.81l1-.63.55-1.47h1.22v1.48h1.94V209H46.52v3.35a.75.75,0,0,0,.22.6A.88.88,0,0,0,47.34,213.17Z" transform="translate(0.78 -114.09)"/><path class="f" d="M54.36,214.56l-.36-.95h0a2.78,2.78,0,0,1-1,.84,3.13,3.13,0,0,1-1.32.23,2.14,2.14,0,0,1-1.58-.57,2.2,2.2,0,0,1-.58-1.63,1.82,1.82,0,0,1,.78-1.63,4.43,4.43,0,0,1,2.34-.58l1.2,0v-.31a.94.94,0,0,0-1.08-1,4.83,4.83,0,0,0-2,.5l-.63-1.28a5.64,5.64,0,0,1,2.66-.63,3.3,3.3,0,0,1,2.15.61,2.24,2.24,0,0,1,.75,1.85v4.64Zm-.56-3.22-.73,0a2.41,2.41,0,0,0-1.23.3.94.94,0,0,0-.41.83c0,.54.31.81.92.81a1.5,1.5,0,0,0,1.06-.38,1.36,1.36,0,0,0,.39-1Z" transform="translate(0.78 -114.09)"/><path class="f" d="M57.56,205.8c0-.61.35-.92,1-.92s1,.31,1,.92a.9.9,0,0,1-.26.69,1.06,1.06,0,0,1-.78.25C57.91,206.74,57.56,206.43,57.56,205.8Zm2,8.76h-1.9v-7h1.9Z" transform="translate(0.78 -114.09)"/><path class="f" d="M68,214.56H66.06V210.5a1.92,1.92,0,0,0-.27-1.13,1,1,0,0,0-.85-.38,1.3,1.3,0,0,0-1.16.53,3.39,3.39,0,0,0-.35,1.77v3.27h-1.9v-7H63l.26.89h.1a2,2,0,0,1,.88-.76,3,3,0,0,1,1.26-.26,2.44,2.44,0,0,1,1.85.66A2.67,2.67,0,0,1,68,210Z" transform="translate(0.78 -114.09)"/><path class="f" d="M72.84,213.17A3.93,3.93,0,0,0,74,213v1.42a4.27,4.27,0,0,1-1.74.31,2.15,2.15,0,0,1-1.66-.57,2.55,2.55,0,0,1-.52-1.73V209H69.2v-.81l1-.63.55-1.47H72v1.48H74V209H72v3.35a.75.75,0,0,0,.23.6A.88.88,0,0,0,72.84,213.17Z" transform="translate(0.78 -114.09)"/><path class="f" d="M78.3,209.55v-1.36h6.18v1.36Zm0,2.41V210.6h6.18V212Z" transform="translate(0.78 -114.09)"/><path class="f" d="M92.27,213.17a3.93,3.93,0,0,0,1.19-.22v1.42a4.27,4.27,0,0,1-1.74.31,2.15,2.15,0,0,1-1.66-.57,2.5,2.5,0,0,1-.52-1.73V209h-.91v-.81l1.05-.63.55-1.47h1.21v1.48h2V209h-2v3.35a.72.72,0,0,0,.23.6A.88.88,0,0,0,92.27,213.17Z" transform="translate(0.78 -114.09)"/><path class="f" d="M98,214.68a3.63,3.63,0,0,1-2.63-.92,3.53,3.53,0,0,1-1-2.63,3.85,3.85,0,0,1,.88-2.7,3.1,3.1,0,0,1,2.42-1,3.06,3.06,0,0,1,2.29.84,3.18,3.18,0,0,1,.82,2.32v.92H96.37a1.85,1.85,0,0,0,.48,1.27,1.68,1.68,0,0,0,1.25.45,5,5,0,0,0,1.19-.13,6.14,6.14,0,0,0,1.17-.42v1.47a4.3,4.3,0,0,1-1.06.37A6.81,6.81,0,0,1,98,214.68Zm-.27-5.86a1.23,1.23,0,0,0-1,.38,1.76,1.76,0,0,0-.39,1.09h2.66a1.59,1.59,0,0,0-.36-1.09A1.27,1.27,0,0,0,97.75,208.82Z" transform="translate(0.78 -114.09)"/><path class="f" d="M107.25,212.49a1.91,1.91,0,0,1-.74,1.63,3.65,3.65,0,0,1-2.23.56,6.82,6.82,0,0,1-1.29-.1,5.07,5.07,0,0,1-1-.3v-1.57a6.14,6.14,0,0,0,1.19.42,4.92,4.92,0,0,0,1.16.17c.69,0,1-.2,1-.6a.53.53,0,0,0-.14-.37,2.22,2.22,0,0,0-.47-.31q-.34-.18-.9-.42a5.61,5.61,0,0,1-1.18-.62,1.8,1.8,0,0,1-.55-.66,2.21,2.21,0,0,1-.17-.91,1.64,1.64,0,0,1,.72-1.43,3.49,3.49,0,0,1,2-.51,5.75,5.75,0,0,1,2.45.55l-.58,1.37c-.35-.15-.67-.27-1-.37a3.33,3.33,0,0,0-.93-.14q-.84,0-.84.45a.53.53,0,0,0,.27.44,7.46,7.46,0,0,0,1.18.56,5.42,5.42,0,0,1,1.2.61,1.83,1.83,0,0,1,.56.66A2,2,0,0,1,107.25,212.49Z" transform="translate(0.78 -114.09)"/><path class="f" d="M111.66,213.17a4,4,0,0,0,1.2-.22v1.42a4.35,4.35,0,0,1-1.75.31,2.13,2.13,0,0,1-1.65-.57,2.5,2.5,0,0,1-.52-1.73V209H108v-.81l1-.63.55-1.47h1.21v1.48h2V209h-2v3.35a.75.75,0,0,0,.23.6A.88.88,0,0,0,111.66,213.17Z" transform="translate(0.78 -114.09)"/><path class="f" d="M117.31,208.53a1,1,0,0,1,.28-.79,1.1,1.1,0,0,1,.81-.27,1.07,1.07,0,0,1,.8.28,1,1,0,0,1,.28.78,1,1,0,0,1-.29.78,1.28,1.28,0,0,1-1.6,0A1,1,0,0,1,117.31,208.53Zm0,5.14a1,1,0,0,1,.28-.79,1.1,1.1,0,0,1,.81-.27,1.07,1.07,0,0,1,.8.28,1.21,1.21,0,0,1,0,1.55,1.09,1.09,0,0,1-.8.29,1.14,1.14,0,0,1-.81-.28A1,1,0,0,1,117.31,213.67Z" transform="translate(0.78 -114.09)"/><path class="f" d="M132.74,214.56h-2.45l-4-6.88h-.06c.08,1.21.12,2.08.12,2.6v4.28h-1.72v-9.1h2.43l4,6.82h0c-.07-1.19-.1-2-.1-2.51v-4.31h1.74Z" transform="translate(0.78 -114.09)"/><path class="f" d="M141.2,211.07a3.78,3.78,0,0,1-.89,2.66,3.29,3.29,0,0,1-2.5,1,3.42,3.42,0,0,1-1.77-.44,2.86,2.86,0,0,1-1.17-1.26,4.11,4.11,0,0,1-.41-1.91,3.68,3.68,0,0,1,.89-2.65,3.26,3.26,0,0,1,2.5-.95,3.48,3.48,0,0,1,1.76.44,2.8,2.8,0,0,1,1.18,1.25A4.23,4.23,0,0,1,141.2,211.07Zm-4.81,0a2.87,2.87,0,0,0,.34,1.56,1.23,1.23,0,0,0,1.11.53,1.2,1.2,0,0,0,1.09-.53,3,3,0,0,0,.33-1.56,2.81,2.81,0,0,0-.34-1.55,1.41,1.41,0,0,0-2.19,0A2.81,2.81,0,0,0,136.39,211.07Z" transform="translate(0.78 -114.09)"/><path class="f" d="M148.16,214.56h-5.24v-9.1h5.24V207h-3.31v2h3.08v1.58h-3.08V213h3.31Z" transform="translate(0.78 -114.09)"/><path class="f" d="M151.33,211l-2.24-3.41h2.16l1.35,2.22L154,207.6h2.15L153.85,211l2.37,3.55h-2.16l-1.46-2.38-1.47,2.38H149Z" transform="translate(0.78 -114.09)"/><path class="f" d="M160.42,214.68a3.61,3.61,0,0,1-2.62-.92,3.53,3.53,0,0,1-1-2.63,3.8,3.8,0,0,1,.88-2.7,3.54,3.54,0,0,1,4.71-.12,3.18,3.18,0,0,1,.82,2.32v.92h-4.49a2,2,0,0,0,.48,1.27,1.7,1.7,0,0,0,1.26.45,5,5,0,0,0,1.19-.13,6.39,6.39,0,0,0,1.17-.42v1.47a4.3,4.3,0,0,1-1.06.37A6.84,6.84,0,0,1,160.42,214.68Zm-.26-5.86a1.22,1.22,0,0,0-.95.38,1.76,1.76,0,0,0-.39,1.09h2.66a1.59,1.59,0,0,0-.37-1.09A1.23,1.23,0,0,0,160.16,208.82Z" transform="translate(0.78 -114.09)"/><path class="f" d="M167.63,214.68c-2.17,0-3.25-1.18-3.25-3.56a3.8,3.8,0,0,1,.89-2.71,3.28,3.28,0,0,1,2.53-.94,4.86,4.86,0,0,1,2.16.47l-.56,1.47a7.57,7.57,0,0,0-.83-.29,2.58,2.58,0,0,0-.77-.12c-1,0-1.48.7-1.48,2.11s.49,2,1.48,2a3.29,3.29,0,0,0,1-.15,3.71,3.71,0,0,0,.94-.46v1.63a3.12,3.12,0,0,1-.93.4A5,5,0,0,1,167.63,214.68Z" transform="translate(0.78 -114.09)"/><path class="f" d="M176.29,214.56l-.26-.89h-.1a2,2,0,0,1-.86.75,2.93,2.93,0,0,1-1.28.26,2.46,2.46,0,0,1-1.85-.65,2.67,2.67,0,0,1-.62-1.89V207.6h1.9v4.07a1.91,1.91,0,0,0,.27,1.12.94.94,0,0,0,.85.38,1.29,1.29,0,0,0,1.15-.53,3.27,3.27,0,0,0,.35-1.76V207.6h1.9v7Z" transform="translate(0.78 -114.09)"/><path class="f" d="M182.66,213.17a4,4,0,0,0,1.2-.22v1.42a4.27,4.27,0,0,1-1.74.31,2.14,2.14,0,0,1-1.66-.57,2.5,2.5,0,0,1-.52-1.73V209H179v-.81l1.05-.63.54-1.47h1.22v1.48h1.94V209h-1.94v3.35a.75.75,0,0,0,.22.6A.92.92,0,0,0,182.66,213.17Z" transform="translate(0.78 -114.09)"/><path class="f" d="M188.41,214.68a3.61,3.61,0,0,1-2.62-.92,3.53,3.53,0,0,1-.95-2.63,3.8,3.8,0,0,1,.88-2.7,3.54,3.54,0,0,1,4.71-.12,3.18,3.18,0,0,1,.82,2.32v.92h-4.48a1.89,1.89,0,0,0,.47,1.27,1.7,1.7,0,0,0,1.26.45,5,5,0,0,0,1.19-.13,6.39,6.39,0,0,0,1.17-.42v1.47a4.3,4.3,0,0,1-1.06.37A6.84,6.84,0,0,1,188.41,214.68Zm-.26-5.86a1.22,1.22,0,0,0-1,.38,1.76,1.76,0,0,0-.39,1.09h2.66a1.59,1.59,0,0,0-.37-1.09A1.23,1.23,0,0,0,188.15,208.82Z" transform="translate(0.78 -114.09)"/><rect class="e" x="215.16" y="50.23" width="135.94" height="199.4"/><path class="b" d="M233.65,185.09h-2.43l-6-9.67h-.06l0,.54c.07,1,.11,2,.11,2.82v6.31h-1.8V173H226l6,9.61h0c0-.13,0-.59-.07-1.39s0-1.42,0-1.87V173h1.82Z" transform="translate(0.78 -114.09)"/><path class="b" d="M244.78,180.48a5,5,0,0,1-1.15,3.51,4.14,4.14,0,0,1-3.21,1.26,4.33,4.33,0,0,1-2.27-.58,3.8,3.8,0,0,1-1.52-1.67,5.57,5.57,0,0,1-.53-2.52,5,5,0,0,1,1.14-3.48,4.14,4.14,0,0,1,3.23-1.26,4,4,0,0,1,3.15,1.29A4.9,4.9,0,0,1,244.78,180.48Zm-6.68,0c0,2.12.79,3.18,2.35,3.18s2.33-1.06,2.33-3.18-.78-3.14-2.34-3.14a2,2,0,0,0-1.78.81A4.11,4.11,0,0,0,238.1,180.48Z" transform="translate(0.78 -114.09)"/><path class="b" d="M250.12,185.25a3.18,3.18,0,0,1-2.68-1.24,6.85,6.85,0,0,1,0-7,3.22,3.22,0,0,1,2.7-1.26,3.17,3.17,0,0,1,2.76,1.34h.1a11.05,11.05,0,0,1-.15-1.56v-3.34h2v12.91H253.3l-.34-1.21h-.1A3.09,3.09,0,0,1,250.12,185.25Zm.52-1.57a2.12,2.12,0,0,0,1.75-.68,3.58,3.58,0,0,0,.57-2.2v-.27a4.06,4.06,0,0,0-.57-2.46,2.07,2.07,0,0,0-1.77-.73,1.78,1.78,0,0,0-1.58.83,4.29,4.29,0,0,0-.56,2.38,4.18,4.18,0,0,0,.54,2.33A1.83,1.83,0,0,0,250.64,183.68Z" transform="translate(0.78 -114.09)"/><path class="b" d="M261.62,185.25a4.42,4.42,0,0,1-3.35-1.25,4.76,4.76,0,0,1-1.21-3.44,5.23,5.23,0,0,1,1.12-3.53,3.88,3.88,0,0,1,3.08-1.29,3.77,3.77,0,0,1,2.87,1.11,4.2,4.2,0,0,1,1.06,3v1.06h-6.12a3,3,0,0,0,.72,2.05,2.52,2.52,0,0,0,1.92.72,7.16,7.16,0,0,0,1.51-.15,8.49,8.49,0,0,0,1.51-.52v1.59a5.8,5.8,0,0,1-1.44.48A9.3,9.3,0,0,1,261.62,185.25Zm-.36-8a2,2,0,0,0-1.49.59,2.86,2.86,0,0,0-.67,1.72h4.17a2.5,2.5,0,0,0-.55-1.72A1.87,1.87,0,0,0,261.26,177.22Z" transform="translate(0.78 -114.09)"/><path class="b" d="M279.39,185.09h-8.22v-1.48l3.13-3.15a24.65,24.65,0,0,0,1.83-2,4.75,4.75,0,0,0,.66-1.11,3,3,0,0,0,.21-1.12,1.72,1.72,0,0,0-.49-1.3,1.93,1.93,0,0,0-1.37-.47,3.72,3.72,0,0,0-1.35.26,6.27,6.27,0,0,0-1.5.93l-1.06-1.29a6.86,6.86,0,0,1,2-1.21,5.71,5.71,0,0,1,2-.36,4,4,0,0,1,2.72.89,3,3,0,0,1,1,2.37,4.09,4.09,0,0,1-.3,1.56,6.3,6.3,0,0,1-.9,1.52,19.85,19.85,0,0,1-2,2.12l-2.11,2v.08h5.76Z" transform="translate(0.78 -114.09)"/><rect class="e" x="359.6" y="50.23" width="118.95" height="156"/><path class="b" d="M378.08,185.09h-2.43l-6-9.67h-.07l0,.54q.12,1.54.12,2.82v6.31H368V173h2.4l5.95,9.61h.05c0-.13,0-.59-.06-1.39s-.05-1.42-.05-1.87V173h1.81Z" transform="translate(0.78 -114.09)"/><path class="b" d="M389.22,180.48a5,5,0,0,1-1.15,3.51,4.14,4.14,0,0,1-3.22,1.26,4.38,4.38,0,0,1-2.27-.58,3.85,3.85,0,0,1-1.52-1.67,5.7,5.7,0,0,1-.53-2.52,4.92,4.92,0,0,1,1.15-3.48,4.13,4.13,0,0,1,3.22-1.26,4,4,0,0,1,3.16,1.29A5,5,0,0,1,389.22,180.48Zm-6.68,0c0,2.12.78,3.18,2.35,3.18s2.32-1.06,2.32-3.18-.78-3.14-2.34-3.14a2,2,0,0,0-1.78.81A4.12,4.12,0,0,0,382.54,180.48Z" transform="translate(0.78 -114.09)"/><path class="b" d="M394.55,185.25a3.21,3.21,0,0,1-2.68-1.24,6.82,6.82,0,0,1,0-7,3.22,3.22,0,0,1,2.7-1.26,3.17,3.17,0,0,1,2.75,1.34h.1a12.43,12.43,0,0,1-.14-1.56v-3.34h2v12.91h-1.53l-.34-1.21h-.09A3.1,3.1,0,0,1,394.55,185.25Zm.53-1.57a2.13,2.13,0,0,0,1.75-.68,3.59,3.59,0,0,0,.56-2.2v-.27a4.15,4.15,0,0,0-.56-2.46,2.1,2.1,0,0,0-1.77-.73,1.77,1.77,0,0,0-1.58.83,5.32,5.32,0,0,0,0,4.71A1.83,1.83,0,0,0,395.08,183.68Z" transform="translate(0.78 -114.09)"/><path class="b" d="M406.05,185.25a4.4,4.4,0,0,1-3.34-1.25,4.72,4.72,0,0,1-1.21-3.44,5.17,5.17,0,0,1,1.12-3.53,3.87,3.87,0,0,1,3.08-1.29,3.77,3.77,0,0,1,2.87,1.11,4.2,4.2,0,0,1,1.05,3v1.06h-6.11a2.94,2.94,0,0,0,.72,2.05,2.5,2.5,0,0,0,1.91.72,7.25,7.25,0,0,0,1.52-.15,8.49,8.49,0,0,0,1.51-.52v1.59a5.74,5.74,0,0,1-1.45.48A9.22,9.22,0,0,1,406.05,185.25Zm-.35-8a2,2,0,0,0-1.49.59,2.74,2.74,0,0,0-.67,1.72h4.17a2.6,2.6,0,0,0-.55-1.72A1.88,1.88,0,0,0,405.7,177.22Z" transform="translate(0.78 -114.09)"/><path class="b" d="M424.32,185.09h-1.95v-5.65a2.5,2.5,0,0,0-.43-1.58,1.66,1.66,0,0,0-1.36-.52,2.15,2.15,0,0,0-1.81.73,4,4,0,0,0-.57,2.44v4.58h-1.95v-9.18h1.53l.27,1.2h.1a2.79,2.79,0,0,1,1.18-1,3.91,3.91,0,0,1,1.69-.36q3.3,0,3.3,3.36Z" transform="translate(0.78 -114.09)"/><rect class="g" x="368.1" y="79.71" width="101.95" height="33.98"/><path class="d" d="M383.75,208.23a3.52,3.52,0,0,1-1.24,2.91,5.46,5.46,0,0,1-3.55,1H377.7v4.54h-2V204.56h3.49a5.3,5.3,0,0,1,3.41.93A3.35,3.35,0,0,1,383.75,208.23Zm-6.05,2.26h1.06A3.75,3.75,0,0,0,381,210a1.93,1.93,0,0,0,.71-1.66,1.89,1.89,0,0,0-.64-1.56,3.16,3.16,0,0,0-2-.51H377.7Z" transform="translate(0.78 -114.09)"/><path class="d" d="M394.11,212.09A5,5,0,0,1,393,215.6a4.14,4.14,0,0,1-3.21,1.26,4.45,4.45,0,0,1-2.27-.58,3.85,3.85,0,0,1-1.52-1.67,5.76,5.76,0,0,1-.53-2.52,5,5,0,0,1,1.14-3.49,4.18,4.18,0,0,1,3.23-1.25,4,4,0,0,1,3.15,1.28A5,5,0,0,1,394.11,212.09Zm-6.68,0c0,2.12.78,3.17,2.34,3.17s2.33-1,2.33-3.17-.78-3.15-2.34-3.15a2,2,0,0,0-1.78.81A4.15,4.15,0,0,0,387.43,212.09Z" transform="translate(0.78 -114.09)"/><path class="d" d="M399.44,216.86a3.2,3.2,0,0,1-2.68-1.25,6.83,6.83,0,0,1,0-7,3.22,3.22,0,0,1,2.7-1.26,3.16,3.16,0,0,1,2.76,1.33h.1a10.55,10.55,0,0,1-.14-1.56v-3.34h2v12.91h-1.53l-.34-1.2h-.09A3.13,3.13,0,0,1,399.44,216.86Zm.52-1.58a2.08,2.08,0,0,0,1.75-.68,3.51,3.51,0,0,0,.57-2.19v-.27a4.1,4.1,0,0,0-.57-2.47,2.09,2.09,0,0,0-1.76-.73,1.79,1.79,0,0,0-1.59.84,4.24,4.24,0,0,0-.55,2.37,4.16,4.16,0,0,0,.54,2.33A1.81,1.81,0,0,0,400,215.28Z" transform="translate(0.78 -114.09)"/><rect class="g" x="45.14" y="108.32" width="101.95" height="67.97"/><path class="d" d="M60.79,234.72a3.52,3.52,0,0,1-1.24,2.91,5.46,5.46,0,0,1-3.55,1H54.74v4.53h-2V231.05h3.49a5.3,5.3,0,0,1,3.41.93A3.35,3.35,0,0,1,60.79,234.72Zm-6,2.26H55.8a3.83,3.83,0,0,0,2.24-.53,2,2,0,0,0,.71-1.66,1.86,1.86,0,0,0-.64-1.56,3.1,3.1,0,0,0-2-.52H54.74Z" transform="translate(0.78 -114.09)"/><path class="d" d="M71.15,238.58A5,5,0,0,1,70,242.09a4.14,4.14,0,0,1-3.21,1.26,4.36,4.36,0,0,1-2.27-.58A3.8,3.8,0,0,1,63,241.1a5.7,5.7,0,0,1-.53-2.52,5,5,0,0,1,1.14-3.49,4.18,4.18,0,0,1,3.23-1.25A4,4,0,0,1,70,235.12,5,5,0,0,1,71.15,238.58Zm-6.68,0q0,3.18,2.34,3.18c1.55,0,2.33-1.06,2.33-3.18s-.78-3.15-2.34-3.15a2,2,0,0,0-1.78.82A4.12,4.12,0,0,0,64.47,238.58Z" transform="translate(0.78 -114.09)"/><path class="d" d="M76.48,243.35a3.2,3.2,0,0,1-2.68-1.25,6.83,6.83,0,0,1,0-7,3.22,3.22,0,0,1,2.7-1.26,3.17,3.17,0,0,1,2.76,1.34h.1a10.77,10.77,0,0,1-.14-1.56v-3.35h2v12.91H79.66l-.34-1.2h-.09A3.13,3.13,0,0,1,76.48,243.35Zm.52-1.58a2.1,2.1,0,0,0,1.75-.67,3.54,3.54,0,0,0,.57-2.2v-.27a4.1,4.1,0,0,0-.57-2.47,2.09,2.09,0,0,0-1.76-.73,1.79,1.79,0,0,0-1.59.84,4.28,4.28,0,0,0-.55,2.38,4.14,4.14,0,0,0,.54,2.32A1.79,1.79,0,0,0,77,241.77Z" transform="translate(0.78 -114.09)"/><path class="d" d="M55.81,262.3H53.88v-7.49H51.41V253.2h6.87v1.61H55.81Z" transform="translate(0.78 -114.09)"/><path class="d" d="M65.86,258.81a3.74,3.74,0,0,1-.9,2.66,3.28,3.28,0,0,1-2.49.95A3.52,3.52,0,0,1,60.7,262a3.05,3.05,0,0,1-1.18-1.26,4.31,4.31,0,0,1-.41-1.92,3.72,3.72,0,0,1,.89-2.65,3.27,3.27,0,0,1,2.5-1,3.52,3.52,0,0,1,1.77.44,2.91,2.91,0,0,1,1.18,1.25A4.23,4.23,0,0,1,65.86,258.81Zm-4.81,0a2.87,2.87,0,0,0,.34,1.56,1.2,1.2,0,0,0,1.1.53,1.19,1.19,0,0,0,1.09-.53,3,3,0,0,0,.34-1.56,2.9,2.9,0,0,0-.34-1.55,1.23,1.23,0,0,0-1.1-.52,1.21,1.21,0,0,0-1.1.52A2.91,2.91,0,0,0,61.05,258.81Z" transform="translate(0.78 -114.09)"/><path class="d" d="M69.32,262.3h-1.9v-9.68h1.9Z" transform="translate(0.78 -114.09)"/><path class="d" d="M74.46,262.42a3.25,3.25,0,0,1-3.57-3.55,3.82,3.82,0,0,1,.88-2.7,3.54,3.54,0,0,1,4.71-.12,3.18,3.18,0,0,1,.82,2.32v.92H72.81a1.85,1.85,0,0,0,.48,1.27,1.7,1.7,0,0,0,1.26.45,5,5,0,0,0,1.19-.13,5.73,5.73,0,0,0,1.17-.42v1.47a4.23,4.23,0,0,1-1.07.37A6.67,6.67,0,0,1,74.46,262.42Zm-.26-5.86a1.19,1.19,0,0,0-1,.39,1.71,1.71,0,0,0-.39,1.08h2.66a1.55,1.55,0,0,0-.37-1.08A1.21,1.21,0,0,0,74.2,256.56Z" transform="translate(0.78 -114.09)"/><path class="d" d="M82.73,255.21a2.9,2.9,0,0,1,.64.06l-.15,1.78a2.23,2.23,0,0,0-.56-.06,2,2,0,0,0-1.41.46,1.69,1.69,0,0,0-.51,1.31v3.54h-1.9v-7h1.44l.28,1.17h.09a2.65,2.65,0,0,1,.88-.94A2.14,2.14,0,0,1,82.73,255.21Z" transform="translate(0.78 -114.09)"/><path class="d" d="M89.05,262.3l-.37-.95h-.05a2.74,2.74,0,0,1-1,.84,3.14,3.14,0,0,1-1.33.23,2.13,2.13,0,0,1-1.57-.57,2.17,2.17,0,0,1-.58-1.63,1.84,1.84,0,0,1,.77-1.63,4.45,4.45,0,0,1,2.34-.58l1.21,0v-.31a.94.94,0,0,0-1.08-1.05,4.83,4.83,0,0,0-2,.5l-.63-1.28a5.64,5.64,0,0,1,2.66-.63,3.32,3.32,0,0,1,2.15.61,2.27,2.27,0,0,1,.74,1.85v4.64Zm-.56-3.22-.74,0a2.41,2.41,0,0,0-1.23.3.93.93,0,0,0-.4.83c0,.54.3.81.92.81a1.45,1.45,0,0,0,1-.38,1.33,1.33,0,0,0,.4-1Z" transform="translate(0.78 -114.09)"/><path class="d" d="M95.26,260.91a3.93,3.93,0,0,0,1.19-.22v1.42a4.27,4.27,0,0,1-1.74.31,2.15,2.15,0,0,1-1.66-.57,2.55,2.55,0,0,1-.52-1.73v-3.35h-.91V256l1-.63.55-1.47h1.21v1.48h1.95v1.43H94.43v3.35a.75.75,0,0,0,.23.6A.88.88,0,0,0,95.26,260.91Z" transform="translate(0.78 -114.09)"/><path class="d" d="M97.78,253.54c0-.61.34-.92,1-.92s1,.31,1,.92a.9.9,0,0,1-.26.69,1.06,1.06,0,0,1-.78.25C98.12,254.48,97.78,254.17,97.78,253.54Zm2,8.76h-1.9v-7h1.9Z" transform="translate(0.78 -114.09)"/><path class="d" d="M108.07,258.81a3.78,3.78,0,0,1-.89,2.66,3.29,3.29,0,0,1-2.5.95,3.52,3.52,0,0,1-1.77-.43,3,3,0,0,1-1.17-1.26,4.18,4.18,0,0,1-.41-1.92,3.68,3.68,0,0,1,.89-2.65,3.26,3.26,0,0,1,2.5-1,3.48,3.48,0,0,1,1.76.44,2.8,2.8,0,0,1,1.18,1.25A4.11,4.11,0,0,1,108.07,258.81Zm-4.81,0a2.87,2.87,0,0,0,.34,1.56,1.23,1.23,0,0,0,1.11.53,1.2,1.2,0,0,0,1.09-.53,3,3,0,0,0,.33-1.56,2.81,2.81,0,0,0-.34-1.55,1.22,1.22,0,0,0-1.1-.52,1.19,1.19,0,0,0-1.09.52A2.81,2.81,0,0,0,103.26,258.81Z" transform="translate(0.78 -114.09)"/><path class="d" d="M116.06,262.3h-1.9v-4.06a2,2,0,0,0-.26-1.13,1,1,0,0,0-.86-.38,1.29,1.29,0,0,0-1.15.53,3.41,3.41,0,0,0-.35,1.77v3.27h-1.9v-7h1.45l.26.89h.1a2,2,0,0,1,.88-.76,3,3,0,0,1,1.26-.26,2.42,2.42,0,0,1,1.84.66,2.63,2.63,0,0,1,.63,1.89Z" transform="translate(0.78 -114.09)"/><path class="d" d="M117.75,256.27a1,1,0,0,1,.28-.79,1.12,1.12,0,0,1,.81-.27,1.07,1.07,0,0,1,.8.28,1.19,1.19,0,0,1,0,1.56,1.3,1.3,0,0,1-1.61,0A1,1,0,0,1,117.75,256.27Zm0,5.14a1,1,0,0,1,.28-.79,1.12,1.12,0,0,1,.81-.27,1.07,1.07,0,0,1,.8.28,1.18,1.18,0,0,1,0,1.55,1.09,1.09,0,0,1-.8.29,1.11,1.11,0,0,1-.81-.28A1,1,0,0,1,117.75,261.41Z" transform="translate(0.78 -114.09)"/><path class="d" d="M55.08,275.78a4,4,0,0,0,1.2-.22V277a4.1,4.1,0,0,1-1.74.32,2.15,2.15,0,0,1-1.66-.57,2.5,2.5,0,0,1-.52-1.73v-3.35h-.91v-.81l1-.63.54-1.47h1.22v1.48h2v1.43h-2V275a.75.75,0,0,0,.22.6A.92.92,0,0,0,55.08,275.78Z" transform="translate(0.78 -114.09)"/><path class="d" d="M62.1,277.17l-.36-.95h-.05a2.89,2.89,0,0,1-1,.84,3.29,3.29,0,0,1-1.32.23,2.16,2.16,0,0,1-1.58-.57,2.22,2.22,0,0,1-.57-1.63,1.82,1.82,0,0,1,.77-1.63,4.54,4.54,0,0,1,2.34-.59l1.2,0v-.31a1,1,0,0,0-1.08-1.06,4.91,4.91,0,0,0-2,.51l-.63-1.28a5.66,5.66,0,0,1,2.67-.63,3.27,3.27,0,0,1,2.14.61,2.23,2.23,0,0,1,.75,1.85v4.64Zm-.56-3.23-.73,0a2.41,2.41,0,0,0-1.23.3.94.94,0,0,0-.41.83c0,.54.31.8.92.8a1.47,1.47,0,0,0,1.06-.37,1.36,1.36,0,0,0,.39-1Z" transform="translate(0.78 -114.09)"/><path class="d" d="M65.3,268.41c0-.62.35-.92,1-.92s1,.3,1,.92a.9.9,0,0,1-.26.69,1.1,1.1,0,0,1-.77.25C65.65,269.35,65.3,269,65.3,268.41Zm2,8.76h-1.9v-7h1.9Z" transform="translate(0.78 -114.09)"/><path class="d" d="M75.69,277.17H73.8V273.1a2,2,0,0,0-.27-1.13,1,1,0,0,0-.85-.37,1.28,1.28,0,0,0-1.15.53,3.26,3.26,0,0,0-.36,1.76v3.28h-1.9v-7h1.45l.26.89h.1a2,2,0,0,1,.88-.76,3,3,0,0,1,1.26-.26,2.44,2.44,0,0,1,1.85.66,2.61,2.61,0,0,1,.62,1.89Z" transform="translate(0.78 -114.09)"/><path class="d" d="M80.58,275.78a3.93,3.93,0,0,0,1.19-.22V277a4.1,4.1,0,0,1-1.74.32,2.15,2.15,0,0,1-1.66-.57,2.55,2.55,0,0,1-.52-1.73v-3.35H77v-.81l1-.63.55-1.47h1.21v1.48h2v1.43h-2V275a.75.75,0,0,0,.23.6A.88.88,0,0,0,80.58,275.78Z" transform="translate(0.78 -114.09)"/><path class="d" d="M86,272.16V270.8h6.18v1.36Zm0,2.41V273.2h6.18v1.37Z" transform="translate(0.78 -114.09)"/><path class="d" d="M100,275.78a3.93,3.93,0,0,0,1.19-.22V277a4.1,4.1,0,0,1-1.74.32,2.15,2.15,0,0,1-1.66-.57,2.5,2.5,0,0,1-.52-1.73v-3.35h-.91v-.81l1-.63.55-1.47h1.21v1.48h1.95v1.43H99.18V275a.75.75,0,0,0,.23.6A.88.88,0,0,0,100,275.78Z" transform="translate(0.78 -114.09)"/><path class="d" d="M105.76,277.29a3.63,3.63,0,0,1-2.63-.92,3.53,3.53,0,0,1-.94-2.63,3.84,3.84,0,0,1,.87-2.7,3.1,3.1,0,0,1,2.42-1,3,3,0,0,1,2.29.84,3.16,3.16,0,0,1,.82,2.32v.92h-4.48a1.85,1.85,0,0,0,.48,1.27,1.69,1.69,0,0,0,1.25.45,5,5,0,0,0,1.19-.13,5.91,5.91,0,0,0,1.17-.42v1.47a4.16,4.16,0,0,1-1.06.37A6.81,6.81,0,0,1,105.76,277.29Zm-.27-5.86a1.23,1.23,0,0,0-.95.38,1.89,1.89,0,0,0-.39,1.09h2.66a1.59,1.59,0,0,0-.36-1.09A1.27,1.27,0,0,0,105.49,271.43Z" transform="translate(0.78 -114.09)"/><path class="d" d="M115,275.1a1.91,1.91,0,0,1-.74,1.63,3.65,3.65,0,0,1-2.23.56,6.9,6.9,0,0,1-1.29-.1,5.07,5.07,0,0,1-1-.3v-1.57a6.89,6.89,0,0,0,1.19.42,4.86,4.86,0,0,0,1.17.16c.68,0,1-.19,1-.59a.53.53,0,0,0-.14-.37,1.89,1.89,0,0,0-.47-.31c-.23-.12-.52-.26-.9-.42a5.61,5.61,0,0,1-1.18-.62,1.68,1.68,0,0,1-.54-.66,2,2,0,0,1-.18-.91,1.64,1.64,0,0,1,.72-1.43,3.49,3.49,0,0,1,2-.51,5.75,5.75,0,0,1,2.45.55l-.58,1.37c-.34-.15-.67-.27-1-.37a3,3,0,0,0-.93-.14q-.84,0-.84.45a.53.53,0,0,0,.27.44,7.27,7.27,0,0,0,1.19.56,5.53,5.53,0,0,1,1.19.61,1.83,1.83,0,0,1,.56.66A2,2,0,0,1,115,275.1Z" transform="translate(0.78 -114.09)"/><path class="d" d="M119.4,275.78a4,4,0,0,0,1.2-.22V277a4.13,4.13,0,0,1-1.74.32,2.14,2.14,0,0,1-1.66-.57,2.5,2.5,0,0,1-.52-1.73v-3.35h-.91v-.81l1-.63.55-1.47h1.22v1.48h1.94v1.43h-1.94V275a.75.75,0,0,0,.22.6A.88.88,0,0,0,119.4,275.78Z" transform="translate(0.78 -114.09)"/><rect class="g" x="223.71" y="79.71" width="101.95" height="33.98"/><path class="d" d="M239.37,208.23a3.52,3.52,0,0,1-1.25,2.91,5.45,5.45,0,0,1-3.54,1h-1.26v4.54h-2V204.56h3.49a5.26,5.26,0,0,1,3.4.93A3.32,3.32,0,0,1,239.37,208.23Zm-6.05,2.26h1.05a3.71,3.71,0,0,0,2.24-.54,2.25,2.25,0,0,0,.08-3.22,3.18,3.18,0,0,0-2-.51h-1.38Z" transform="translate(0.78 -114.09)"/><path class="d" d="M249.72,212.09a5,5,0,0,1-1.15,3.51,4.14,4.14,0,0,1-3.21,1.26,4.49,4.49,0,0,1-2.28-.58,3.89,3.89,0,0,1-1.51-1.67,5.63,5.63,0,0,1-.54-2.52,5,5,0,0,1,1.15-3.49,4.17,4.17,0,0,1,3.23-1.25,4.06,4.06,0,0,1,3.15,1.28A5,5,0,0,1,249.72,212.09Zm-6.68,0c0,2.12.79,3.17,2.35,3.17s2.32-1,2.32-3.17-.78-3.15-2.34-3.15a2,2,0,0,0-1.78.81A4.24,4.24,0,0,0,243,212.09Z" transform="translate(0.78 -114.09)"/><path class="d" d="M255.06,216.86a3.19,3.19,0,0,1-2.68-1.25,6.77,6.77,0,0,1,0-7,3.22,3.22,0,0,1,2.7-1.26,3.15,3.15,0,0,1,2.75,1.33h.1a12.13,12.13,0,0,1-.14-1.56v-3.34h2v12.91h-1.53l-.34-1.2h-.09A3.11,3.11,0,0,1,255.06,216.86Zm.52-1.58a2.09,2.09,0,0,0,1.75-.68,3.51,3.51,0,0,0,.56-2.19v-.27a4.11,4.11,0,0,0-.56-2.47,2.11,2.11,0,0,0-1.77-.73,1.79,1.79,0,0,0-1.58.84,4.23,4.23,0,0,0-.56,2.37,4.16,4.16,0,0,0,.54,2.33A1.83,1.83,0,0,0,255.58,215.28Z" transform="translate(0.78 -114.09)"/><rect class="g" x="223.71" y="122.19" width="101.95" height="33.98"/><path class="d" d="M239.37,250.71a3.52,3.52,0,0,1-1.25,2.91,5.45,5.45,0,0,1-3.54,1h-1.26v4.54h-2V247h3.49a5.26,5.26,0,0,1,3.4.93A3.32,3.32,0,0,1,239.37,250.71ZM233.32,253h1.05a3.79,3.79,0,0,0,2.24-.53,1.94,1.94,0,0,0,.72-1.66,1.89,1.89,0,0,0-.64-1.56,3.12,3.12,0,0,0-2-.52h-1.38Z" transform="translate(0.78 -114.09)"/><path class="d" d="M249.72,254.57a5,5,0,0,1-1.15,3.51,4.14,4.14,0,0,1-3.21,1.26,4.39,4.39,0,0,1-2.28-.58,3.83,3.83,0,0,1-1.51-1.67,5.6,5.6,0,0,1-.54-2.52,5,5,0,0,1,1.15-3.49,4.17,4.17,0,0,1,3.23-1.25,4.06,4.06,0,0,1,3.15,1.28A5,5,0,0,1,249.72,254.57Zm-6.68,0c0,2.12.79,3.18,2.35,3.18s2.32-1.06,2.32-3.18-.78-3.15-2.34-3.15a2,2,0,0,0-1.78.82A4.2,4.2,0,0,0,243,254.57Z" transform="translate(0.78 -114.09)"/><path class="d" d="M255.06,259.34a3.19,3.19,0,0,1-2.68-1.25,6.77,6.77,0,0,1,0-7,3.22,3.22,0,0,1,2.7-1.26,3.15,3.15,0,0,1,2.75,1.34h.1a12.43,12.43,0,0,1-.14-1.56v-3.35h2v12.91h-1.53l-.34-1.2h-.09A3.11,3.11,0,0,1,255.06,259.34Zm.52-1.58a2.12,2.12,0,0,0,1.75-.67,3.54,3.54,0,0,0,.56-2.2v-.27a4.11,4.11,0,0,0-.56-2.47,2.11,2.11,0,0,0-1.77-.73,1.79,1.79,0,0,0-1.58.84,4.26,4.26,0,0,0-.56,2.37A4.16,4.16,0,0,0,254,257,1.81,1.81,0,0,0,255.58,257.76Z" transform="translate(0.78 -114.09)"/><rect class="g" x="223.71" y="164.67" width="101.95" height="33.98"/><path class="d" d="M239.37,293.19a3.52,3.52,0,0,1-1.25,2.91,5.45,5.45,0,0,1-3.54,1h-1.26v4.53h-2V289.52h3.49a5.26,5.26,0,0,1,3.4.93A3.32,3.32,0,0,1,239.37,293.19Zm-6.05,2.26h1.05a3.79,3.79,0,0,0,2.24-.53,1.94,1.94,0,0,0,.72-1.66,1.89,1.89,0,0,0-.64-1.56,3.12,3.12,0,0,0-2-.52h-1.38Z" transform="translate(0.78 -114.09)"/><path class="d" d="M249.72,297.05a5,5,0,0,1-1.15,3.51,4.14,4.14,0,0,1-3.21,1.26,4.39,4.39,0,0,1-2.28-.58,3.83,3.83,0,0,1-1.51-1.67,5.57,5.57,0,0,1-.54-2.52,5,5,0,0,1,1.15-3.49,4.17,4.17,0,0,1,3.23-1.25,4.06,4.06,0,0,1,3.15,1.28A5,5,0,0,1,249.72,297.05Zm-6.68,0c0,2.12.79,3.18,2.35,3.18s2.32-1.06,2.32-3.18-.78-3.15-2.34-3.15a2,2,0,0,0-1.78.82A4.2,4.2,0,0,0,243,297.05Z" transform="translate(0.78 -114.09)"/><path class="d" d="M255.06,301.82a3.19,3.19,0,0,1-2.68-1.25,6.77,6.77,0,0,1,0-7,3.22,3.22,0,0,1,2.7-1.26,3.15,3.15,0,0,1,2.75,1.34h.1a12.43,12.43,0,0,1-.14-1.56v-3.35h2v12.91h-1.53l-.34-1.2h-.09A3.11,3.11,0,0,1,255.06,301.82Zm.52-1.58a2.12,2.12,0,0,0,1.75-.67,3.54,3.54,0,0,0,.56-2.2v-.27a4.11,4.11,0,0,0-.56-2.47,2.11,2.11,0,0,0-1.77-.73,1.79,1.79,0,0,0-1.58.84,4.27,4.27,0,0,0-.56,2.38,4.14,4.14,0,0,0,.54,2.32A1.81,1.81,0,0,0,255.58,300.24Z" transform="translate(0.78 -114.09)"/><rect class="g" x="223.71" y="207.15" width="101.95" height="33.98"/><path class="d" d="M239.37,335.67a3.52,3.52,0,0,1-1.25,2.91,5.45,5.45,0,0,1-3.54,1h-1.26v4.53h-2V332h3.49a5.26,5.26,0,0,1,3.4.93A3.34,3.34,0,0,1,239.37,335.67Zm-6.05,2.26h1.05a3.79,3.79,0,0,0,2.24-.53,1.94,1.94,0,0,0,.72-1.66,1.89,1.89,0,0,0-.64-1.56,3.12,3.12,0,0,0-2-.52h-1.38Z" transform="translate(0.78 -114.09)"/><path class="d" d="M249.72,339.53a5,5,0,0,1-1.15,3.51,4.14,4.14,0,0,1-3.21,1.26,4.39,4.39,0,0,1-2.28-.58,3.83,3.83,0,0,1-1.51-1.67,5.57,5.57,0,0,1-.54-2.52,5,5,0,0,1,1.15-3.49,4.17,4.17,0,0,1,3.23-1.25,4.06,4.06,0,0,1,3.15,1.28A5,5,0,0,1,249.72,339.53Zm-6.68,0c0,2.12.79,3.18,2.35,3.18s2.32-1.06,2.32-3.18-.78-3.14-2.34-3.14a2,2,0,0,0-1.78.81A4.2,4.2,0,0,0,243,339.53Z" transform="translate(0.78 -114.09)"/><path class="d" d="M255.06,344.3a3.18,3.18,0,0,1-2.68-1.24,6.79,6.79,0,0,1,0-7,3.22,3.22,0,0,1,2.7-1.26,3.15,3.15,0,0,1,2.75,1.34h.1a12.43,12.43,0,0,1-.14-1.56v-3.35h2v12.91h-1.53l-.34-1.2h-.09A3.11,3.11,0,0,1,255.06,344.3Zm.52-1.58a2.12,2.12,0,0,0,1.75-.67,3.52,3.52,0,0,0,.56-2.2v-.27a4.05,4.05,0,0,0-.56-2.46,2.08,2.08,0,0,0-1.77-.73,1.78,1.78,0,0,0-1.58.83,4.29,4.29,0,0,0-.56,2.38,4.14,4.14,0,0,0,.54,2.32A1.81,1.81,0,0,0,255.58,342.72Z" transform="translate(0.78 -114.09)"/><rect class="g" x="368.1" y="121.28" width="101.95" height="33.98"/><path class="d" d="M383.75,249.8a3.53,3.53,0,0,1-1.24,2.91,5.52,5.52,0,0,1-3.55,1H377.7v4.54h-2V246.13h3.49a5.3,5.3,0,0,1,3.41.93A3.35,3.35,0,0,1,383.75,249.8Zm-6.05,2.25h1.06a3.76,3.76,0,0,0,2.24-.53,1.93,1.93,0,0,0,.71-1.66,1.89,1.89,0,0,0-.64-1.56,3.16,3.16,0,0,0-2-.51H377.7Z" transform="translate(0.78 -114.09)"/><path class="d" d="M394.11,253.66a5,5,0,0,1-1.16,3.51,4.14,4.14,0,0,1-3.21,1.26,4.45,4.45,0,0,1-2.27-.58,3.85,3.85,0,0,1-1.52-1.67,5.76,5.76,0,0,1-.53-2.52,5,5,0,0,1,1.14-3.49,4.18,4.18,0,0,1,3.23-1.25,4,4,0,0,1,3.15,1.28A4.93,4.93,0,0,1,394.11,253.66Zm-6.68,0c0,2.11.78,3.17,2.34,3.17s2.33-1.06,2.33-3.17-.78-3.15-2.34-3.15a2,2,0,0,0-1.78.81A4.15,4.15,0,0,0,387.43,253.66Z" transform="translate(0.78 -114.09)"/><path class="d" d="M399.44,258.43a3.2,3.2,0,0,1-2.68-1.25,6.83,6.83,0,0,1,0-7,3.22,3.22,0,0,1,2.7-1.26,3.16,3.16,0,0,1,2.76,1.33h.1a10.55,10.55,0,0,1-.14-1.56v-3.34h2v12.91h-1.53l-.34-1.2h-.09A3.13,3.13,0,0,1,399.44,258.43Zm.52-1.58a2.11,2.11,0,0,0,1.75-.68,3.51,3.51,0,0,0,.57-2.19v-.27a4.1,4.1,0,0,0-.57-2.47,2.06,2.06,0,0,0-1.76-.73,1.79,1.79,0,0,0-1.59.84,4.24,4.24,0,0,0-.55,2.37,4.16,4.16,0,0,0,.54,2.33A1.81,1.81,0,0,0,400,256.85Z" transform="translate(0.78 -114.09)"/><rect class="g" x="368.1" y="163.76" width="101.95" height="33.98"/><path class="d" d="M383.75,292.28a3.53,3.53,0,0,1-1.24,2.91,5.46,5.46,0,0,1-3.55,1H377.7v4.54h-2V288.61h3.49a5.3,5.3,0,0,1,3.41.93A3.35,3.35,0,0,1,383.75,292.28Zm-6.05,2.26h1.06A3.75,3.75,0,0,0,381,294a1.93,1.93,0,0,0,.71-1.66,1.86,1.86,0,0,0-.64-1.55,3.1,3.1,0,0,0-2-.52H377.7Z" transform="translate(0.78 -114.09)"/><path class="d" d="M394.11,296.14a5,5,0,0,1-1.16,3.51,4.14,4.14,0,0,1-3.21,1.26,4.45,4.45,0,0,1-2.27-.58,3.85,3.85,0,0,1-1.52-1.67,5.76,5.76,0,0,1-.53-2.52,5,5,0,0,1,1.14-3.49,4.18,4.18,0,0,1,3.23-1.25,4,4,0,0,1,3.15,1.28A5,5,0,0,1,394.11,296.14Zm-6.68,0c0,2.11.78,3.17,2.34,3.17s2.33-1.06,2.33-3.17-.78-3.15-2.34-3.15a2,2,0,0,0-1.78.81A4.15,4.15,0,0,0,387.43,296.14Z" transform="translate(0.78 -114.09)"/><path class="d" d="M399.44,300.91a3.2,3.2,0,0,1-2.68-1.25,6.83,6.83,0,0,1,0-7,3.22,3.22,0,0,1,2.7-1.26,3.16,3.16,0,0,1,2.76,1.33h.1a10.55,10.55,0,0,1-.14-1.56v-3.34h2v12.91h-1.53l-.34-1.2h-.09A3.13,3.13,0,0,1,399.44,300.91Zm.52-1.58a2.08,2.08,0,0,0,1.75-.68,3.51,3.51,0,0,0,.57-2.19v-.27a4.1,4.1,0,0,0-.57-2.47A2.09,2.09,0,0,0,400,293a1.79,1.79,0,0,0-1.59.84,4.24,4.24,0,0,0-.55,2.37,4.16,4.16,0,0,0,.54,2.33A1.81,1.81,0,0,0,400,299.33Z" transform="translate(0.78 -114.09)"/></svg>