<svg width="2088" height="200" viewBox="0 0 2088 200" fill="none" xmlns="http://www.w3.org/2000/svg">
<path d="M285.563 100L275.563 94.2265L275.563 105.773L285.563 100ZM142.563 101L145.543 101L145.543 99L142.563 99L142.563 101ZM151.501 101L157.459 101L157.459 99L151.501 99L151.501 101ZM163.418 101L169.376 101L169.376 99L163.418 99L163.418 101ZM175.334 101L181.293 101L181.293 99L175.334 99L175.334 101ZM187.251 101L193.209 101L193.209 99L187.251 99L187.251 101ZM199.168 101L205.126 101L205.126 99L199.168 99L199.168 101ZM211.084 101L217.043 101L217.043 99L211.084 99L211.084 101ZM223.001 101L228.959 101L228.959 99L223.001 99L223.001 101ZM234.918 101L240.876 101L240.876 99L234.918 99L234.918 101ZM246.834 101L252.793 101L252.793 99L246.834 99L246.834 101ZM258.751 101L264.709 101L264.709 99L258.751 99L258.751 101ZM270.668 101L276.626 101L276.626 99L270.668 99L270.668 101ZM285.563 100L265.563 88.453L265.563 111.547L285.563 100ZM142.563 102L145.543 102L145.543 98L142.563 98L142.563 102ZM151.501 102L157.459 102L157.459 98L151.501 98L151.501 102ZM163.418 102L169.376 102L169.376 98L163.418 98L163.418 102ZM175.334 102L181.293 102L181.293 98L175.334 98L175.334 102ZM187.251 102L193.209 102L193.209 98L187.251 98L187.251 102ZM199.168 102L205.126 102L205.126 98L199.168 98L199.168 102ZM211.084 102L217.043 102L217.043 98L211.084 98L211.084 102ZM223.001 102L228.959 102L228.959 98L223.001 98L223.001 102ZM234.918 102L240.876 102L240.876 98L234.918 98L234.918 102ZM246.834 102L252.793 102L252.793 98L246.834 98L246.834 102ZM258.751 102L264.709 102L264.709 98L258.751 98L258.751 102ZM270.668 102L276.626 102L276.626 98L270.668 98L270.668 102Z" fill="#5B50D6"/>
<rect x="681.564" y="1" width="254" height="198" rx="3" fill="#5B50D6" fill-opacity="0.6" stroke="#5B50D6" stroke-width="2"/>
<rect x="1832.56" y="1" width="254" height="198" rx="3" fill="#5B50D6" fill-opacity="0.6" stroke="#5B50D6" stroke-width="2"/>
<rect x="1449.56" y="1" width="254" height="198" rx="3" fill="#5B50D6" fill-opacity="0.6" stroke="#5B50D6" stroke-width="2"/>
<rect x="1065.56" y="1" width="254" height="198" rx="3" fill="#5B50D6" fill-opacity="0.6" stroke="#5B50D6" stroke-width="2"/>
<path d="M1053.56 100L1038.56 91.3397V108.66L1053.56 100ZM953.564 101.5L1040.06 101.5V98.5L953.564 98.5V101.5Z" fill="#5B50D6"/>
<rect x="298" y="1" width="254" height="198" rx="3" fill="#5B50D6" fill-opacity="0.6" stroke="#5B50D6" stroke-width="2"/>
<path d="M670 100L655 91.3397V108.66L670 100ZM570 101.5L656.5 101.5V98.5L570 98.5V101.5Z" fill="#5B50D6"/>
<path d="M1820.56 100L1805.56 91.3397V108.66L1820.56 100ZM1720.56 101.5L1807.06 101.5V98.5L1720.56 98.5V101.5Z" fill="#5B50D6"/>
<path d="M1436.56 100L1421.56 91.3397V108.66L1436.56 100ZM1336.56 101.5L1423.06 101.5V98.5L1336.56 98.5V101.5Z" fill="#5B50D6"/>
<path d="M768.845 113C774.241 113 777.44 110.346 777.44 105.881C777.44 102.523 775.243 100.15 771.78 99.7109V99.4297C774.224 98.9902 776.157 96.5996 776.157 93.9629C776.157 90.0781 773.31 87.6348 768.651 87.6348H758.948V113H768.845ZM762.112 90.4297H767.983C771.13 90.4297 772.958 91.9238 772.958 94.5078C772.958 97.1973 771.007 98.5684 767.175 98.5684H762.112V90.4297ZM762.112 110.205V101.293H768.071C772.114 101.293 774.189 102.787 774.189 105.723C774.189 108.658 772.185 110.205 768.37 110.205H762.112ZM785.86 87.6348H782.696V104.281C782.696 109.695 786.476 113.598 792.769 113.598C799.062 113.598 802.841 109.695 802.841 104.281V87.6348H799.677V104.07C799.677 107.902 797.163 110.68 792.769 110.68C788.374 110.68 785.86 107.902 785.86 104.07V87.6348ZM812.562 113V87.6348H809.398V113H812.562ZM834.429 110.152H822.194V87.6348H819.03V113H834.429V110.152ZM839.491 87.6348V113H848.192C855.733 113 860.163 108.307 860.163 100.309C860.163 92.3281 855.716 87.6348 848.192 87.6348H839.491ZM842.655 90.4824H847.982C853.607 90.4824 856.929 94.1387 856.929 100.344C856.929 106.531 853.642 110.152 847.982 110.152H842.655V90.4824Z" fill="white"/>
<path d="M395.195 113H398.518L389.166 87.6348H386.037L376.686 113H380.008L382.557 105.74H392.646L395.195 113ZM387.461 91.7305H387.742L391.715 103.051H383.488L387.461 91.7305ZM405.689 87.6348H402.525V104.281C402.525 109.695 406.305 113.598 412.598 113.598C418.891 113.598 422.67 109.695 422.67 104.281V87.6348H419.506V104.07C419.506 107.902 416.992 110.68 412.598 110.68C408.203 110.68 405.689 107.902 405.689 104.07V87.6348ZM438.982 113V90.4824H447.156V87.6348H427.645V90.4824H435.818V113H438.982ZM472.293 113V87.6348H469.129V98.6035H455.207V87.6348H452.043V113H455.207V101.451H469.129V113H472.293Z" fill="white"/>
<path d="M1126.27 87.6348V113H1134.97C1142.51 113 1146.94 108.307 1146.94 100.309C1146.94 92.3281 1142.49 87.6348 1134.97 87.6348H1126.27ZM1129.43 90.4824H1134.76C1140.38 90.4824 1143.7 94.1387 1143.7 100.344C1143.7 106.531 1140.42 110.152 1134.76 110.152H1129.43V90.4824ZM1168.14 110.152H1155.59V101.434H1167.49V98.6211H1155.59V90.4824H1168.14V87.6348H1152.42V113H1168.14V110.152ZM1173.87 87.6348V113H1177.03V103.947H1183.41C1188.18 103.947 1191.57 100.59 1191.57 95.8438C1191.57 91.0098 1188.25 87.6348 1183.45 87.6348H1173.87ZM1177.03 90.4473H1182.62C1186.3 90.4473 1188.32 92.3633 1188.32 95.8438C1188.32 99.2012 1186.23 101.135 1182.62 101.135H1177.03V90.4473ZM1212.15 110.152H1199.92V87.6348H1196.75V113H1212.15V110.152ZM1226.83 87.0371C1219.66 87.0371 1215.18 92.1523 1215.18 100.309C1215.18 108.43 1219.55 113.598 1226.83 113.598C1234.07 113.598 1238.43 108.412 1238.43 100.309C1238.43 92.1699 1234.04 87.0371 1226.83 87.0371ZM1226.83 89.9551C1232.02 89.9551 1235.18 93.9629 1235.18 100.309C1235.18 106.602 1232.03 110.68 1226.83 110.68C1221.56 110.68 1218.43 106.602 1218.43 100.309C1218.43 93.9629 1221.66 89.9551 1226.83 89.9551ZM1252.86 113V102.084L1261.86 87.6348H1258.26L1251.42 98.9023H1251.14L1244.3 87.6348H1240.7L1249.7 102.084V113H1252.86Z" fill="white"/>
<path d="M1544.45 90.4473H1550.55C1553.82 90.4473 1555.79 92.2578 1555.79 95.2988C1555.79 98.4102 1553.94 100.15 1550.69 100.15H1544.45V90.4473ZM1544.45 102.963H1550.69L1556.12 113H1559.83L1553.96 102.471C1557.14 101.469 1559.06 98.7266 1559.06 95.1934C1559.06 90.623 1555.86 87.6348 1550.97 87.6348H1541.28V113H1544.45V102.963ZM1568.06 87.6348H1564.89V104.281C1564.89 109.695 1568.67 113.598 1574.96 113.598C1581.26 113.598 1585.04 109.695 1585.04 104.281V87.6348H1581.87V104.07C1581.87 107.902 1579.36 110.68 1574.96 110.68C1570.57 110.68 1568.06 107.902 1568.06 104.07V87.6348ZM1594.72 113V93.3301H1595L1608.77 113H1611.84V87.6348H1608.71V107.375H1608.43L1594.67 87.6348H1591.59V113H1594.72Z" fill="white"/>
<path d="M1903.99 106.373C1904.33 110.75 1908.03 113.598 1913.41 113.598C1919.21 113.598 1922.89 110.627 1922.89 105.969C1922.89 102.242 1920.78 100.203 1915.52 98.8848L1912.87 98.1816C1909.37 97.2852 1907.98 96.1426 1907.98 94.1562C1907.98 91.5898 1910.21 89.9023 1913.59 89.9023C1916.75 89.9023 1918.9 91.4492 1919.34 94.0508H1922.52C1922.25 89.9551 1918.6 87.0371 1913.69 87.0371C1908.33 87.0371 1904.73 89.9551 1904.73 94.2617C1904.73 97.8652 1906.72 99.9395 1911.3 101.1L1914.56 101.943C1918.05 102.822 1919.64 104.193 1919.64 106.355C1919.64 108.869 1917.12 110.715 1913.71 110.715C1910.11 110.715 1907.58 109.027 1907.19 106.373H1903.99ZM1938.37 113.598C1943.77 113.598 1947.78 110.592 1948.62 105.934H1945.41C1944.6 108.869 1941.91 110.68 1938.37 110.68C1933.49 110.68 1930.43 106.689 1930.43 100.326C1930.43 93.9629 1933.49 89.9551 1938.36 89.9551C1941.85 89.9551 1944.56 92.0117 1945.41 95.2812H1948.62C1947.87 90.3945 1943.7 87.0371 1938.36 87.0371C1931.47 87.0371 1927.18 92.1348 1927.18 100.326C1927.18 108.5 1931.48 113.598 1938.37 113.598ZM1969.72 113H1973.04L1963.69 87.6348H1960.56L1951.21 113H1954.53L1957.08 105.74H1967.17L1969.72 113ZM1961.98 91.7305H1962.26L1966.24 103.051H1958.01L1961.98 91.7305ZM1992.88 110.152H1980.65V87.6348H1977.49V113H1992.88V110.152ZM2013.66 110.152H2001.11V101.434H2013.01V98.6211H2001.11V90.4824H2013.66V87.6348H1997.95V113H2013.66V110.152Z" fill="white"/>
<rect opacity="0.8" y="72" width="142.952" height="56.8148" rx="4" fill="#5B50D6"/>
<path d="M36.6517 100.87C36.6517 103.319 35.4329 104.866 33.4056 104.866C31.3782 104.866 30.2298 103.319 30.2298 100.87C30.2298 98.4204 31.3782 96.8618 33.4056 96.8618C35.4212 96.8618 36.6517 98.4204 36.6517 100.87ZM33.4056 112.295C37.1439 112.295 39.5111 110.432 39.5111 107.467V94.6001H36.7103V96.6509H36.5111C35.8079 95.2563 34.2845 94.3892 32.5384 94.3892C29.2689 94.3892 27.2415 96.9438 27.2415 100.87C27.2415 104.725 29.2572 107.233 32.4915 107.233C34.2728 107.233 35.6673 106.483 36.4056 105.112H36.6048V107.538C36.6048 109.143 35.4447 110.081 33.4525 110.081C31.8587 110.081 30.8275 109.518 30.64 108.639H27.722C27.9564 110.842 30.1126 112.295 33.4056 112.295ZM43.1204 107.42H46.015V94.6001H43.1204V107.42ZM44.5618 92.5142C45.6282 92.5142 46.3548 91.8345 46.3548 90.9087C46.3548 89.9829 45.6282 89.3032 44.5618 89.3032C43.5072 89.3032 42.7689 89.9829 42.7689 90.9087C42.7689 91.8345 43.5072 92.5142 44.5618 92.5142ZM50.5501 91.4595V94.6821H48.5228V97.0024H50.5501V103.999C50.5501 106.483 51.722 107.479 54.6634 107.479C55.2259 107.479 55.765 107.42 56.1868 107.338V105.065C55.8353 105.1 55.6126 105.124 55.2025 105.124C53.9837 105.124 53.4447 104.561 53.4447 103.295V97.0024H56.1868V94.6821H53.4447V91.4595H50.5501ZM72.4759 94.3892C70.7181 94.3892 69.2298 95.2681 68.4915 96.7212H68.2923V94.6001H65.4915V111.686H68.3978V105.475H68.597C69.2532 106.834 70.6712 107.631 72.5111 107.631C75.7454 107.631 77.7611 105.1 77.7611 101.01C77.7611 96.897 75.722 94.3892 72.4759 94.3892ZM71.5618 105.159C69.5814 105.159 68.3509 103.577 68.3392 101.01C68.3509 98.4556 69.5931 96.8618 71.5736 96.8618C73.5657 96.8618 74.7728 98.4204 74.7728 101.01C74.7728 103.6 73.5775 105.159 71.5618 105.159ZM91.8353 94.6001H88.929V102.065C88.929 103.963 87.8978 105.124 86.0111 105.124C84.2767 105.124 83.4681 104.163 83.4681 102.206V94.6001H80.5618V102.932C80.5618 105.932 82.2025 107.678 85.0033 107.678C86.9603 107.678 88.2142 106.846 88.8353 105.381H89.0345V107.42H91.8353V94.6001ZM95.1048 98.2681C95.1048 100.202 96.265 101.338 98.7259 101.901L100.999 102.428C102.218 102.698 102.769 103.155 102.769 103.881C102.769 104.831 101.749 105.475 100.285 105.475C98.8314 105.475 97.929 104.913 97.6478 103.963H94.7767C94.9993 106.295 97.015 107.678 100.214 107.678C103.413 107.678 105.675 106.038 105.675 103.577C105.675 101.69 104.538 100.635 102.089 100.084L99.8275 99.5688C98.5384 99.2759 97.929 98.8306 97.929 98.104C97.929 97.1782 98.9251 96.5454 100.249 96.5454C101.609 96.5454 102.464 97.1196 102.675 98.022H105.406C105.195 95.6899 103.285 94.3423 100.238 94.3423C97.2142 94.3423 95.1048 95.9478 95.1048 98.2681ZM108.734 107.42H111.64V99.979C111.64 98.1392 112.706 96.897 114.617 96.897C116.304 96.897 117.195 97.8931 117.195 99.8384V107.42H120.101V99.147C120.101 96.1001 118.437 94.3657 115.695 94.3657C113.785 94.3657 112.413 95.2329 111.804 96.6743H111.593V89.6431H108.734V107.42Z" fill="white"/>
</svg>
