<svg width="1056" height="684" viewBox="0 0 1056 684" fill="none" xmlns="http://www.w3.org/2000/svg">
<rect x="592" y="1" width="463" height="494" stroke="#B160F0" stroke-width="2" stroke-linecap="round" stroke-dasharray="12 12"/>
<rect x="226" y="1" width="342" height="494" stroke="#5B50D6" stroke-width="2" stroke-linecap="round" stroke-dasharray="12 12"/>
<path d="M540 206L555 214.66V197.34L540 206ZM553.5 207.5L640 207.5V204.5L553.5 204.5V207.5Z" fill="#B160F0"/>
<path d="M540 206L555 214.66V197.34L540 206ZM553.5 207.5L640 207.5V204.5L553.5 204.5V207.5Z" fill="#B160F0"/>
<path d="M540 206L555 214.66V197.34L540 206ZM553.5 207.5L640 207.5V204.5L553.5 204.5V207.5Z" fill="#B160F0"/>
<path d="M540 206L555 214.66V197.34L540 206ZM553.5 207.5L640 207.5V204.5L553.5 204.5V207.5Z" fill="#B160F0"/>
<path d="M540 308L555 316.66V299.34L540 308ZM553.5 309.5H640V306.5H553.5V309.5Z" fill="#B160F0"/>
<path d="M540 308L555 316.66V299.34L540 308ZM553.5 309.5H640V306.5H553.5V309.5Z" fill="#B160F0"/>
<path d="M540 308L555 316.66V299.34L540 308ZM553.5 309.5H640V306.5H553.5V309.5Z" fill="#B160F0"/>
<path d="M540 308L555 316.66V299.34L540 308ZM553.5 309.5H640V306.5H553.5V309.5Z" fill="#B160F0"/>
<rect x="655" y="156" width="254" height="91" rx="3" fill="#B160F0" fill-opacity="0.6" stroke="#B160F0" stroke-width="2"/>
<rect x="655" y="263" width="254" height="91" rx="3" fill="#B160F0" fill-opacity="0.6" stroke="#B160F0" stroke-width="2"/>
<rect x="655" y="370" width="254" height="70" rx="3" fill="#009EDD" fill-opacity="0.6" stroke="#009EDD" stroke-width="2"/>
<rect x="270.563" y="156" width="254" height="198" rx="3" fill="#5B50D6" fill-opacity="0.6" stroke="#5B50D6" stroke-width="2"/>
<rect x="271" y="370" width="254" height="70" rx="3" fill="#5B50D6" fill-opacity="0.6" stroke="#5B50D6" stroke-width="2"/>
<path d="M258.563 255L243.563 246.34V263.66L258.563 255ZM158.563 256.5H245.063V253.5L158.563 253.5V256.5Z" fill="#5B50D6"/>
<path d="M326 456L309.961 462.537L323.642 473.159L326 456ZM202.185 617.92L318.906 467.583L316.536 465.743L199.815 616.08L202.185 617.92Z" fill="#5B50D6"/>
<path d="M398 456L389.34 471L406.66 471L398 456ZM399.5 617L399.5 469.5L396.5 469.5L396.5 617L399.5 617Z" fill="#5B50D6"/>
<path d="M469 456L471.157 473.186L484.962 462.725L469 456ZM592.196 616.094L478.349 465.854L475.958 467.666L589.804 617.906L592.196 616.094Z" fill="#5B50D6"/>
<path d="M1017 255L1007 249.226V260.774L1017 255ZM917 256H920.125V254H917V256ZM926.375 256H932.625V254H926.375V256ZM938.875 256H945.125V254H938.875V256ZM951.375 256H957.625V254H951.375V256ZM963.875 256H970.125V254H963.875V256ZM976.375 256H982.625V254H976.375V256ZM988.875 256H995.125V254H988.875V256ZM1001.38 256H1007.62V254H1001.38V256ZM1017 255L997 243.453V266.547L1017 255ZM917 257H920.125V253H917V257ZM926.375 257H932.625V253H926.375V257ZM938.875 257H945.125V253H938.875V257ZM951.375 257H957.625V253H951.375V257ZM963.875 257H970.125V253H963.875V257ZM976.375 257H982.625V253H976.375V257ZM988.875 257H995.125V253H988.875V257ZM1001.38 257H1007.62V253H1001.38V257Z" fill="#B160F0"/>
<path d="M348.316 226.865L345.1 222.4C347.982 220.326 349.6 216.371 349.6 211.326C349.6 203.152 345.135 198.037 337.998 198.037C330.826 198.037 326.344 203.135 326.344 211.326C326.344 219.553 330.773 224.598 337.998 224.598C339.633 224.598 341.18 224.334 342.533 223.824L344.766 226.865H348.316ZM338.016 221.68C332.812 221.68 329.596 217.725 329.596 211.326C329.596 204.945 332.83 200.955 337.998 200.955C343.131 200.955 346.348 204.963 346.348 211.326C346.348 215.193 345.24 218.217 343.254 219.799L340.951 216.74H337.365L340.723 221.293C339.844 221.557 338.947 221.68 338.016 221.68ZM365.771 198.037C358.6 198.037 354.117 203.152 354.117 211.309C354.117 219.43 358.494 224.598 365.771 224.598C373.014 224.598 377.373 219.412 377.373 211.309C377.373 203.17 372.979 198.037 365.771 198.037ZM365.771 200.955C370.957 200.955 374.121 204.963 374.121 211.309C374.121 217.602 370.975 221.68 365.771 221.68C360.498 221.68 357.369 217.602 357.369 211.309C357.369 204.963 360.604 200.955 365.771 200.955ZM392.455 224L401.807 198.635H398.484L391.031 219.904H390.75L383.297 198.635H379.975L389.326 224H392.455ZM421.969 221.152H409.418V212.434H421.318V209.621H409.418V201.482H421.969V198.635H406.254V224H421.969V221.152ZM430.863 201.447H436.963C440.232 201.447 442.201 203.258 442.201 206.299C442.201 209.41 440.355 211.15 437.104 211.15H430.863V201.447ZM430.863 213.963H437.104L442.535 224H446.244L440.373 213.471C443.555 212.469 445.471 209.727 445.471 206.193C445.471 201.623 442.271 198.635 437.385 198.635H427.699V224H430.863V213.963ZM460.676 224V213.084L469.676 198.635H466.072L459.234 209.902H458.953L452.115 198.635H448.512L457.512 213.084V224H460.676ZM323.531 267.598C328.928 267.598 332.936 264.592 333.779 259.934H330.562C329.754 262.869 327.064 264.68 323.531 264.68C318.645 264.68 315.586 260.689 315.586 254.326C315.586 247.963 318.645 243.955 323.514 243.955C327.012 243.955 329.719 246.012 330.562 249.281H333.779C333.023 244.395 328.857 241.037 323.514 241.037C316.623 241.037 312.334 246.135 312.334 254.326C312.334 262.5 316.641 267.598 323.531 267.598ZM349.758 241.037C342.586 241.037 338.104 246.152 338.104 254.309C338.104 262.43 342.48 267.598 349.758 267.598C357 267.598 361.359 262.412 361.359 254.309C361.359 246.17 356.965 241.037 349.758 241.037ZM349.758 243.955C354.943 243.955 358.107 247.963 358.107 254.309C358.107 260.602 354.961 264.68 349.758 264.68C344.484 264.68 341.355 260.602 341.355 254.309C341.355 247.963 344.59 243.955 349.758 243.955ZM369.99 267V247.33H370.271L384.035 267H387.111V241.635H383.982V261.375H383.701L369.938 241.635H366.861V267H369.99ZM403.336 267V244.482H411.51V241.635H391.998V244.482H400.172V267H403.336ZM419.561 244.447H425.66C428.93 244.447 430.898 246.258 430.898 249.299C430.898 252.41 429.053 254.15 425.801 254.15H419.561V244.447ZM419.561 256.963H425.801L431.232 267H434.941L429.07 256.471C432.252 255.469 434.168 252.727 434.168 249.193C434.168 244.623 430.969 241.635 426.082 241.635H416.396V267H419.561V256.963ZM450.586 241.037C443.414 241.037 438.932 246.152 438.932 254.309C438.932 262.43 443.309 267.598 450.586 267.598C457.828 267.598 462.188 262.412 462.188 254.309C462.188 246.17 457.793 241.037 450.586 241.037ZM450.586 243.955C455.771 243.955 458.936 247.963 458.936 254.309C458.936 260.602 455.789 264.68 450.586 264.68C445.312 264.68 442.184 260.602 442.184 254.309C442.184 247.963 445.418 243.955 450.586 243.955ZM483.088 264.152H470.854V241.635H467.689V267H483.088V264.152ZM342.85 284.635V310H346.014V300.947H352.395C357.158 300.947 360.551 297.59 360.551 292.844C360.551 288.01 357.229 284.635 352.43 284.635H342.85ZM346.014 287.447H351.604C355.277 287.447 357.299 289.363 357.299 292.844C357.299 296.201 355.207 298.135 351.604 298.135H346.014V287.447ZM381.135 307.152H368.9V284.635H365.736V310H381.135V307.152ZM402.686 310H406.008L396.656 284.635H393.527L384.176 310H387.498L390.047 302.74H400.137L402.686 310ZM394.951 288.73H395.232L399.205 300.051H390.979L394.951 288.73ZM413.584 310V290.33H413.865L427.629 310H430.705V284.635H427.576V304.375H427.295L413.531 284.635H410.455V310H413.584ZM452.889 307.152H440.338V298.434H452.238V295.621H440.338V287.482H452.889V284.635H437.174V310H452.889V307.152Z" fill="white"/>
<path d="M387.834 417H391.156L381.805 391.635H378.676L369.324 417H372.646L375.195 409.74H385.285L387.834 417ZM380.1 395.73H380.381L384.354 407.051H376.127L380.1 395.73ZM395.604 391.635V417H398.768V407.947H405.148C409.912 407.947 413.305 404.59 413.305 399.844C413.305 395.01 409.982 391.635 405.184 391.635H395.604ZM398.768 394.447H404.357C408.031 394.447 410.053 396.363 410.053 399.844C410.053 403.201 407.961 405.135 404.357 405.135H398.768V394.447ZM421.654 417V391.635H418.49V417H421.654Z" fill="white"/>
<path d="M707.59 414V408.094L709.617 405.855L715.723 414H718.453L711.07 404.391L717.832 397.09H715.184L707.777 405.305H707.59V397.09H705.48V414H707.59ZM723.469 397.09H721.359V408.188C721.359 411.797 723.879 414.398 728.074 414.398C732.27 414.398 734.789 411.797 734.789 408.188V397.09H732.68V408.047C732.68 410.602 731.004 412.453 728.074 412.453C725.145 412.453 723.469 410.602 723.469 408.047V397.09ZM745.758 414C749.355 414 751.488 412.23 751.488 409.254C751.488 407.016 750.023 405.434 747.715 405.141V404.953C749.344 404.66 750.633 403.066 750.633 401.309C750.633 398.719 748.734 397.09 745.629 397.09H739.16V414H745.758ZM741.27 398.953H745.184C747.281 398.953 748.5 399.949 748.5 401.672C748.5 403.465 747.199 404.379 744.645 404.379H741.27V398.953ZM741.27 412.137V406.195H745.242C747.938 406.195 749.32 407.191 749.32 409.148C749.32 411.105 747.984 412.137 745.441 412.137H741.27ZM765.41 412.102H757.043V406.289H764.977V404.414H757.043V398.988H765.41V397.09H754.934V414H765.41V412.102ZM771.34 398.965H775.406C777.586 398.965 778.898 400.172 778.898 402.199C778.898 404.273 777.668 405.434 775.5 405.434H771.34V398.965ZM771.34 407.309H775.5L779.121 414H781.594L777.68 406.98C779.801 406.312 781.078 404.484 781.078 402.129C781.078 399.082 778.945 397.09 775.688 397.09H769.23V414H771.34V407.309ZM786.996 414V400.887H787.184L796.359 414H798.41V397.09H796.324V410.25H796.137L786.961 397.09H784.91V414H786.996ZM813.199 412.102H804.832V406.289H812.766V404.414H804.832V398.988H813.199V397.09H802.723V414H813.199V412.102ZM823.523 414V398.988H828.973V397.09H815.965V398.988H821.414V414H823.523ZM842.707 412.102H834.34V406.289H842.273V404.414H834.34V398.988H842.707V397.09H832.23V414H842.707V412.102ZM845.719 409.582C845.941 412.5 848.414 414.398 852 414.398C855.867 414.398 858.316 412.418 858.316 409.312C858.316 406.828 856.91 405.469 853.406 404.59L851.637 404.121C849.305 403.523 848.379 402.762 848.379 401.438C848.379 399.727 849.867 398.602 852.117 398.602C854.227 398.602 855.656 399.633 855.949 401.367H858.07C857.895 398.637 855.457 396.691 852.188 396.691C848.613 396.691 846.211 398.637 846.211 401.508C846.211 403.91 847.535 405.293 850.594 406.066L852.762 406.629C855.094 407.215 856.148 408.129 856.148 409.57C856.148 411.246 854.473 412.477 852.199 412.477C849.797 412.477 848.109 411.352 847.852 409.582H845.719Z" fill="white"/>
<path d="M732.316 194.865L729.1 190.4C731.982 188.326 733.6 184.371 733.6 179.326C733.6 171.152 729.135 166.037 721.998 166.037C714.826 166.037 710.344 171.135 710.344 179.326C710.344 187.553 714.773 192.598 721.998 192.598C723.633 192.598 725.18 192.334 726.533 191.824L728.766 194.865H732.316ZM722.016 189.68C716.812 189.68 713.596 185.725 713.596 179.326C713.596 172.945 716.83 168.955 721.998 168.955C727.131 168.955 730.348 172.963 730.348 179.326C730.348 183.193 729.24 186.217 727.254 187.799L724.951 184.74H721.365L724.723 189.293C723.844 189.557 722.947 189.68 722.016 189.68ZM749.771 166.037C742.6 166.037 738.117 171.152 738.117 179.309C738.117 187.43 742.494 192.598 749.771 192.598C757.014 192.598 761.373 187.412 761.373 179.309C761.373 171.17 756.979 166.037 749.771 166.037ZM749.771 168.955C754.957 168.955 758.121 172.963 758.121 179.309C758.121 185.602 754.975 189.68 749.771 189.68C744.498 189.68 741.369 185.602 741.369 179.309C741.369 172.963 744.604 168.955 749.771 168.955ZM776.455 192L785.807 166.635H782.484L775.031 187.904H774.75L767.297 166.635H763.975L773.326 192H776.455ZM805.969 189.152H793.418V180.434H805.318V177.621H793.418V169.482H805.969V166.635H790.254V192H805.969V189.152ZM814.863 169.447H820.963C824.232 169.447 826.201 171.258 826.201 174.299C826.201 177.41 824.355 179.15 821.104 179.15H814.863V169.447ZM814.863 181.963H821.104L826.535 192H830.244L824.373 181.471C827.555 180.469 829.471 177.727 829.471 174.193C829.471 169.623 826.271 166.635 821.385 166.635H811.699V192H814.863V181.963ZM844.676 192V181.084L853.676 166.635H850.072L843.234 177.902H842.953L836.115 166.635H832.512L841.512 181.084V192H844.676ZM734.021 232.152H721.471V223.434H733.371V220.621H721.471V212.482H734.021V209.635H718.307V235H734.021V232.152ZM742.881 235V215.33H743.162L756.926 235H760.002V209.635H756.873V229.375H756.592L742.828 209.635H739.752V235H742.881ZM787.758 225.191V222.098H777.475V224.875H784.611V225.49C784.611 229.779 781.535 232.68 777 232.68C771.902 232.68 768.738 228.707 768.738 222.309C768.738 215.998 771.955 211.955 776.982 211.955C780.744 211.955 783.293 213.766 784.383 217.193H787.6C786.686 212.166 782.607 209.037 776.982 209.037C770.039 209.037 765.486 214.293 765.486 222.309C765.486 230.43 769.969 235.598 776.982 235.598C783.469 235.598 787.758 231.449 787.758 225.191ZM796.529 235V209.635H793.365V235H796.529ZM806.127 235V215.33H806.408L820.172 235H823.248V209.635H820.119V229.375H819.838L806.074 209.635H802.998V235H806.127ZM845.432 232.152H832.881V223.434H844.781V220.621H832.881V212.482H845.432V209.635H829.717V235H845.432V232.152Z" fill="white"/>
<path d="M732.316 301.865L729.1 297.4C731.982 295.326 733.6 291.371 733.6 286.326C733.6 278.152 729.135 273.037 721.998 273.037C714.826 273.037 710.344 278.135 710.344 286.326C710.344 294.553 714.773 299.598 721.998 299.598C723.633 299.598 725.18 299.334 726.533 298.824L728.766 301.865H732.316ZM722.016 296.68C716.812 296.68 713.596 292.725 713.596 286.326C713.596 279.945 716.83 275.955 721.998 275.955C727.131 275.955 730.348 279.963 730.348 286.326C730.348 290.193 729.24 293.217 727.254 294.799L724.951 291.74H721.365L724.723 296.293C723.844 296.557 722.947 296.68 722.016 296.68ZM749.771 273.037C742.6 273.037 738.117 278.152 738.117 286.309C738.117 294.43 742.494 299.598 749.771 299.598C757.014 299.598 761.373 294.412 761.373 286.309C761.373 278.17 756.979 273.037 749.771 273.037ZM749.771 275.955C754.957 275.955 758.121 279.963 758.121 286.309C758.121 292.602 754.975 296.68 749.771 296.68C744.498 296.68 741.369 292.602 741.369 286.309C741.369 279.963 744.604 275.955 749.771 275.955ZM776.455 299L785.807 273.635H782.484L775.031 294.904H774.75L767.297 273.635H763.975L773.326 299H776.455ZM805.969 296.152H793.418V287.434H805.318V284.621H793.418V276.482H805.969V273.635H790.254V299H805.969V296.152ZM814.863 276.447H820.963C824.232 276.447 826.201 278.258 826.201 281.299C826.201 284.41 824.355 286.15 821.104 286.15H814.863V276.447ZM814.863 288.963H821.104L826.535 299H830.244L824.373 288.471C827.555 287.469 829.471 284.727 829.471 281.193C829.471 276.623 826.271 273.635 821.385 273.635H811.699V299H814.863V288.963ZM844.676 299V288.084L853.676 273.635H850.072L843.234 284.902H842.953L836.115 273.635H832.512L841.512 288.084V299H844.676ZM740.771 342H744.094L734.742 316.635H731.613L722.262 342H725.584L728.133 334.74H738.223L740.771 342ZM733.037 320.73H733.318L737.291 332.051H729.064L733.037 320.73ZM768.598 332.191V329.098H758.314V331.875H765.451V332.49C765.451 336.779 762.375 339.68 757.84 339.68C752.742 339.68 749.578 335.707 749.578 329.309C749.578 322.998 752.795 318.955 757.822 318.955C761.584 318.955 764.133 320.766 765.223 324.193H768.439C767.525 319.166 763.447 316.037 757.822 316.037C750.879 316.037 746.326 321.293 746.326 329.309C746.326 337.43 750.809 342.598 757.822 342.598C764.309 342.598 768.598 338.449 768.598 332.191ZM789.92 339.152H777.369V330.434H789.27V327.621H777.369V319.482H789.92V316.635H774.205V342H789.92V339.152ZM798.779 342V322.33H799.061L812.824 342H815.9V316.635H812.771V336.375H812.49L798.727 316.635H795.65V342H798.779ZM832.125 342V319.482H840.299V316.635H820.787V319.482H828.961V342H832.125Z" fill="white"/>
<rect opacity="0.8" y="227" width="142.952" height="56.8148" rx="4" fill="#5B50D6"/>
<path d="M36.6517 255.87C36.6517 258.319 35.4329 259.866 33.4056 259.866C31.3782 259.866 30.2298 258.319 30.2298 255.87C30.2298 253.42 31.3782 251.862 33.4056 251.862C35.4212 251.862 36.6517 253.42 36.6517 255.87ZM33.4056 267.295C37.1439 267.295 39.5111 265.432 39.5111 262.467V249.6H36.7103V251.651H36.5111C35.8079 250.256 34.2845 249.389 32.5384 249.389C29.2689 249.389 27.2415 251.944 27.2415 255.87C27.2415 259.725 29.2572 262.233 32.4915 262.233C34.2728 262.233 35.6673 261.483 36.4056 260.112H36.6048V262.538C36.6048 264.143 35.4447 265.081 33.4525 265.081C31.8587 265.081 30.8275 264.518 30.64 263.639H27.722C27.9564 265.842 30.1126 267.295 33.4056 267.295ZM43.1204 262.42H46.015V249.6H43.1204V262.42ZM44.5618 247.514C45.6282 247.514 46.3548 246.834 46.3548 245.909C46.3548 244.983 45.6282 244.303 44.5618 244.303C43.5072 244.303 42.7689 244.983 42.7689 245.909C42.7689 246.834 43.5072 247.514 44.5618 247.514ZM50.5501 246.459V249.682H48.5228V252.002H50.5501V258.999C50.5501 261.483 51.722 262.479 54.6634 262.479C55.2259 262.479 55.765 262.42 56.1868 262.338V260.065C55.8353 260.1 55.6126 260.124 55.2025 260.124C53.9837 260.124 53.4447 259.561 53.4447 258.295V252.002H56.1868V249.682H53.4447V246.459H50.5501ZM72.4759 249.389C70.7181 249.389 69.2298 250.268 68.4915 251.721H68.2923V249.6H65.4915V266.686H68.3978V260.475H68.597C69.2532 261.834 70.6712 262.631 72.5111 262.631C75.7454 262.631 77.7611 260.1 77.7611 256.01C77.7611 251.897 75.722 249.389 72.4759 249.389ZM71.5618 260.159C69.5814 260.159 68.3509 258.577 68.3392 256.01C68.3509 253.456 69.5931 251.862 71.5736 251.862C73.5657 251.862 74.7728 253.42 74.7728 256.01C74.7728 258.6 73.5775 260.159 71.5618 260.159ZM91.8353 249.6H88.929V257.065C88.929 258.963 87.8978 260.124 86.0111 260.124C84.2767 260.124 83.4681 259.163 83.4681 257.206V249.6H80.5618V257.932C80.5618 260.932 82.2025 262.678 85.0033 262.678C86.9603 262.678 88.2142 261.846 88.8353 260.381H89.0345V262.42H91.8353V249.6ZM95.1048 253.268C95.1048 255.202 96.265 256.338 98.7259 256.901L100.999 257.428C102.218 257.698 102.769 258.155 102.769 258.881C102.769 259.831 101.749 260.475 100.285 260.475C98.8314 260.475 97.929 259.913 97.6478 258.963H94.7767C94.9993 261.295 97.015 262.678 100.214 262.678C103.413 262.678 105.675 261.038 105.675 258.577C105.675 256.69 104.538 255.635 102.089 255.084L99.8275 254.569C98.5384 254.276 97.929 253.831 97.929 253.104C97.929 252.178 98.9251 251.545 100.249 251.545C101.609 251.545 102.464 252.12 102.675 253.022H105.406C105.195 250.69 103.285 249.342 100.238 249.342C97.2142 249.342 95.1048 250.948 95.1048 253.268ZM108.734 262.42H111.64V254.979C111.64 253.139 112.706 251.897 114.617 251.897C116.304 251.897 117.195 252.893 117.195 254.838V262.42H120.101V254.147C120.101 251.1 118.437 249.366 115.695 249.366C113.785 249.366 112.413 250.233 111.804 251.674H111.593V244.643H108.734V262.42Z" fill="white"/>
<rect opacity="0.8" x="521" y="627" width="142.952" height="56.8148" rx="4" fill="#5B50D6"/>
<path d="M580.234 663.422C584.137 663.422 586.996 661.09 587.395 657.633H584.418C584.008 659.531 582.379 660.727 580.234 660.727C577.352 660.727 575.559 658.359 575.559 654.539C575.559 650.73 577.352 648.363 580.223 648.363C582.355 648.363 583.984 649.676 584.406 651.703H587.383C587.031 648.176 584.066 645.668 580.223 645.668C575.43 645.668 572.465 649.055 572.465 654.551C572.465 660.023 575.441 663.422 580.234 663.422ZM601.539 660.352H593.781V646.09H590.758V663H601.539V660.352ZM607.82 663V646.09H604.797V663H607.82Z" fill="white"/>
<rect opacity="0.8" x="131" y="627" width="142.952" height="56.8148" rx="4" fill="#5B50D6"/>
<path d="M186.344 651.023H186.52L189.965 663H192.801L197.336 646.09H194.207L191.312 658.676H191.148L187.773 646.09H185.09L181.762 658.676H181.586L178.691 646.09H175.539L180.074 663H182.922L186.344 651.023ZM204.191 652.23C205.938 652.23 207.086 653.449 207.145 655.348H201.109C201.238 653.473 202.457 652.23 204.191 652.23ZM207.168 659.473C206.746 660.422 205.75 660.949 204.309 660.949C202.398 660.949 201.168 659.613 201.098 657.48V657.328H210.051V656.391C210.051 652.348 207.859 649.922 204.203 649.922C200.488 649.922 198.18 652.512 198.18 656.637C198.18 660.762 200.453 663.258 204.227 663.258C207.25 663.258 209.371 661.805 209.922 659.473H207.168ZM220.094 663.211C223.328 663.211 225.355 660.668 225.355 656.59C225.355 652.488 223.34 649.969 220.094 649.969C218.336 649.969 216.859 650.824 216.191 652.219H215.992V645.223H213.086V663H215.887V660.973H216.086C216.812 662.379 218.301 663.211 220.094 663.211ZM219.18 652.441C221.16 652.441 222.367 654.012 222.367 656.59C222.367 659.168 221.172 660.738 219.18 660.738C217.188 660.738 215.945 659.145 215.945 656.59C215.945 654.035 217.199 652.441 219.18 652.441Z" fill="white"/>
<rect opacity="0.8" x="326" y="627" width="142.952" height="56.8148" rx="4" fill="#5B50D6"/>
<path d="M347.234 664V649.703H352.449V647.09H339.008V649.703H344.211V664H347.234ZM358.836 653.23C360.582 653.23 361.73 654.449 361.789 656.348H355.754C355.883 654.473 357.102 653.23 358.836 653.23ZM361.812 660.473C361.391 661.422 360.395 661.949 358.953 661.949C357.043 661.949 355.812 660.613 355.742 658.48V658.328H364.695V657.391C364.695 653.348 362.504 650.922 358.848 650.922C355.133 650.922 352.824 653.512 352.824 657.637C352.824 661.762 355.098 664.258 358.871 664.258C361.895 664.258 364.016 662.805 364.566 660.473H361.812ZM367.613 664H370.52V656.594C370.52 654.801 371.832 653.629 373.719 653.629C374.211 653.629 374.984 653.711 375.207 653.793V651.098C374.938 651.016 374.422 650.969 374 650.969C372.348 650.969 370.965 651.906 370.613 653.172H370.414V651.18H367.613V664ZM377.762 664H380.668V656.594C380.668 654.801 381.98 653.629 383.867 653.629C384.359 653.629 385.133 653.711 385.355 653.793V651.098C385.086 651.016 384.57 650.969 384.148 650.969C382.496 650.969 381.113 651.906 380.762 653.172H380.562V651.18H377.762V664ZM391.965 661.926C390.676 661.926 389.75 661.281 389.75 660.203C389.75 659.16 390.512 658.574 392.141 658.469L395.035 658.281V659.301C395.035 660.789 393.723 661.926 391.965 661.926ZM391.109 664.211C392.785 664.211 394.191 663.484 394.906 662.242H395.105V664H397.906V655.246C397.906 652.527 396.055 650.922 392.762 650.922C389.715 650.922 387.594 652.363 387.359 654.625H390.102C390.371 653.758 391.285 653.289 392.621 653.289C394.191 653.289 395.035 653.992 395.035 655.246V656.324L391.73 656.523C388.613 656.711 386.867 658.047 386.867 660.367C386.867 662.711 388.637 664.211 391.109 664.211ZM402.348 664H405.242V653.582H407.996V651.262H405.207V650.23C405.207 649.047 405.793 648.531 407 648.531C407.434 648.531 407.867 648.578 408.113 648.625V646.457C407.609 646.375 407.223 646.328 406.648 646.328C403.824 646.328 402.348 647.406 402.348 650.008V651.262H400.25V653.582H402.348V664ZM415.871 661.82C413.844 661.82 412.684 660.273 412.684 657.59C412.684 654.918 413.844 653.359 415.871 653.359C417.887 653.359 419.047 654.918 419.047 657.59C419.047 660.273 417.898 661.82 415.871 661.82ZM415.871 664.258C419.703 664.258 422.035 661.75 422.035 657.59C422.035 653.441 419.691 650.922 415.871 650.922C412.062 650.922 409.707 653.453 409.707 657.59C409.707 661.75 412.027 664.258 415.871 664.258ZM424.965 664H427.871V656.594C427.871 654.801 429.184 653.629 431.07 653.629C431.562 653.629 432.336 653.711 432.559 653.793V651.098C432.289 651.016 431.773 650.969 431.352 650.969C429.699 650.969 428.316 651.906 427.965 653.172H427.766V651.18H424.965V664ZM435.113 664H438.02V656.207C438.02 654.637 439.086 653.453 440.527 653.453C441.957 653.453 442.848 654.309 442.848 655.715V664H445.672V656.02C445.672 654.555 446.668 653.453 448.18 653.453C449.738 653.453 450.523 654.273 450.523 655.926V664H453.418V655.188C453.418 652.527 451.871 650.922 449.305 650.922C447.523 650.922 446.047 651.848 445.414 653.254H445.215C444.676 651.812 443.445 650.922 441.676 650.922C439.977 650.922 438.664 651.789 438.113 653.254H437.914V651.18H435.113V664Z" fill="white"/>
<rect opacity="0.8" x="242" y="16" width="312" height="43" rx="4" fill="#5B50D6"/>
<path d="M307.145 46.7461L305.035 43.6289C306.816 42.1992 307.824 39.7031 307.824 36.5508C307.824 31.0781 304.73 27.668 299.844 27.668C294.934 27.668 291.828 31.0664 291.828 36.5508C291.828 42.0469 294.898 45.4219 299.844 45.4219C300.91 45.4219 301.93 45.2578 302.82 44.9531L304.109 46.7461H307.145ZM299.844 42.7383C296.832 42.7383 294.922 40.3594 294.922 36.5508C294.922 32.7422 296.832 30.3516 299.844 30.3516C302.82 30.3516 304.73 32.7539 304.73 36.5508C304.73 38.5195 304.191 40.0898 303.219 40.9922L302.152 39.6562H299.246L301.273 42.5391C300.816 42.668 300.336 42.7383 299.844 42.7383ZM316.52 42.8203C314.492 42.8203 313.332 41.2734 313.332 38.5898C313.332 35.918 314.492 34.3594 316.52 34.3594C318.535 34.3594 319.695 35.918 319.695 38.5898C319.695 41.2734 318.547 42.8203 316.52 42.8203ZM316.52 45.2578C320.352 45.2578 322.684 42.75 322.684 38.5898C322.684 34.4414 320.34 31.9219 316.52 31.9219C312.711 31.9219 310.355 34.4531 310.355 38.5898C310.355 42.75 312.676 45.2578 316.52 45.2578ZM323.984 32.1797L328.543 45H331.742L336.277 32.1797H333.207L330.266 42.0938H330.066L327.102 32.1797H323.984ZM343.602 34.2305C345.348 34.2305 346.496 35.4492 346.555 37.3477H340.52C340.648 35.4727 341.867 34.2305 343.602 34.2305ZM346.578 41.4727C346.156 42.4219 345.16 42.9492 343.719 42.9492C341.809 42.9492 340.578 41.6133 340.508 39.4805V39.3281H349.461V38.3906C349.461 34.3477 347.27 31.9219 343.613 31.9219C339.898 31.9219 337.59 34.5117 337.59 38.6367C337.59 42.7617 339.863 45.2578 343.637 45.2578C346.66 45.2578 348.781 43.8047 349.332 41.4727H346.578ZM352.379 45H355.285V37.5938C355.285 35.8008 356.598 34.6289 358.484 34.6289C358.977 34.6289 359.75 34.7109 359.973 34.793V32.0977C359.703 32.0156 359.188 31.9688 358.766 31.9688C357.113 31.9688 355.73 32.9062 355.379 34.1719H355.18V32.1797H352.379V45ZM363.887 49.6523C366.758 49.6523 368.129 48.5977 369.219 45.4102L373.848 32.1797H370.777L367.789 42.1875H367.59L364.59 32.1797H361.402L365.984 45.0586L365.832 45.6211C365.457 46.8047 364.766 47.2734 363.535 47.2734C363.336 47.2734 362.902 47.2617 362.738 47.2266V49.6055C362.926 49.6406 363.711 49.6523 363.887 49.6523ZM382.789 45H385.684V32.1797H382.789V45ZM384.23 30.0938C385.297 30.0938 386.023 29.4141 386.023 28.4883C386.023 27.5625 385.297 26.8828 384.23 26.8828C383.176 26.8828 382.438 27.5625 382.438 28.4883C382.438 29.4141 383.176 30.0938 384.23 30.0938ZM389.293 45H392.199V37.5352C392.199 35.6484 393.289 34.4531 395.023 34.4531C396.793 34.4531 397.613 35.4375 397.613 37.3945V45H400.52V36.7031C400.52 33.6445 398.961 31.9219 396.102 31.9219C394.191 31.9219 392.902 32.8008 392.293 34.2305H392.094V32.1797H389.293V45ZM404.902 45H407.797V34.582H410.551V32.2617H407.762V31.2305C407.762 30.0469 408.348 29.5312 409.555 29.5312C409.988 29.5312 410.422 29.5781 410.668 29.625V27.457C410.164 27.375 409.777 27.3281 409.203 27.3281C406.379 27.3281 404.902 28.4062 404.902 31.0078V32.2617H402.805V34.582H404.902V45ZM413.363 45H416.27V37.5938C416.27 35.8008 417.582 34.6289 419.469 34.6289C419.961 34.6289 420.734 34.7109 420.957 34.793V32.0977C420.688 32.0156 420.172 31.9688 419.75 31.9688C418.098 31.9688 416.715 32.9062 416.363 34.1719H416.164V32.1797H413.363V45ZM427.566 42.9258C426.277 42.9258 425.352 42.2812 425.352 41.2031C425.352 40.1602 426.113 39.5742 427.742 39.4688L430.637 39.2812V40.3008C430.637 41.7891 429.324 42.9258 427.566 42.9258ZM426.711 45.2109C428.387 45.2109 429.793 44.4844 430.508 43.2422H430.707V45H433.508V36.2461C433.508 33.5273 431.656 31.9219 428.363 31.9219C425.316 31.9219 423.195 33.3633 422.961 35.625H425.703C425.973 34.7578 426.887 34.2891 428.223 34.2891C429.793 34.2891 430.637 34.9922 430.637 36.2461V37.3242L427.332 37.5234C424.215 37.7109 422.469 39.0469 422.469 41.3672C422.469 43.7109 424.238 45.2109 426.711 45.2109ZM436.719 35.8477C436.719 37.7812 437.879 38.918 440.34 39.4805L442.613 40.0078C443.832 40.2773 444.383 40.7344 444.383 41.4609C444.383 42.4102 443.363 43.0547 441.898 43.0547C440.445 43.0547 439.543 42.4922 439.262 41.543H436.391C436.613 43.875 438.629 45.2578 441.828 45.2578C445.027 45.2578 447.289 43.6172 447.289 41.1562C447.289 39.2695 446.152 38.2148 443.703 37.6641L441.441 37.1484C440.152 36.8555 439.543 36.4102 439.543 35.6836C439.543 34.7578 440.539 34.125 441.863 34.125C443.223 34.125 444.078 34.6992 444.289 35.6016H447.02C446.809 33.2695 444.898 31.9219 441.852 31.9219C438.828 31.9219 436.719 33.5273 436.719 35.8477ZM451.062 29.0391V32.2617H449.035V34.582H451.062V41.5781C451.062 44.0625 452.234 45.0586 455.176 45.0586C455.738 45.0586 456.277 45 456.699 44.918V42.6445C456.348 42.6797 456.125 42.7031 455.715 42.7031C454.496 42.7031 453.957 42.1406 453.957 40.875V34.582H456.699V32.2617H453.957V29.0391H451.062ZM459.605 45H462.512V37.5938C462.512 35.8008 463.824 34.6289 465.711 34.6289C466.203 34.6289 466.977 34.7109 467.199 34.793V32.0977C466.93 32.0156 466.414 31.9688 465.992 31.9688C464.34 31.9688 462.957 32.9062 462.605 34.1719H462.406V32.1797H459.605V45ZM480.746 32.1797H477.84V39.6445C477.84 41.543 476.809 42.7031 474.922 42.7031C473.188 42.7031 472.379 41.7422 472.379 39.7852V32.1797H469.473V40.5117C469.473 43.5117 471.113 45.2578 473.914 45.2578C475.871 45.2578 477.125 44.4258 477.746 42.9609H477.945V45H480.746V32.1797ZM495.383 36.4922C495.078 33.7969 493.086 31.9219 489.793 31.9219C485.938 31.9219 483.676 34.3945 483.676 38.5547C483.676 42.7734 485.949 45.2578 489.805 45.2578C493.051 45.2578 495.066 43.4531 495.383 40.7695H492.617C492.312 42.1055 491.305 42.8203 489.793 42.8203C487.812 42.8203 486.617 41.25 486.617 38.5547C486.617 35.8945 487.801 34.3594 489.793 34.3594C491.387 34.3594 492.348 35.25 492.617 36.4922H495.383ZM499.25 29.0391V32.2617H497.223V34.582H499.25V41.5781C499.25 44.0625 500.422 45.0586 503.363 45.0586C503.926 45.0586 504.465 45 504.887 44.918V42.6445C504.535 42.6797 504.312 42.7031 503.902 42.7031C502.684 42.7031 502.145 42.1406 502.145 40.875V34.582H504.887V32.2617H502.145V29.0391H499.25ZM518.949 32.1797H516.043V39.6445C516.043 41.543 515.012 42.7031 513.125 42.7031C511.391 42.7031 510.582 41.7422 510.582 39.7852V32.1797H507.676V40.5117C507.676 43.5117 509.316 45.2578 512.117 45.2578C514.074 45.2578 515.328 44.4258 515.949 42.9609H516.148V45H518.949V32.1797ZM522.512 45H525.418V37.5938C525.418 35.8008 526.73 34.6289 528.617 34.6289C529.109 34.6289 529.883 34.7109 530.105 34.793V32.0977C529.836 32.0156 529.32 31.9688 528.898 31.9688C527.246 31.9688 525.863 32.9062 525.512 34.1719H525.312V32.1797H522.512V45ZM537.547 34.2305C539.293 34.2305 540.441 35.4492 540.5 37.3477H534.465C534.594 35.4727 535.812 34.2305 537.547 34.2305ZM540.523 41.4727C540.102 42.4219 539.105 42.9492 537.664 42.9492C535.754 42.9492 534.523 41.6133 534.453 39.4805V39.3281H543.406V38.3906C543.406 34.3477 541.215 31.9219 537.559 31.9219C533.844 31.9219 531.535 34.5117 531.535 38.6367C531.535 42.7617 533.809 45.2578 537.582 45.2578C540.605 45.2578 542.727 43.8047 543.277 41.4727H540.523Z" fill="white"/>
<path d="M276.798 38.4901L275.956 43.788L280.966 45.7098L280.965 40.8957L276.798 38.4901Z" fill="#A299FF"/>
<path d="M254.968 43.3023V30.6978L259.137 32.02V40.8949L265.883 44.7898L266.387 46.7113L265.883 49.6043L254.968 43.3023Z" fill="#7366FF"/>
<path d="M265.884 29.2109L259.137 33.105L254.968 30.6979L265.882 24.3964L276.798 30.6979L274.495 32.5328L272.631 33.1058L265.884 29.2109Z" fill="#7366FF"/>
<path d="M280.968 45.708L276.798 48.1169L272.631 45.708V40.8952L280.968 45.708Z" fill="#5219FF"/>
<path d="M265.884 32.1982L265.882 37.0115L270.053 39.4179L270.052 34.6039L265.884 32.1982Z" fill="#A299FF"/>
<path d="M265.882 37.0116L261.714 39.418L265.883 41.8256L270.053 39.418L265.882 37.0116Z" fill="#5219FF"/>
<path d="M265.884 32.1982L261.714 34.6059L261.714 39.4179L265.882 37.0115L265.884 32.1982Z" fill="#7366FF"/>
<path d="M276.798 30.6978V38.49L272.631 40.8952V33.1057L276.798 30.6978Z" fill="url(#paint0_linear)"/>
<path d="M276.799 38.4876L265.883 44.7898V49.6044L276.798 43.3016L276.799 38.4876Z" fill="url(#paint1_linear)"/>
<rect opacity="0.8" x="608" y="16" width="309" height="43" rx="4" fill="#B160F0"/>
<path d="M626.152 45V38.3906L632.082 28.0898H628.766L624.746 35.3203H624.547L620.516 28.0898H617.199L623.129 38.3906V45H626.152ZM638.047 42.8203C636.02 42.8203 634.859 41.2734 634.859 38.5898C634.859 35.918 636.02 34.3594 638.047 34.3594C640.062 34.3594 641.223 35.918 641.223 38.5898C641.223 41.2734 640.074 42.8203 638.047 42.8203ZM638.047 45.2578C641.879 45.2578 644.211 42.75 644.211 38.5898C644.211 34.4414 641.867 31.9219 638.047 31.9219C634.238 31.9219 631.883 34.4531 631.883 38.5898C631.883 42.75 634.203 45.2578 638.047 45.2578ZM658.297 32.1797H655.391V39.6445C655.391 41.543 654.359 42.7031 652.473 42.7031C650.738 42.7031 649.93 41.7422 649.93 39.7852V32.1797H647.023V40.5117C647.023 43.5117 648.664 45.2578 651.465 45.2578C653.422 45.2578 654.676 44.4258 655.297 42.9609H655.496V45H658.297V32.1797ZM661.859 45H664.766V37.5938C664.766 35.8008 666.078 34.6289 667.965 34.6289C668.457 34.6289 669.23 34.7109 669.453 34.793V32.0977C669.184 32.0156 668.668 31.9688 668.246 31.9688C666.594 31.9688 665.211 32.9062 664.859 34.1719H664.66V32.1797H661.859V45ZM689.316 36.4922C689.012 33.7969 687.02 31.9219 683.727 31.9219C679.871 31.9219 677.609 34.3945 677.609 38.5547C677.609 42.7734 679.883 45.2578 683.738 45.2578C686.984 45.2578 689 43.4531 689.316 40.7695H686.551C686.246 42.1055 685.238 42.8203 683.727 42.8203C681.746 42.8203 680.551 41.25 680.551 38.5547C680.551 35.8945 681.734 34.3594 683.727 34.3594C685.32 34.3594 686.281 35.25 686.551 36.4922H689.316ZM692.211 45H695.117V27.2227H692.211V45ZM704.328 42.8203C702.301 42.8203 701.141 41.2734 701.141 38.5898C701.141 35.918 702.301 34.3594 704.328 34.3594C706.344 34.3594 707.504 35.918 707.504 38.5898C707.504 41.2734 706.355 42.8203 704.328 42.8203ZM704.328 45.2578C708.16 45.2578 710.492 42.75 710.492 38.5898C710.492 34.4414 708.148 31.9219 704.328 31.9219C700.52 31.9219 698.164 34.4531 698.164 38.5898C698.164 42.75 700.484 45.2578 704.328 45.2578ZM724.578 32.1797H721.672V39.6445C721.672 41.543 720.641 42.7031 718.754 42.7031C717.02 42.7031 716.211 41.7422 716.211 39.7852V32.1797H713.305V40.5117C713.305 43.5117 714.945 45.2578 717.746 45.2578C719.703 45.2578 720.957 44.4258 721.578 42.9609H721.777V45H724.578V32.1797ZM732.781 45.2109C734.562 45.2109 736.039 44.3789 736.766 42.9727H736.965V45H739.777V27.2227H736.871V34.2188H736.672C735.992 32.8125 734.539 31.9688 732.781 31.9688C729.547 31.9688 727.508 34.5234 727.508 38.5781C727.508 42.6562 729.535 45.2109 732.781 45.2109ZM733.684 34.4414C735.676 34.4414 736.906 36.0352 736.906 38.5898C736.906 41.168 735.688 42.7383 733.684 42.7383C731.691 42.7383 730.484 41.1797 730.484 38.5898C730.484 36.0117 731.703 34.4414 733.684 34.4414ZM749.879 45H752.773V32.1797H749.879V45ZM751.32 30.0938C752.387 30.0938 753.113 29.4141 753.113 28.4883C753.113 27.5625 752.387 26.8828 751.32 26.8828C750.266 26.8828 749.527 27.5625 749.527 28.4883C749.527 29.4141 750.266 30.0938 751.32 30.0938ZM756.383 45H759.289V37.5352C759.289 35.6484 760.379 34.4531 762.113 34.4531C763.883 34.4531 764.703 35.4375 764.703 37.3945V45H767.609V36.7031C767.609 33.6445 766.051 31.9219 763.191 31.9219C761.281 31.9219 759.992 32.8008 759.383 34.2305H759.184V32.1797H756.383V45ZM771.992 45H774.887V34.582H777.641V32.2617H774.852V31.2305C774.852 30.0469 775.438 29.5312 776.645 29.5312C777.078 29.5312 777.512 29.5781 777.758 29.625V27.457C777.254 27.375 776.867 27.3281 776.293 27.3281C773.469 27.3281 771.992 28.4062 771.992 31.0078V32.2617H769.895V34.582H771.992V45ZM780.453 45H783.359V37.5938C783.359 35.8008 784.672 34.6289 786.559 34.6289C787.051 34.6289 787.824 34.7109 788.047 34.793V32.0977C787.777 32.0156 787.262 31.9688 786.84 31.9688C785.188 31.9688 783.805 32.9062 783.453 34.1719H783.254V32.1797H780.453V45ZM794.656 42.9258C793.367 42.9258 792.441 42.2812 792.441 41.2031C792.441 40.1602 793.203 39.5742 794.832 39.4688L797.727 39.2812V40.3008C797.727 41.7891 796.414 42.9258 794.656 42.9258ZM793.801 45.2109C795.477 45.2109 796.883 44.4844 797.598 43.2422H797.797V45H800.598V36.2461C800.598 33.5273 798.746 31.9219 795.453 31.9219C792.406 31.9219 790.285 33.3633 790.051 35.625H792.793C793.062 34.7578 793.977 34.2891 795.312 34.2891C796.883 34.2891 797.727 34.9922 797.727 36.2461V37.3242L794.422 37.5234C791.305 37.7109 789.559 39.0469 789.559 41.3672C789.559 43.7109 791.328 45.2109 793.801 45.2109ZM803.809 35.8477C803.809 37.7812 804.969 38.918 807.43 39.4805L809.703 40.0078C810.922 40.2773 811.473 40.7344 811.473 41.4609C811.473 42.4102 810.453 43.0547 808.988 43.0547C807.535 43.0547 806.633 42.4922 806.352 41.543H803.48C803.703 43.875 805.719 45.2578 808.918 45.2578C812.117 45.2578 814.379 43.6172 814.379 41.1562C814.379 39.2695 813.242 38.2148 810.793 37.6641L808.531 37.1484C807.242 36.8555 806.633 36.4102 806.633 35.6836C806.633 34.7578 807.629 34.125 808.953 34.125C810.312 34.125 811.168 34.6992 811.379 35.6016H814.109C813.898 33.2695 811.988 31.9219 808.941 31.9219C805.918 31.9219 803.809 33.5273 803.809 35.8477ZM818.152 29.0391V32.2617H816.125V34.582H818.152V41.5781C818.152 44.0625 819.324 45.0586 822.266 45.0586C822.828 45.0586 823.367 45 823.789 44.918V42.6445C823.438 42.6797 823.215 42.7031 822.805 42.7031C821.586 42.7031 821.047 42.1406 821.047 40.875V34.582H823.789V32.2617H821.047V29.0391H818.152ZM826.695 45H829.602V37.5938C829.602 35.8008 830.914 34.6289 832.801 34.6289C833.293 34.6289 834.066 34.7109 834.289 34.793V32.0977C834.02 32.0156 833.504 31.9688 833.082 31.9688C831.43 31.9688 830.047 32.9062 829.695 34.1719H829.496V32.1797H826.695V45ZM847.836 32.1797H844.93V39.6445C844.93 41.543 843.898 42.7031 842.012 42.7031C840.277 42.7031 839.469 41.7422 839.469 39.7852V32.1797H836.562V40.5117C836.562 43.5117 838.203 45.2578 841.004 45.2578C842.961 45.2578 844.215 44.4258 844.836 42.9609H845.035V45H847.836V32.1797ZM862.473 36.4922C862.168 33.7969 860.176 31.9219 856.883 31.9219C853.027 31.9219 850.766 34.3945 850.766 38.5547C850.766 42.7734 853.039 45.2578 856.895 45.2578C860.141 45.2578 862.156 43.4531 862.473 40.7695H859.707C859.402 42.1055 858.395 42.8203 856.883 42.8203C854.902 42.8203 853.707 41.25 853.707 38.5547C853.707 35.8945 854.891 34.3594 856.883 34.3594C858.477 34.3594 859.438 35.25 859.707 36.4922H862.473ZM866.34 29.0391V32.2617H864.312V34.582H866.34V41.5781C866.34 44.0625 867.512 45.0586 870.453 45.0586C871.016 45.0586 871.555 45 871.977 44.918V42.6445C871.625 42.6797 871.402 42.7031 870.992 42.7031C869.773 42.7031 869.234 42.1406 869.234 40.875V34.582H871.977V32.2617H869.234V29.0391H866.34ZM886.039 32.1797H883.133V39.6445C883.133 41.543 882.102 42.7031 880.215 42.7031C878.48 42.7031 877.672 41.7422 877.672 39.7852V32.1797H874.766V40.5117C874.766 43.5117 876.406 45.2578 879.207 45.2578C881.164 45.2578 882.418 44.4258 883.039 42.9609H883.238V45H886.039V32.1797ZM889.602 45H892.508V37.5938C892.508 35.8008 893.82 34.6289 895.707 34.6289C896.199 34.6289 896.973 34.7109 897.195 34.793V32.0977C896.926 32.0156 896.41 31.9688 895.988 31.9688C894.336 31.9688 892.953 32.9062 892.602 34.1719H892.402V32.1797H889.602V45ZM904.637 34.2305C906.383 34.2305 907.531 35.4492 907.59 37.3477H901.555C901.684 35.4727 902.902 34.2305 904.637 34.2305ZM907.613 41.4727C907.191 42.4219 906.195 42.9492 904.754 42.9492C902.844 42.9492 901.613 41.6133 901.543 39.4805V39.3281H910.496V38.3906C910.496 34.3477 908.305 31.9219 904.648 31.9219C900.934 31.9219 898.625 34.5117 898.625 38.6367C898.625 42.7617 900.898 45.2578 904.672 45.2578C907.695 45.2578 909.816 43.8047 910.367 41.4727H907.613Z" fill="white"/>
<defs>
<linearGradient id="paint0_linear" x1="274.714" y1="30.6978" x2="274.714" y2="40.8953" gradientUnits="userSpaceOnUse">
<stop offset="0.25" stop-color="#7366FF"/>
<stop offset="1" stop-color="#5219FF"/>
</linearGradient>
<linearGradient id="paint1_linear" x1="265.883" y1="44.0461" x2="276.799" y2="44.0461" gradientUnits="userSpaceOnUse">
<stop stop-color="#7366FF"/>
<stop offset="1" stop-color="#A299FF"/>
</linearGradient>
</defs>
</svg>
