<svg width="640" height="568" viewBox="0 0 640 568" fill="none" xmlns="http://www.w3.org/2000/svg">
    <rect opacity="0.05" width="365.864" height="368.956" rx="1.44" transform="matrix(0.866044 -0.499967 0.866044 0.499967 0.870117 382.92)" fill="#8686B3"/>
    <rect opacity="0.4" width="143.282" height="139.874" rx="1.44" transform="matrix(0.866044 -0.499967 0.866044 0.499967 198 299.772)" fill="#357AFF"/>
    <rect opacity="0.4" width="143.282" height="139.874" rx="1.44" transform="matrix(0.866044 -0.499967 0.866044 0.499967 56 384.019)" fill="#357AFF"/>
    <rect opacity="0.4" width="143.282" height="139.874" rx="1.44" transform="matrix(0.866044 -0.499967 0.866044 0.499967 195 466.019)" fill="#594E9B"/>
    <rect opacity="0.4" width="143.282" height="139.874" rx="1.44" transform="matrix(0.866044 -0.499967 0.866044 0.499967 336 383.019)" fill="#266371"/>
    <path d="M456.662 350.757C456.782 350.676 456.922 350.63 457.067 350.625C457.212 350.62 457.355 350.657 457.48 350.73C457.834 350.979 458.107 351.328 458.263 351.732C458.588 352.511 458.787 353.336 458.852 354.178C458.986 355.514 458.883 356.864 458.546 358.165C461.491 358.445 464.324 359.441 466.798 361.065C467.194 359.95 467.773 358.909 468.511 357.984C469.142 357.131 469.932 356.406 470.836 355.85C471.031 355.717 471.251 355.625 471.483 355.581C471.715 355.538 471.953 355.543 472.183 355.597C472.363 355.698 472.51 355.851 472.603 356.036C472.696 356.221 472.732 356.43 472.707 356.635C472.653 357.459 472.426 358.262 472.04 358.992C471.327 360.466 470.298 361.766 469.025 362.798C470.312 363.968 471.426 365.316 472.333 366.8L469.852 368.308C468.51 366.098 466.628 364.266 464.384 362.982C462.14 361.699 459.606 361.007 457.021 360.97C454.436 360.934 451.884 361.555 449.604 362.775C447.325 363.995 445.393 365.774 443.989 367.945L441.552 366.37C442.477 364.949 443.594 363.663 444.872 362.548C443.807 361.602 442.926 360.467 442.277 359.2C441.847 358.429 441.583 357.577 441.503 356.699C441.475 356.5 441.499 356.298 441.572 356.111C441.646 355.925 441.767 355.761 441.923 355.635C442.111 355.554 442.316 355.519 442.52 355.531C442.725 355.543 442.923 355.602 443.101 355.704C443.878 356.1 444.569 356.645 445.137 357.308C446.061 358.317 446.798 359.483 447.312 360.751C449.829 359.207 452.685 358.299 455.633 358.105C455.311 356.826 455.212 355.501 455.341 354.188C455.405 353.361 455.597 352.549 455.908 351.78C456.06 351.376 456.321 351.022 456.662 350.757Z" fill="#277A9F"/>
    <path d="M432.62 369.838H436.115V374.757H440.057V369.839H443.553V383.049H440.057V377.807H436.115V383.051H432.62V369.838Z" fill="#277A9F"/>
    <path d="M446.401 369.838H454.936V372.763H449.898V374.836H454.206V377.762H449.898V380.118H455.139V383.043H446.401V369.838Z" fill="#277A9F"/>
    <path d="M457.754 369.838H461.248V380.12H466.244V383.045H457.754V369.838Z" fill="#277A9F"/>
    <path d="M468.537 369.838H472.276L474.022 374.577C474.406 375.563 474.654 376.591 474.975 377.597C475.044 377.512 475.092 377.413 475.116 377.307C475.319 376.598 475.53 375.889 475.753 375.184C476.38 373.402 477.009 371.62 477.639 369.839H481.38V383.049H478.205C478.15 381.02 478.199 378.99 478.35 376.966C478.43 376.105 478.571 375.25 478.644 374.387C478.549 374.509 478.48 374.649 478.442 374.798C477.623 377.209 476.755 379.602 475.84 381.978C475.22 381.965 474.6 381.978 473.98 381.978L472.38 377.675C472.068 376.769 471.767 375.844 471.462 374.929C471.423 374.737 471.342 374.557 471.225 374.4C471.46 376.059 471.607 377.729 471.664 379.404V383.054H468.537V369.838Z" fill="#277A9F"/>
    <path d="M441.897 386.512L444.278 384.854C445.686 386.876 447.561 388.527 449.745 389.667C451.929 390.806 454.357 391.4 456.82 391.398C459.284 391.396 461.71 390.798 463.892 389.654C466.074 388.511 467.947 386.857 469.351 384.832L471.736 386.485C471.005 387.535 470.167 388.507 469.236 389.385C470.347 390.344 471.262 391.508 471.93 392.815C472.359 393.584 472.622 394.434 472.704 395.31C472.734 395.518 472.706 395.729 472.623 395.921C472.54 396.113 472.405 396.279 472.233 396.398C472.007 396.467 471.769 396.484 471.536 396.449C471.303 396.414 471.081 396.327 470.886 396.195C470.007 395.671 469.237 394.984 468.617 394.17C467.899 393.286 467.319 392.299 466.897 391.241C464.427 392.892 461.588 393.908 458.632 394.199C458.831 395.091 458.919 396.004 458.893 396.918C458.896 397.999 458.707 399.072 458.334 400.086C458.18 400.539 457.9 400.939 457.526 401.237C457.389 401.33 457.227 401.377 457.061 401.371C456.896 401.366 456.737 401.308 456.607 401.206C456.205 400.85 455.911 400.388 455.761 399.872C455.35 398.578 455.195 397.216 455.306 395.863C455.337 395.319 455.413 394.779 455.53 394.246C452.568 394.04 449.702 393.11 447.182 391.539C446.596 392.867 445.767 394.074 444.739 395.098C444.203 395.666 443.549 396.109 442.823 396.396C442.638 396.481 442.43 396.506 442.23 396.465C442.03 396.425 441.848 396.322 441.71 396.171C441.464 395.686 441.42 395.123 441.587 394.605C441.94 393.295 442.559 392.071 443.407 391.011C443.783 390.518 444.2 390.058 444.654 389.635C443.622 388.699 442.698 387.652 441.897 386.512Z" fill="#277A9F"/>
    <path d="M309.343 439.002L326.906 449.042V468.761L309.343 458.711V439.002Z" fill="#813CF3"/>
    <path d="M327.843 468.658L345.253 458.65V439.065L327.843 449.001V468.658Z" fill="#813CF3"/>
    <path d="M290.746 448.084L308.312 458.123V438.416L290.746 428.375V448.084Z" fill="#813CF3"/>
    <path d="M309.343 479.584L326.906 489.625V469.843L309.343 459.805V479.584Z" fill="#813CF3"/>
    <path d="M166.636 403.135C165.358 403.135 164.152 402.572 163.336 401.553L150.917 386.26C150.101 385.241 149.781 383.94 150.101 382.674L154.536 363.586C154.82 362.32 155.671 361.3 156.843 360.738L174.797 352.23C175.365 351.949 176.004 351.809 176.643 351.809C177.281 351.809 177.92 351.949 178.488 352.231L196.443 360.703C197.613 361.265 198.465 362.285 198.749 363.55L203.184 382.639C203.468 383.905 203.184 385.206 202.368 386.225L189.949 401.518C189.133 402.502 187.926 403.099 186.649 403.099L166.636 403.135H166.636Z" fill="#326DE6"/>
    <path d="M194.596 381.338C194.561 381.338 194.561 381.338 194.596 381.338H194.561C194.525 381.338 194.49 381.338 194.49 381.303C194.419 381.303 194.348 381.268 194.277 381.268C194.028 381.233 193.816 381.198 193.603 381.198C193.496 381.198 193.39 381.198 193.248 381.163H193.212C192.467 381.092 191.864 381.022 191.296 380.846C191.048 380.741 190.977 380.6 190.906 380.46C190.906 380.424 190.87 380.424 190.87 380.389L190.409 380.249C190.627 378.595 190.543 376.916 190.161 375.292C189.773 373.654 189.101 372.096 188.174 370.687L188.528 370.37V370.3C188.528 370.124 188.564 369.948 188.706 369.773C189.132 369.386 189.664 369.07 190.303 368.683C190.409 368.613 190.515 368.577 190.622 368.507C190.835 368.402 191.012 368.296 191.225 368.156C191.261 368.12 191.332 368.085 191.403 368.015C191.438 367.98 191.474 367.98 191.474 367.945C191.97 367.523 192.077 366.82 191.722 366.362C191.544 366.116 191.225 365.976 190.906 365.976C190.622 365.976 190.374 366.081 190.125 366.257L190.054 366.327C189.983 366.362 189.948 366.433 189.877 366.468C189.699 366.644 189.557 366.784 189.416 366.96C189.345 367.03 189.274 367.136 189.167 367.206C188.67 367.734 188.209 368.156 187.748 368.472C187.641 368.542 187.535 368.577 187.428 368.577C187.358 368.577 187.286 368.577 187.216 368.542H187.145L186.719 368.823C186.257 368.331 185.761 367.909 185.264 367.488C183.125 365.831 180.551 364.818 177.848 364.57L177.812 364.113L177.741 364.042C177.635 363.937 177.493 363.831 177.457 363.585C177.422 363.023 177.493 362.39 177.564 361.687V361.652C177.564 361.546 177.599 361.406 177.635 361.3C177.67 361.089 177.706 360.878 177.741 360.632V360.316C177.741 359.683 177.244 359.156 176.641 359.156C176.357 359.156 176.074 359.296 175.861 359.507C175.648 359.718 175.541 359.999 175.541 360.316V360.597C175.541 360.843 175.577 361.054 175.648 361.265C175.683 361.371 175.683 361.476 175.719 361.617V361.652C175.79 362.355 175.896 362.988 175.825 363.55C175.79 363.796 175.648 363.902 175.541 364.007L175.471 364.078L175.435 364.534C174.796 364.605 174.157 364.675 173.519 364.816C170.786 365.413 168.374 366.785 166.493 368.753L166.138 368.507H166.067C165.996 368.507 165.925 368.542 165.854 368.542C165.748 368.542 165.641 368.507 165.535 368.437C165.074 368.12 164.612 367.663 164.116 367.136C164.045 367.066 163.974 366.96 163.867 366.89C163.725 366.714 163.583 366.573 163.406 366.398C163.37 366.362 163.299 366.328 163.228 366.257C163.193 366.222 163.158 366.222 163.158 366.187C162.938 366.007 162.662 365.908 162.377 365.905C162.057 365.905 161.738 366.046 161.561 366.292C161.206 366.749 161.312 367.452 161.809 367.874C161.844 367.874 161.844 367.909 161.88 367.909C161.951 367.945 161.986 368.015 162.057 368.05C162.27 368.19 162.448 368.296 162.661 368.402C162.767 368.437 162.874 368.507 162.98 368.577C163.619 368.964 164.151 369.28 164.577 369.667C164.754 369.843 164.754 370.019 164.754 370.194V370.265L165.109 370.581C165.038 370.687 164.967 370.757 164.932 370.862C163.157 373.64 162.483 376.909 162.944 380.143L162.483 380.284C162.483 380.319 162.448 380.319 162.448 380.354C162.377 380.495 162.27 380.635 162.057 380.741C161.525 380.917 160.886 380.987 160.141 381.057H160.106C159.999 381.057 159.857 381.057 159.751 381.092C159.538 381.092 159.325 381.128 159.077 381.163C159.006 381.163 158.935 381.198 158.864 381.198C158.828 381.198 158.793 381.198 158.757 381.233C158.119 381.374 157.728 381.971 157.835 382.534C157.941 383.026 158.403 383.342 158.97 383.342C159.077 383.342 159.148 383.342 159.254 383.307C159.29 383.307 159.325 383.307 159.325 383.272C159.396 383.272 159.467 383.237 159.538 383.237C159.786 383.167 159.964 383.096 160.177 382.991C160.283 382.956 160.39 382.885 160.496 382.85H160.532C161.206 382.604 161.809 382.393 162.377 382.323H162.448C162.661 382.323 162.803 382.428 162.909 382.499C162.944 382.499 162.944 382.534 162.98 382.534L163.477 382.464C164.328 385.065 165.961 387.385 168.125 389.073C168.622 389.459 169.119 389.776 169.651 390.092L169.438 390.549C169.438 390.584 169.474 390.584 169.474 390.619C169.544 390.76 169.615 390.936 169.544 391.182C169.332 391.709 169.012 392.236 168.622 392.834V392.869C168.551 392.975 168.48 393.045 168.409 393.15C168.267 393.326 168.161 393.502 168.019 393.713C167.983 393.748 167.948 393.818 167.912 393.889C167.912 393.924 167.877 393.959 167.877 393.959C167.593 394.557 167.806 395.225 168.338 395.471C168.48 395.541 168.622 395.576 168.764 395.576C169.19 395.576 169.616 395.295 169.828 394.908C169.828 394.873 169.864 394.838 169.864 394.838C169.899 394.768 169.935 394.697 169.97 394.662C170.077 394.416 170.112 394.24 170.183 394.029L170.29 393.713C170.538 393.01 170.716 392.447 171.035 391.955C171.177 391.744 171.354 391.709 171.496 391.639C171.532 391.639 171.532 391.639 171.567 391.604L171.816 391.147C173.377 391.744 175.08 392.061 176.783 392.061C177.812 392.061 178.877 391.955 179.871 391.709C180.496 391.571 181.112 391.395 181.716 391.182L181.928 391.569C181.964 391.569 181.964 391.569 181.999 391.604C182.177 391.639 182.319 391.709 182.461 391.92C182.744 392.412 182.957 393.01 183.206 393.678V393.713L183.312 394.029C183.383 394.24 183.419 394.451 183.525 394.662C183.561 394.732 183.596 394.768 183.632 394.838C183.632 394.873 183.667 394.908 183.667 394.908C183.88 395.33 184.306 395.576 184.732 395.576C184.874 395.576 185.016 395.541 185.157 395.471C185.406 395.33 185.619 395.119 185.69 394.838C185.761 394.557 185.761 394.24 185.619 393.959C185.619 393.924 185.583 393.924 185.583 393.889C185.548 393.819 185.512 393.748 185.477 393.713C185.37 393.502 185.228 393.326 185.086 393.15C185.016 393.045 184.945 392.975 184.874 392.869V392.834C184.483 392.236 184.128 391.709 183.951 391.182C183.88 390.936 183.951 390.795 183.986 390.619C183.986 390.584 184.022 390.584 184.022 390.549L183.844 390.127C185.725 389.038 187.322 387.491 188.528 385.592C189.167 384.608 189.664 383.518 190.019 382.428L190.444 382.499C190.48 382.499 190.48 382.463 190.515 382.463C190.657 382.393 190.764 382.288 190.977 382.288H191.048C191.616 382.358 192.219 382.569 192.893 382.815H192.928C193.035 382.85 193.141 382.92 193.248 382.956C193.461 383.061 193.638 383.131 193.886 383.202C193.957 383.202 194.028 383.237 194.099 383.237C194.135 383.237 194.17 383.237 194.206 383.272C194.312 383.307 194.383 383.307 194.49 383.307C195.022 383.307 195.483 382.956 195.625 382.499C195.625 382.077 195.235 381.514 194.596 381.339V381.338ZM178.167 379.616L176.606 380.354L175.044 379.616L174.654 377.964L175.719 376.628H177.457L178.522 377.964L178.167 379.616H178.167ZM187.428 375.96C187.704 377.122 187.788 378.321 187.677 379.51L182.248 377.964C181.751 377.823 181.467 377.331 181.574 376.839C181.609 376.698 181.68 376.557 181.786 376.452L186.08 372.62C186.683 373.605 187.144 374.729 187.428 375.96V375.96ZM184.377 370.511L179.728 373.78C179.338 374.026 178.806 373.956 178.486 373.569C178.38 373.464 178.345 373.323 178.309 373.183L177.99 367.452C180.406 367.728 182.658 368.806 184.377 370.511ZM174.086 367.628C174.477 367.558 174.832 367.487 175.222 367.417L174.903 373.042C174.867 373.534 174.477 373.956 173.944 373.956C173.803 373.956 173.625 373.921 173.519 373.85L168.799 370.511C170.254 369.07 172.064 368.085 174.086 367.628V367.628ZM167.096 372.62L171.319 376.346C171.709 376.663 171.744 377.26 171.425 377.647C171.319 377.787 171.177 377.893 170.999 377.928L165.499 379.51C165.286 377.12 165.819 374.694 167.096 372.62ZM166.138 382.147L171.78 381.198C172.241 381.162 172.667 381.479 172.774 381.936C172.809 382.147 172.809 382.323 172.738 382.499L170.574 387.666C168.586 386.401 166.99 384.467 166.138 382.147H166.138ZM179.09 389.143C178.274 389.318 177.457 389.424 176.606 389.424C175.364 389.424 174.157 389.213 173.022 388.861L175.825 383.834C176.109 383.518 176.57 383.377 176.961 383.588C177.126 383.689 177.271 383.82 177.386 383.975L180.119 388.861C179.799 388.967 179.444 389.037 179.09 389.143H179.09ZM186.009 384.256C185.122 385.662 183.951 386.787 182.603 387.666L180.367 382.358C180.261 381.936 180.438 381.479 180.864 381.268C181.006 381.198 181.183 381.162 181.361 381.162L187.038 382.112C186.825 382.885 186.47 383.588 186.009 384.256Z" fill="white"/>
    <line opacity="0.2" x1="181.5" y1="211" x2="181.5" y2="382" stroke="#8686B3" stroke-dasharray="5 5"/>
    <line opacity="0.2" x1="462.5" y1="224" x2="462.5" y2="377" stroke="#8686B3" stroke-dasharray="5 5"/>
    <line opacity="0.2" x1="320.5" y1="315" x2="320.5" y2="468" stroke="#8686B3" stroke-dasharray="5 5"/>
    <rect opacity="0.05" width="365.864" height="368.956" rx="1.44" transform="matrix(0.866044 -0.499967 0.866044 0.499967 2.87012 182.92)" fill="#8686B3"/>
    <rect opacity="0.9" width="307.8" height="303.328" rx="1.44" transform="matrix(0.866044 -0.499967 0.866044 0.499967 58 182.026)" fill="#5B50D6"/>
    <path d="M369.435 159.008L365.482 183.821L388.994 192.821L388.991 170.275L369.435 159.008Z" fill="#A299FF"/>
    <path d="M267 181.546V122.513L286.565 128.705V170.271L318.221 188.512L320.586 197.512L318.221 211.061L267 181.546Z" fill="#7366FF"/>
    <path d="M318.225 115.549L286.565 133.787L267 122.513L318.214 93L369.435 122.513L358.628 131.107L349.881 133.79L318.225 115.549Z" fill="#7366FF"/>
    <path d="M389.001 192.813L369.435 204.095L349.882 192.813V170.272L389.001 192.813Z" fill="#5219FF"/>
    <path d="M318.226 129.54L318.214 152.083L337.785 163.354L337.781 140.807L318.226 129.54Z" fill="#A299FF"/>
    <path d="M318.214 152.083L298.656 163.354L318.218 174.63L337.785 163.354L318.214 152.083Z" fill="#5219FF"/>
    <path d="M318.226 129.54L298.659 140.816L298.656 163.354L318.214 152.083L318.226 129.54Z" fill="#7366FF"/>
    <path d="M369.435 122.513V159.008L349.882 170.272V133.79L369.435 122.513Z" fill="url(#paint0_linear)"/>
    <path d="M369.44 158.996L318.221 188.513V211.062L369.434 181.543L369.44 158.996Z" fill="url(#paint1_linear)"/>
    <defs>
        <linearGradient id="paint0_linear" x1="359.659" y1="122.513" x2="359.659" y2="170.272" gradientUnits="userSpaceOnUse">
            <stop offset="0.25" stop-color="#7366FF"/>
            <stop offset="1" stop-color="#5219FF"/>
        </linearGradient>
        <linearGradient id="paint1_linear" x1="318.22" y1="185.029" x2="369.44" y2="185.029" gradientUnits="userSpaceOnUse">
            <stop stop-color="#7366FF"/>
            <stop offset="1" stop-color="#A299FF"/>
        </linearGradient>
    </defs>
</svg>
