<?xml version="1.0" encoding="UTF-8" standalone="no"?>
<svg xmlns="http://www.w3.org/2000/svg" stroke-linecap="square" version="1.1" stroke-miterlimit="10" xmlns:xlink="http://www.w3.org/1999/xlink" viewBox="0.0 0.0 303.59317585301835 359.54068241469815" fill="none">
 <clipPath id="p.0">
  <path d="m0 0h303.59v359.54h-303.59v-359.54z"/>
 </clipPath>
 <g clip-path="url(#p.0)">
  <path fill-rule="evenodd" fill-opacity="0" d="m0 0h303.59v359.54h-303.59z" fill="#000"/>
  <path fill-rule="evenodd" d="m81.475 16.121c0-4.2704 3.4619-7.7323 7.7323-7.7323h147.4c2.0507 0 4.0175 0.81465 5.4676 2.2647 1.4501 1.4501 2.2647 3.4168 2.2647 5.4676v30.929c0 4.2704-3.4619 7.7323-7.7323 7.7323h-147.4c-4.2704 0-7.7323-3.4619-7.7323-7.7323z" fill="#ffb95a"/>
  <path d="m93.365 39.384h-0.96875l5-14.188h0.9375l-4.9688 14.188zm5.4491-6.5156q0-1 0.28125-1.7344 0.28125-0.73438 0.73438-1.2344 0.46875-0.5 1.0625-0.73438 0.59375-0.25 1.2344-0.25 1.3906 0 2.2188 0.90625 0.82812 0.90625 0.82812 2.7969 0 0.125-0.015625 0.25 0 0.10938-0.015625 0.20312h-5.3281q0.046875 1.3906 0.6875 2.1406 0.65625 0.75 2.0625 0.75 0.76562 0 1.2188-0.14062 0.46875-0.15625 0.67188-0.25l0.17188 0.8125q-0.20312 0.125-0.76562 0.28125t-1.3281 0.15625q-1 0-1.7031-0.28125-0.70312-0.29688-1.1562-0.82812-0.45312-0.53125-0.65625-1.25-0.20312-0.73438-0.20312-1.5938zm5.375-0.59375q-0.03125-1.1875-0.5625-1.8438-0.53125-0.67188-1.4844-0.67188-0.51562 0-0.92188 0.20312-0.40625 0.20312-0.70312 0.5625-0.29688 0.34375-0.46875 0.79688-0.17188 0.45312-0.20312 0.95312h4.3438zm4.0004-3.1875h3.0156v0.8125h-3.0156v4.0312q0 0.64062 0.10938 1.0469 0.10938 0.39062 0.3125 0.625 0.20312 0.21875 0.5 0.29688 0.29688 0.0625 0.64062 0.0625 0.60938 0 0.96875-0.14062 0.375-0.14062 0.57812-0.25l0.23438 0.78125q-0.20312 0.14062-0.71875 0.3125-0.51562 0.15625-1.1094 0.15625-0.71875 0-1.1875-0.17188-0.46875-0.1875-0.76562-0.5625-0.28125-0.375-0.40625-0.92188-0.10938-0.5625-0.10938-1.3281v-6.9844l0.95312-0.17188v2.4062zm7.9064 7.7344q-0.875 0-1.5469-0.26562-0.67188-0.28125-1.125-0.79688-0.4375-0.53125-0.67188-1.25-0.23438-0.73438-0.23438-1.6094 0-0.89062 0.23438-1.625 0.25-0.73438 0.70312-1.2656 0.45312-0.53125 1.0938-0.8125 0.64062-0.28125 1.4531-0.28125 0.60938 0 1.1406 0.10938 0.54688 0.09375 0.82812 0.25l-0.23438 0.82812q-0.29688-0.15625-0.67188-0.23438-0.35938-0.09375-0.98438-0.09375-1.25 0-1.9062 0.8125-0.65625 0.8125-0.65625 2.3125 0 0.67188 0.14062 1.2344 0.15625 0.5625 0.48438 0.96875 0.32812 0.40625 0.84375 0.64062 0.53125 0.21875 1.2812 0.21875 0.60938 0 1.0312-0.14062 0.42188-0.14062 0.60938-0.23438l0.20312 0.8125q-0.26562 0.14062-0.82812 0.28125-0.5625 0.14062-1.1875 0.14062zm2.9763 2.5625h-0.96875l5-14.188h0.9375l-4.9688 14.188zm5.9022-10.031q0.42188-0.125 1.1406-0.26562 0.71875-0.14062 1.75-0.14062 0.875 0 1.4531 0.25 0.57812 0.25 0.92188 0.71875 0.34375 0.45312 0.48438 1.0938 0.15625 0.64062 0.15625 1.4219v4.2344h-0.95312v-3.9219q0-0.8125-0.10938-1.3594-0.10938-0.5625-0.375-0.90625-0.25-0.35938-0.67188-0.51562-0.42188-0.15625-1.0469-0.15625-0.67188 0-1.1719 0.078125-0.48438 0.0625-0.625 0.125v6.6562h-0.95312v-7.3125zm7.8863 3.5156q0-1 0.28125-1.7344 0.28125-0.73438 0.73438-1.2344 0.46875-0.5 1.0625-0.73438 0.59375-0.25 1.2344-0.25 1.3906 0 2.2188 0.90625 0.82812 0.90625 0.82812 2.7969 0 0.125-0.015625 0.25 0 0.10938-0.015625 0.20312h-5.3281q0.046875 1.3906 0.6875 2.1406 0.65625 0.75 2.0625 0.75 0.76562 0 1.2188-0.14062 0.46875-0.15625 0.67188-0.25l0.17188 0.8125q-0.20312 0.125-0.76562 0.28125t-1.3281 0.15625q-1 0-1.7031-0.28125-0.70312-0.29688-1.1562-0.82812-0.45312-0.53125-0.65625-1.25-0.20312-0.73438-0.20312-1.5938zm5.375-0.59375q-0.03125-1.1875-0.5625-1.8438-0.53125-0.67188-1.4844-0.67188-0.51562 0-0.92188 0.20312-0.40625 0.20312-0.70312 0.5625-0.29688 0.34375-0.46875 0.79688-0.17188 0.45312-0.20312 0.95312h4.3438zm4.0004-3.1875h3.0156v0.8125h-3.0156v4.0312q0 0.64062 0.10938 1.0469 0.10938 0.39062 0.3125 0.625 0.20312 0.21875 0.5 0.29688 0.29688 0.0625 0.64062 0.0625 0.60938 0 0.96875-0.14062 0.375-0.14062 0.57812-0.25l0.23438 0.78125q-0.20312 0.14062-0.71875 0.3125-0.51562 0.15625-1.1094 0.15625-0.71875 0-1.1875-0.17188-0.46875-0.1875-0.76562-0.5625-0.28125-0.375-0.40625-0.92188-0.10938-0.5625-0.10938-1.3281v-6.9844l0.95312-0.17188v2.4062zm5.7345 6.2188q0.125 0.09375 0.3125 0.21875 0.20312 0.10938 0.46875 0.21875 0.26562 0.09375 0.57812 0.17188 0.3125 0.0625 0.64062 0.0625 0.70312 0 1.1719-0.23438 0.48438-0.25 0.78125-0.67188 0.29688-0.42188 0.42188-0.98438 0.14062-0.5625 0.14062-1.1875 0-1.5-0.75-2.2969-0.75-0.79688-1.9844-0.79688-0.70312 0-1.1406 0.0625-0.42188 0.0625-0.64062 0.14062v5.2969zm0 4.0781h-0.95312v-10.031q0.42188-0.14062 1.0781-0.26562 0.65625-0.14062 1.6719-0.14062 0.82812 0 1.5156 0.26562 0.6875 0.26562 1.1719 0.78125 0.5 0.51562 0.76562 1.25t0.26562 1.6562q0 0.85938-0.23438 1.5938-0.21875 0.71875-0.65625 1.25-0.4375 0.51562-1.0781 0.8125-0.64062 0.28125-1.4531 0.28125-0.75 0-1.2969-0.20312-0.54688-0.21875-0.79688-0.40625v3.1562zm9.5134-2.5938q-0.48438 0-0.84375-0.125-0.35938-0.10938-0.60938-0.32812-0.23438-0.23438-0.35938-0.59375-0.125-0.35938-0.125-0.89062v-9.3906l0.95312-0.17188v9.5312q0 0.34375 0.0625 0.5625t0.1875 0.34375q0.14062 0.10938 0.34375 0.17188 0.21875 0.0625 0.51562 0.10938l-0.125 0.78125zm4.2061-0.8125q0.54688 0 0.96875-0.03125 0.42188-0.046875 0.70312-0.10938v-2.6562q-0.15625-0.078125-0.51562-0.15625-0.34375-0.078125-0.95312-0.078125-0.35938 0-0.75 0.046875-0.375 0.046875-0.70312 0.21875-0.3125 0.17188-0.51562 0.46875-0.20312 0.28125-0.20312 0.76562 0 0.4375 0.14062 0.73438 0.14062 0.28125 0.39062 0.46875 0.26562 0.17188 0.60938 0.25 0.35938 0.078125 0.82812 0.078125zm-0.09375-7.0625q0.75 0 1.2656 0.21875 0.51562 0.20312 0.84375 0.57812 0.32812 0.375 0.46875 0.89062 0.14062 0.5 0.14062 1.1094v4.7812q-0.14062 0.046875-0.42188 0.09375-0.28125 0.046875-0.65625 0.10938-0.35938 0.0625-0.8125 0.09375-0.4375 0.03125-0.90625 0.03125-0.59375 0-1.1094-0.14062-0.5-0.125-0.875-0.40625t-0.59375-0.71875q-0.20312-0.45312-0.20312-1.1094 0-0.60938 0.23438-1.0469 0.23438-0.4375 0.65625-0.71875 0.42188-0.29688 1-0.42188 0.59375-0.14062 1.2969-0.14062 0.20312 0 0.42188 0.03125 0.23438 0.015625 0.4375 0.0625 0.21875 0.03125 0.375 0.0625t0.20312 0.0625v-0.46875q0-0.39062-0.0625-0.76562-0.046875-0.375-0.25-0.67188-0.1875-0.29688-0.54688-0.48438t-0.95312-0.1875q-0.82812 0-1.25 0.125-0.40625 0.10938-0.59375 0.1875l-0.14062-0.84375q0.25-0.10938 0.76562-0.20312 0.53125-0.10938 1.2656-0.10938zm5.1632 0.4375q0.42188-0.125 1.1406-0.26562 0.71875-0.14062 1.75-0.14062 0.875 0 1.4531 0.25 0.57812 0.25 0.92188 0.71875 0.34375 0.45312 0.48438 1.0938 0.15625 0.64062 0.15625 1.4219v4.2344h-0.95312v-3.9219q0-0.8125-0.10938-1.3594-0.10938-0.5625-0.375-0.90625-0.25-0.35938-0.67188-0.51562-0.42188-0.15625-1.0469-0.15625-0.67188 0-1.1719 0.078125-0.48438 0.0625-0.625 0.125v6.6562h-0.95312v-7.3125zm7.6988 10.031h-0.96875l5-14.188h0.9375l-4.9688 14.188zm8.4491-9.875q0.5 0.5 0.89062 0.92188 0.40625 0.40625 0.85938 0.98438l-0.82812 0.60938q-0.20312-0.29688-0.375-0.5625-0.17188-0.28125-0.3125-0.54688-0.14062-0.28125-0.28125-0.5625-0.14062-0.28125-0.3125-0.59375-0.15625 0.3125-0.29688 0.59375-0.14062 0.28125-0.29688 0.5625-0.14062 0.26562-0.3125 0.54688-0.15625 0.26562-0.35938 0.5625l-0.82812-0.60938q0.21875-0.29688 0.42188-0.53125 0.21875-0.25 0.42188-0.46875 0.20312-0.21875 0.42188-0.4375 0.23438-0.21875 0.48438-0.46875-0.6875-0.09375-1.2656-0.1875-0.57812-0.10938-1.2656-0.34375l0.29688-0.9375q0.35938 0.10938 0.64062 0.23438 0.29688 0.10938 0.57812 0.25 0.28125 0.125 0.5625 0.26562t0.57812 0.28125q-0.046875-0.34375-0.10938-0.65625-0.046875-0.3125-0.09375-0.60938-0.03125-0.29688-0.0625-0.60938-0.015625-0.32812-0.015625-0.6875h1q0 0.35938-0.03125 0.6875-0.015625 0.3125-0.046875 0.60938t-0.09375 0.60938q-0.046875 0.3125-0.10938 0.65625 0.3125-0.14062 0.59375-0.28125 0.28125-0.14062 0.54688-0.26562 0.28125-0.14062 0.57812-0.25 0.29688-0.125 0.64062-0.23438l0.3125 0.9375q-0.6875 0.23438-1.2656 0.34375-0.57812 0.09375-1.2656 0.1875zm5.7146 6.5312q0 0.32812-0.21875 0.5625-0.20312 0.23438-0.59375 0.23438-0.375 0-0.59375-0.23438-0.20312-0.23438-0.20312-0.5625 0-0.34375 0.20312-0.57812 0.21875-0.23438 0.59375-0.23438 0.39062 0 0.59375 0.23438 0.21875 0.23438 0.21875 0.57812zm4.3242 0.78125q-0.48438-0.89062-0.9375-1.8594-0.4375-0.96875-0.82812-1.9531-0.39062-0.98438-0.71875-1.9688-0.3125-1-0.54688-1.9531h1q0.17188 0.70312 0.42188 1.5156 0.25 0.8125 0.5625 1.6875 0.3125 0.85938 0.6875 1.7656 0.39062 0.90625 0.82812 1.7812 0.32812-0.90625 0.5625-1.7031 0.25-0.8125 0.46875-1.6094 0.21875-0.79688 0.40625-1.625 0.20312-0.84375 0.42188-1.8125h0.95312q-0.46875 2.125-1.0781 4.1406-0.59375 2-1.2969 3.6719-0.28125 0.65625-0.57812 1.125-0.28125 0.48438-0.64062 0.79688-0.35938 0.3125-0.84375 0.45312-0.46875 0.14062-1.1094 0.14062-0.375 0-0.67188-0.09375-0.29688-0.078125-0.375-0.125l0.1875-0.78125q0.0625 0.03125 0.32812 0.10938 0.28125 0.09375 0.5625 0.09375 0.42188 0 0.75-0.09375t0.59375-0.3125q0.26562-0.20312 0.46875-0.54688 0.21875-0.32812 0.42188-0.84375zm7.2752-0.84375q0.54688 0 0.96875-0.03125 0.42188-0.046875 0.70312-0.10938v-2.6562q-0.15625-0.078125-0.51562-0.15625-0.34375-0.078125-0.95312-0.078125-0.35938 0-0.75 0.046875-0.375 0.046875-0.70312 0.21875-0.3125 0.17188-0.51562 0.46875-0.20312 0.28125-0.20312 0.76562 0 0.4375 0.14062 0.73438 0.14062 0.28125 0.39062 0.46875 0.26562 0.17188 0.60938 0.25 0.35938 0.078125 0.82812 0.078125zm-0.09375-7.0625q0.75 0 1.2656 0.21875 0.51562 0.20312 0.84375 0.57812 0.32812 0.375 0.46875 0.89062 0.14062 0.5 0.14062 1.1094v4.7812q-0.14062 0.046875-0.42188 0.09375-0.28125 0.046875-0.65625 0.10938-0.35938 0.0625-0.8125 0.09375-0.4375 0.03125-0.90625 0.03125-0.59375 0-1.1094-0.14062-0.5-0.125-0.875-0.40625t-0.59375-0.71875q-0.20312-0.45312-0.20312-1.1094 0-0.60938 0.23438-1.0469 0.23438-0.4375 0.65625-0.71875 0.42188-0.29688 1-0.42188 0.59375-0.14062 1.2969-0.14062 0.20312 0 0.42188 0.03125 0.23438 0.015625 0.4375 0.0625 0.21875 0.03125 0.375 0.0625t0.20312 0.0625v-0.46875q0-0.39062-0.0625-0.76562-0.046875-0.375-0.25-0.67188-0.1875-0.29688-0.54688-0.48438t-0.95312-0.1875q-0.82812 0-1.25 0.125-0.40625 0.10938-0.59375 0.1875l-0.14062-0.84375q0.25-0.10938 0.76562-0.20312 0.53125-0.10938 1.2656-0.10938zm5.1632 0.4375q0.42188-0.125 1.0938-0.26562 0.6875-0.14062 1.7812-0.14062 1.4219 0 2.0781 0.82812 0.0625-0.0625 0.28125-0.1875 0.21875-0.14062 0.53125-0.28125 0.32812-0.15625 0.75-0.25 0.4375-0.10938 0.96875-0.10938 0.85938 0 1.3906 0.26562 0.54688 0.25 0.82812 0.71875 0.29688 0.45312 0.39062 1.0938 0.10938 0.64062 0.10938 1.4062v4.2344h-0.95312v-3.9219q0-0.75-0.0625-1.2969-0.0625-0.5625-0.26562-0.92188-0.1875-0.35938-0.5625-0.53125-0.35938-0.1875-0.95312-0.1875-0.4375 0-0.79688 0.078125t-0.625 0.20312q-0.26562 0.10938-0.4375 0.23438-0.15625 0.10938-0.23438 0.17188 0.14062 0.375 0.20312 0.85938 0.0625 0.46875 0.0625 1v4.3125h-0.95312v-3.9219q0-0.75-0.0625-1.2969-0.0625-0.5625-0.28125-0.92188-0.20312-0.35938-0.57812-0.53125-0.35938-0.1875-0.98438-0.1875-0.6875 0-1.1719 0.078125-0.46875 0.0625-0.59375 0.125v6.6562h-0.95312v-7.3125zm14.57 7.4375q-0.48438 0-0.84375-0.125-0.35938-0.10938-0.60938-0.32812-0.23438-0.23438-0.35938-0.59375-0.125-0.35938-0.125-0.89062v-9.3906l0.95312-0.17188v9.5312q0 0.34375 0.0625 0.5625t0.1875 0.34375q0.14062 0.10938 0.34375 0.17188 0.21875 0.0625 0.51562 0.10938l-0.125 0.78125z" fill="#434343"/>
  <path fill-rule="evenodd" d="m81.475 84.703c0-4.2704 3.4619-7.7323 7.7323-7.7323h147.4c2.0507 0 4.0175 0.81464 5.4676 2.2647s2.2647 3.4168 2.2647 5.4676v30.929c0 4.2704-3.4619 7.7323-7.7323 7.7323h-147.4c-4.2704 0-7.7323-3.4619-7.7323-7.7323z" fill="#a87ca0"/>
  <path d="m139.11 97.935q0.42188-0.125 1.1406-0.26562 0.71875-0.14062 1.75-0.14062 0.875 0 1.4531 0.25 0.57812 0.25 0.92188 0.71875 0.34375 0.45312 0.48438 1.0938 0.15625 0.64062 0.15625 1.4219v4.2344h-0.95312v-3.9219q0-0.8125-0.10938-1.3594-0.10938-0.5625-0.375-0.90625-0.25-0.35938-0.67188-0.51562-0.42188-0.15625-1.0469-0.15625-0.67188 0-1.1719 0.078125-0.48438 0.0625-0.625 0.125v6.6562h-0.95312v-7.3125zm7.8863 3.5156q0-1 0.28125-1.7344 0.28125-0.73438 0.73438-1.2344 0.46875-0.5 1.0625-0.73438 0.59375-0.25 1.2344-0.25 1.3906 0 2.2188 0.90625 0.82812 0.90625 0.82812 2.7969 0 0.125-0.015625 0.25 0 0.10938-0.015625 0.20312h-5.3281q0.046875 1.3906 0.6875 2.1406 0.65625 0.75 2.0625 0.75 0.76562 0 1.2188-0.14062 0.46875-0.15625 0.67188-0.25l0.17188 0.8125q-0.20312 0.125-0.76562 0.28125t-1.3281 0.15625q-1 0-1.7031-0.28125-0.70312-0.29688-1.1562-0.82812-0.45312-0.53125-0.65625-1.25-0.20312-0.73438-0.20312-1.5938zm5.375-0.59375q-0.03125-1.1875-0.5625-1.8438-0.53125-0.67188-1.4844-0.67188-0.51562 0-0.92188 0.20312-0.40625 0.20312-0.70312 0.5625-0.29688 0.34375-0.46875 0.79688-0.17188 0.45312-0.20312 0.95312h4.3438zm4.0004-3.1875h3.0156v0.8125h-3.0156v4.0312q0 0.64062 0.10938 1.0469 0.10938 0.39062 0.3125 0.625 0.20312 0.21875 0.5 0.29688 0.29688 0.0625 0.64062 0.0625 0.60938 0 0.96875-0.14062 0.375-0.14062 0.57812-0.25l0.23438 0.78125q-0.20312 0.14062-0.71875 0.3125-0.51562 0.15625-1.1094 0.15625-0.71875 0-1.1875-0.17188-0.46875-0.1875-0.76562-0.5625-0.28125-0.375-0.40625-0.92188-0.10938-0.5625-0.10938-1.3281v-6.9844l0.95312-0.17188v2.4062zm5.7345 6.2188q0.125 0.09375 0.3125 0.21875 0.20312 0.10938 0.46875 0.21875 0.26562 0.09375 0.57812 0.17188 0.3125 0.0625 0.64062 0.0625 0.70312 0 1.1719-0.23438 0.48438-0.25 0.78125-0.67188 0.29688-0.42188 0.42188-0.98438 0.14062-0.5625 0.14062-1.1875 0-1.5-0.75-2.2969-0.75-0.79688-1.9844-0.79688-0.70312 0-1.1406 0.0625-0.42188 0.0625-0.64062 0.14062v5.2969zm0 4.0781h-0.95312v-10.031q0.42188-0.14062 1.0781-0.26562 0.65625-0.14062 1.6719-0.14062 0.82812 0 1.5156 0.26562 0.6875 0.26562 1.1719 0.78125 0.5 0.51562 0.76562 1.25t0.26562 1.6562q0 0.85938-0.23438 1.5938-0.21875 0.71875-0.65625 1.25-0.4375 0.51562-1.0781 0.8125-0.64062 0.28125-1.4531 0.28125-0.75 0-1.2969-0.20312-0.54688-0.21875-0.79688-0.40625v3.1562zm9.5134-2.5938q-0.48438 0-0.84375-0.125-0.35938-0.10938-0.60938-0.32812-0.23438-0.23438-0.35938-0.59375-0.125-0.35938-0.125-0.89062v-9.3906l0.95312-0.17188v9.5312q0 0.34375 0.0625 0.5625t0.1875 0.34375q0.14062 0.10938 0.34375 0.17188 0.21875 0.0625 0.51562 0.10938l-0.125 0.78125zm4.2061-0.8125q0.54688 0 0.96875-0.03125 0.42188-0.046875 0.70312-0.10938v-2.6562q-0.15625-0.078125-0.51562-0.15625-0.34375-0.078125-0.95312-0.078125-0.35938 0-0.75 0.046875-0.375 0.046875-0.70312 0.21875-0.3125 0.17188-0.51562 0.46875-0.20312 0.28125-0.20312 0.76562 0 0.4375 0.14062 0.73438 0.14062 0.28125 0.39062 0.46875 0.26562 0.17188 0.60938 0.25 0.35938 0.078125 0.82812 0.078125zm-0.09375-7.0625q0.75 0 1.2656 0.21875 0.51562 0.20312 0.84375 0.57812 0.32812 0.375 0.46875 0.89062 0.14062 0.5 0.14062 1.1094v4.7812q-0.14062 0.046875-0.42188 0.09375-0.28125 0.046875-0.65625 0.10938-0.35938 0.0625-0.8125 0.09375-0.4375 0.03125-0.90625 0.03125-0.59375 0-1.1094-0.14062-0.5-0.125-0.875-0.40625t-0.59375-0.71875q-0.20312-0.45312-0.20312-1.1094 0-0.60938 0.23438-1.0469 0.23438-0.4375 0.65625-0.71875 0.42188-0.29688 1-0.42188 0.59375-0.14062 1.2969-0.14062 0.20312 0 0.42188 0.03125 0.23438 0.015625 0.4375 0.0625 0.21875 0.03125 0.375 0.0625t0.20312 0.0625v-0.46875q0-0.39062-0.0625-0.76562-0.046875-0.375-0.25-0.67188-0.1875-0.29688-0.54688-0.48438t-0.95312-0.1875q-0.82812 0-1.25 0.125-0.40625 0.10938-0.59375 0.1875l-0.14062-0.84375q0.25-0.10938 0.76562-0.20312 0.53125-0.10938 1.2656-0.10938zm5.1632 0.4375q0.42188-0.125 1.1406-0.26562 0.71875-0.14062 1.75-0.14062 0.875 0 1.4531 0.25 0.57812 0.25 0.92188 0.71875 0.34375 0.45312 0.48438 1.0938 0.15625 0.64062 0.15625 1.4219v4.2344h-0.95312v-3.9219q0-0.8125-0.10938-1.3594-0.10938-0.5625-0.375-0.90625-0.25-0.35938-0.67188-0.51562-0.42188-0.15625-1.0469-0.15625-0.67188 0-1.1719 0.078125-0.48438 0.0625-0.625 0.125v6.6562h-0.95312v-7.3125z" fill="#434343"/>
  <path fill-rule="evenodd" d="m81.475 241.03c0-4.2704 3.4619-7.7323 7.7323-7.7323h147.4c2.0507 0 4.0175 0.81465 5.4676 2.2647 1.4501 1.4501 2.2647 3.4168 2.2647 5.4675v30.929c0 4.2704-3.4619 7.7323-7.7323 7.7323h-147.4c-4.2704 0-7.7323-3.4619-7.7323-7.7323z" fill="#48929b"/>
  <path d="m104.85 260.91q0.82812 0 1.3594-0.26562 0.53125-0.28125 0.53125-0.92188 0-0.3125-0.09375-0.53125t-0.3125-0.39062q-0.21875-0.17188-0.57812-0.32812-0.35938-0.17188-0.89062-0.39062-0.42188-0.17188-0.8125-0.35938-0.375-0.1875-0.67188-0.42188-0.28125-0.25-0.46875-0.57812-0.17188-0.34375-0.17188-0.82811 0-0.92188 0.6875-1.4844 0.70312-0.57812 1.9219-0.57812 0.78125 0 1.2812 0.14062 0.5 0.125 0.71875 0.21875l-0.23438 0.85938q-0.17188-0.09375-0.59375-0.23438-0.40625-0.15625-1.2188-0.15625-0.3125 0-0.60938 0.078125-0.28125 0.0625-0.5 0.20312t-0.35938 0.35938q-0.125 0.20312-0.125 0.5 0 0.31248 0.10938 0.53123 0.125 0.21875 0.34375 0.39062 0.23438 0.17188 0.5625 0.32812 0.32812 0.14062 0.75 0.3125 0.45312 0.17188 0.84375 0.35938 0.40625 0.1875 0.71875 0.4375t0.5 0.60938 0.1875 0.90625q0 1.0312-0.78125 1.5625-0.76562 0.51562-2.0938 0.51562-1 0-1.5312-0.17188-0.51562-0.15625-0.6875-0.25l0.23438-0.85938q0.046875 0.03125 0.1875 0.09375 0.15625 0.0625 0.40625 0.14062 0.25 0.078125 0.59375 0.14062 0.34375 0.0625 0.79688 0.0625zm6.7885 0.82812q-0.48438-0.89062-0.9375-1.8594-0.4375-0.96875-0.82812-1.9531-0.39062-0.98438-0.71875-1.9687-0.3125-1-0.54688-1.9531h1q0.17188 0.70312 0.42188 1.5156t0.5625 1.6875q0.3125 0.85938 0.6875 1.7656 0.39062 0.90625 0.82812 1.7812 0.32812-0.90625 0.5625-1.7031 0.25-0.8125 0.46875-1.6094 0.21875-0.79688 0.40625-1.625 0.20312-0.84375 0.42188-1.8125h0.95312q-0.46875 2.125-1.0781 4.1406-0.59375 2-1.2969 3.6719-0.28125 0.65625-0.57812 1.125-0.28125 0.48438-0.64062 0.79688-0.35938 0.3125-0.84375 0.45312-0.46875 0.14062-1.1094 0.14062-0.375 0-0.67188-0.09375-0.29688-0.078125-0.375-0.125l0.1875-0.78125q0.0625 0.03125 0.32812 0.10938 0.28125 0.09375 0.5625 0.09375 0.42188 0 0.75-0.09375t0.59375-0.3125q0.26562-0.20312 0.46875-0.54688 0.21875-0.32812 0.42188-0.84375zm6.4315-0.82812q0.82812 0 1.3594-0.26562 0.53125-0.28125 0.53125-0.92188 0-0.3125-0.09375-0.53125t-0.3125-0.39062q-0.21875-0.17188-0.57812-0.32812-0.35938-0.17188-0.89062-0.39062-0.42188-0.17188-0.8125-0.35938-0.375-0.1875-0.67188-0.42188-0.28125-0.25-0.46875-0.57812-0.17188-0.34375-0.17188-0.82811 0-0.92188 0.6875-1.4844 0.70312-0.57812 1.9219-0.57812 0.78125 0 1.2812 0.14062 0.5 0.125 0.71875 0.21875l-0.23438 0.85938q-0.17188-0.09375-0.59375-0.23438-0.40625-0.15625-1.2188-0.15625-0.3125 0-0.60938 0.078125-0.28125 0.0625-0.5 0.20312t-0.35938 0.35938q-0.125 0.20312-0.125 0.5 0 0.31248 0.10938 0.53123 0.125 0.21875 0.34375 0.39062 0.23438 0.17188 0.5625 0.32812 0.32812 0.14062 0.75 0.3125 0.45312 0.17188 0.84375 0.35938 0.40625 0.1875 0.71875 0.4375t0.5 0.60938 0.1875 0.90625q0 1.0312-0.78125 1.5625-0.76562 0.51562-2.0938 0.51562-1 0-1.5312-0.17188-0.51562-0.15625-0.6875-0.25l0.23438-0.85938q0.046875 0.03125 0.1875 0.09375 0.15625 0.0625 0.40625 0.14062 0.25 0.078125 0.59375 0.14062 0.34375 0.0625 0.79688 0.0625zm5.6167-6.9062h3.0156v0.8125h-3.0156v4.0312q0 0.64062 0.10938 1.0469 0.10938 0.39062 0.3125 0.625 0.20312 0.21875 0.5 0.29688 0.29688 0.0625 0.64062 0.0625 0.60938 0 0.96875-0.14062 0.375-0.14062 0.57812-0.25l0.23438 0.78125q-0.20312 0.14062-0.71875 0.3125-0.51562 0.15625-1.1094 0.15625-0.71875 0-1.1875-0.17188-0.46875-0.1875-0.76562-0.5625-0.28125-0.375-0.40625-0.92188-0.10938-0.5625-0.10938-1.3281v-6.9844l0.95312-0.17188v2.4062zm4.3282 3.7812q0-1 0.28125-1.7344 0.28125-0.73436 0.73438-1.2344 0.46875-0.5 1.0625-0.73438 0.59375-0.25 1.2344-0.25 1.3906 0 2.2188 0.90625 0.82812 0.90625 0.82812 2.7969 0 0.125-0.015625 0.25 0 0.10938-0.015625 0.20312h-5.3281q0.046875 1.3906 0.6875 2.1406 0.65625 0.75 2.0625 0.75 0.76562 0 1.2188-0.14062 0.46875-0.15625 0.67188-0.25l0.17188 0.8125q-0.20312 0.125-0.76562 0.28125t-1.3281 0.15625q-1 0-1.7031-0.28125-0.70312-0.29688-1.1562-0.82812-0.45312-0.53125-0.65625-1.25-0.20312-0.73438-0.20312-1.5938zm5.375-0.59375q-0.03125-1.1875-0.5625-1.8437-0.53125-0.67188-1.4844-0.67188-0.51562 0-0.92188 0.20312-0.40625 0.20312-0.70312 0.5625-0.29688 0.34375-0.46875 0.79686-0.17188 0.45312-0.20312 0.95312h4.3438zm3.1098-2.9219q0.42188-0.125 1.0938-0.26562 0.6875-0.14062 1.7812-0.14062 1.4219 0 2.0781 0.82812 0.0625-0.0625 0.28125-0.1875 0.21875-0.14062 0.53125-0.28125 0.32812-0.15625 0.75-0.25 0.4375-0.10938 0.96875-0.10938 0.85938 0 1.3906 0.26562 0.54688 0.25 0.82812 0.71875 0.29688 0.45312 0.39062 1.0938 0.10938 0.64061 0.10938 1.4062v4.2344h-0.95312v-3.9219q0-0.75-0.0625-1.2969-0.0625-0.56248-0.26562-0.92186-0.1875-0.35938-0.5625-0.53125-0.35938-0.1875-0.95312-0.1875-0.4375 0-0.79688 0.078125t-0.625 0.20312q-0.26562 0.10938-0.4375 0.23438-0.15625 0.10938-0.23438 0.17188 0.14062 0.375 0.20312 0.85936 0.0625 0.46875 0.0625 1v4.3125h-0.95312v-3.9219q0-0.75-0.0625-1.2969-0.0625-0.56248-0.28125-0.92186-0.20312-0.35938-0.57812-0.53125-0.35938-0.1875-0.98438-0.1875-0.6875 0-1.1719 0.078125-0.46875 0.0625-0.59375 0.125v6.6562h-0.95312v-7.3125zm18.664 7.0781q-0.42188 0.14062-1.0781 0.26562-0.65625 0.14062-1.6719 0.14062-0.84375 0-1.5312-0.26562-0.67188-0.26562-1.1719-0.78125-0.48438-0.51562-0.75-1.25t-0.26562-1.6562q0-0.85938 0.21875-1.5781 0.23438-0.73436 0.67188-1.2656 0.4375-0.53125 1.0781-0.8125 0.64062-0.29688 1.4531-0.29688 0.75 0 1.2969 0.21875 0.54688 0.20312 0.79688 0.39062v-4.0781l0.95312-0.17188v11.141zm-0.95312-5.9687q-0.125-0.09375-0.32812-0.20312-0.20312-0.125-0.46875-0.21875-0.25-0.10938-0.5625-0.17188-0.3125-0.078125-0.64062-0.078125-0.70312 0-1.1875 0.25-0.46875 0.25-0.76562 0.67188-0.29688 0.40623-0.4375 0.98436-0.125 0.5625-0.125 1.1875 0 1.5 0.75 2.2969 0.75 0.79688 1.9844 0.79688 0.70312 0 1.125-0.0625 0.4375-0.078125 0.65625-0.14062v-5.3125zm2.6228 1.5h3.3125v0.92188h-3.3125v-0.92188zm4.9924-2.6094q0.42188-0.125 1.1406-0.26562 0.71875-0.14062 1.75-0.14062 0.875 0 1.4531 0.25 0.57812 0.25 0.92188 0.71875 0.34375 0.45312 0.48438 1.0938 0.15625 0.64061 0.15625 1.4219v4.2344h-0.95312v-3.9219q0-0.8125-0.10938-1.3594-0.10938-0.56248-0.375-0.90623-0.25-0.35938-0.67188-0.51562-0.42188-0.15625-1.0469-0.15625-0.67188 0-1.1719 0.078125-0.48438 0.0625-0.625 0.125v6.6562h-0.95312v-7.3125zm7.8863 3.5156q0-1 0.28125-1.7344 0.28125-0.73436 0.73438-1.2344 0.46875-0.5 1.0625-0.73438 0.59375-0.25 1.2344-0.25 1.3906 0 2.2188 0.90625 0.82812 0.90625 0.82812 2.7969 0 0.125-0.015625 0.25 0 0.10938-0.015625 0.20312h-5.3281q0.046875 1.3906 0.6875 2.1406 0.65625 0.75 2.0625 0.75 0.76562 0 1.2188-0.14062 0.46875-0.15625 0.67188-0.25l0.17188 0.8125q-0.20312 0.125-0.76562 0.28125t-1.3281 0.15625q-1 0-1.7031-0.28125-0.70312-0.29688-1.1562-0.82812-0.45312-0.53125-0.65625-1.25-0.20312-0.73438-0.20312-1.5938zm5.375-0.59375q-0.03125-1.1875-0.5625-1.8437-0.53125-0.67188-1.4844-0.67188-0.51562 0-0.92188 0.20312-0.40625 0.20312-0.70312 0.5625-0.29688 0.34375-0.46875 0.79686-0.17188 0.45312-0.20312 0.95312h4.3438zm4.0004-3.1875h3.0156v0.8125h-3.0156v4.0312q0 0.64062 0.10938 1.0469 0.10938 0.39062 0.3125 0.625 0.20312 0.21875 0.5 0.29688 0.29688 0.0625 0.64062 0.0625 0.60938 0 0.96875-0.14062 0.375-0.14062 0.57812-0.25l0.23438 0.78125q-0.20312 0.14062-0.71875 0.3125-0.51562 0.15625-1.1094 0.15625-0.71875 0-1.1875-0.17188-0.46875-0.1875-0.76562-0.5625-0.28125-0.375-0.40625-0.92188-0.10938-0.5625-0.10938-1.3281v-6.9844l0.95312-0.17188v2.4062zm9.6564 0q0.125 0.73438 0.34375 1.5625 0.21875 0.82811 0.46875 1.6875 0.25 0.85938 0.53125 1.7031 0.29688 0.82812 0.59375 1.5625 0.25-0.5625 0.51562-1.3594 0.28125-0.79688 0.5625-1.6875t0.51562-1.7812q0.25-0.90625 0.40625-1.6875h0.9375q-0.51562 2.2344-1.1406 4.0781-0.625 1.8438-1.375 3.5h-0.89062q-0.21875-0.51562-0.46875-1.1406-0.23438-0.64062-0.5-1.3594-0.25-0.73438-0.5-1.5312-0.23438-0.8125-0.45312-1.6406-0.21875 0.82811-0.46875 1.6406-0.23438 0.79688-0.5 1.5312-0.25 0.71875-0.5 1.3594-0.23438 0.625-0.45312 1.1406h-0.90625q-0.75-1.6562-1.375-3.5t-1.1406-4.0781h1q0.17188 0.78125 0.40625 1.6875 0.25 0.89061 0.51562 1.7812 0.28125 0.89062 0.5625 1.6875 0.29688 0.78125 0.54688 1.3438 0.28125-0.73438 0.5625-1.5625 0.28125-0.84375 0.53125-1.6875 0.25-0.85938 0.46875-1.6875t0.375-1.5625h0.82812zm12.937 3.7969q0 0.89062-0.26562 1.625-0.25 0.73438-0.71875 1.25-0.45312 0.51562-1.0781 0.79688-0.625 0.28125-1.3906 0.28125-0.76562 0-1.3906-0.28125-0.625-0.28125-1.0938-0.79688-0.46875-0.51562-0.71875-1.25t-0.25-1.625 0.25-1.625q0.25-0.73436 0.71875-1.25 0.46875-0.53125 1.0938-0.8125 0.625-0.28125 1.3906-0.28125 0.76562 0 1.3906 0.28125 0.625 0.28125 1.0781 0.8125 0.46875 0.51562 0.71875 1.25 0.26562 0.73438 0.26562 1.625zm-1 0q0-1.4219-0.67188-2.2656-0.65625-0.84375-1.7812-0.84375t-1.7969 0.84375q-0.65625 0.84373-0.65625 2.2656t0.65625 2.2656q0.67188 0.82812 1.7969 0.82812t1.7812-0.82812q0.67188-0.84375 0.67188-2.2656zm5.655-3.9375q0.46875 0 0.875 0.078125 0.42188 0.0625 0.59375 0.14062l-0.20312 0.8125q-0.10938-0.046875-0.46875-0.10938-0.35938-0.078125-0.95312-0.078125-0.60938 0-0.98438 0.09375-0.375 0.078125-0.48438 0.14062v6.6406h-0.95312v-7.2187q0.35938-0.17188 1-0.32812 0.65625-0.17188 1.5781-0.17188zm4.919 3.5937q0.45312 0.3125 0.96875 0.79688 0.53125 0.48438 1.0312 1.0469 0.51562 0.5625 0.95312 1.1562 0.45312 0.59375 0.75 1.125h-1.125q-0.34375-0.59375-0.79688-1.1562-0.45312-0.5625-0.9375-1.0625t-0.98438-0.90625q-0.48438-0.40625-0.92188-0.6875v3.8125h-0.95312v-11.203l0.95312-0.17188v7.2187q0.35938-0.35938 0.8125-0.8125t0.90625-0.92186q0.46875-0.46875 0.875-0.90625 0.42188-0.4375 0.71875-0.78125h1.1406q-0.34375 0.35938-0.76562 0.79688-0.42188 0.4375-0.89062 0.92188-0.45312 0.46873-0.90625 0.92186-0.45312 0.45312-0.82812 0.8125zm11.255 3.8906q-0.42188 0.14062-1.0781 0.26562-0.65625 0.14062-1.6719 0.14062-0.84375 0-1.5312-0.26562-0.67188-0.26562-1.1719-0.78125-0.48438-0.51562-0.75-1.25t-0.26562-1.6562q0-0.85938 0.21875-1.5781 0.23438-0.73436 0.67188-1.2656 0.4375-0.53125 1.0781-0.8125 0.64062-0.29688 1.4531-0.29688 0.75 0 1.2969 0.21875 0.54688 0.20312 0.79688 0.39062v-4.0781l0.95312-0.17188v11.141zm-0.95312-5.9687q-0.125-0.09375-0.32812-0.20312-0.20312-0.125-0.46875-0.21875-0.25-0.10938-0.5625-0.17188-0.3125-0.078125-0.64062-0.078125-0.70312 0-1.1875 0.25-0.46875 0.25-0.76562 0.67188-0.29688 0.40623-0.4375 0.98436-0.125 0.5625-0.125 1.1875 0 1.5 0.75 2.2969 0.75 0.79688 1.9844 0.79688 0.70312 0 1.125-0.0625 0.4375-0.078125 0.65625-0.14062v-5.3125z" fill="#434343"/>
  <path fill-rule="evenodd" d="m81.475 309.62c0-4.2704 3.4619-7.7323 7.7323-7.7323h147.4c2.0507 0 4.0175 0.81464 5.4676 2.2647s2.2647 3.4168 2.2647 5.4675v30.929c0 4.2704-3.4619 7.7323-7.7323 7.7323h-147.4c-4.2704 0-7.7323-3.4619-7.7323-7.7323z" fill="#48929b"/>
  <path d="m112.19 330.16q-0.28125-0.51562-0.71875-1.2031-0.42188-0.6875-0.9375-1.4688-0.51562-0.78125-1.0938-1.6094-0.5625-0.82812-1.125-1.6094-0.5625-0.79688-1.1094-1.4844-0.53125-0.6875-0.95312-1.1875v8.5625h-0.98438v-10.156h0.79688q0.75 0.82812 1.6094 1.9219 0.85938 1.0938 1.6719 2.2344 0.82812 1.1406 1.5312 2.2188 0.71875 1.0781 1.1719 1.8906v-8.2656h0.98438v10.156h-0.84375zm2.9695-3.7969q0-1 0.28125-1.7344 0.28125-0.73438 0.73438-1.2344 0.46875-0.5 1.0625-0.73438 0.59375-0.25 1.2344-0.25 1.3906 0 2.2188 0.90625 0.82812 0.90625 0.82812 2.7969 0 0.125-0.015625 0.25 0 0.10938-0.015625 0.20312h-5.3281q0.046875 1.3906 0.6875 2.1406 0.65625 0.75 2.0625 0.75 0.76562 0 1.2188-0.14062 0.46875-0.15625 0.67188-0.25l0.17188 0.8125q-0.20312 0.125-0.76562 0.28125t-1.3281 0.15625q-1 0-1.7031-0.28125-0.70312-0.29688-1.1562-0.82812-0.45312-0.53125-0.65625-1.25-0.20312-0.73438-0.20312-1.5938zm5.375-0.59375q-0.03125-1.1875-0.5625-1.8438-0.53125-0.67188-1.4844-0.67188-0.51562 0-0.92188 0.20312-0.40625 0.20312-0.70312 0.5625-0.29688 0.34375-0.46875 0.79688-0.17188 0.45312-0.20312 0.95312h4.3438zm4.0004-3.1875h3.0156v0.8125h-3.0156v4.0312q0 0.64062 0.10938 1.0469 0.10938 0.39062 0.3125 0.625 0.20312 0.21875 0.5 0.29688 0.29688 0.0625 0.64062 0.0625 0.60938 0 0.96875-0.14062 0.375-0.14062 0.57812-0.25l0.23438 0.78125q-0.20312 0.14062-0.71875 0.3125-0.51562 0.15625-1.1094 0.15625-0.71875 0-1.1875-0.17188-0.46875-0.1875-0.76562-0.5625-0.28125-0.375-0.40625-0.92188-0.10938-0.5625-0.10938-1.3281v-6.9844l0.95312-0.17188v2.4062zm9.6564 0q0.125 0.73438 0.34375 1.5625t0.46875 1.6875 0.53125 1.7031q0.29688 0.82812 0.59375 1.5625 0.25-0.5625 0.51562-1.3594 0.28125-0.79688 0.5625-1.6875t0.51562-1.7812q0.25-0.90625 0.40625-1.6875h0.9375q-0.51562 2.2344-1.1406 4.0781-0.625 1.8438-1.375 3.5h-0.89062q-0.21875-0.51562-0.46875-1.1406-0.23438-0.64062-0.5-1.3594-0.25-0.73438-0.5-1.5312-0.23438-0.8125-0.45312-1.6406-0.21875 0.82812-0.46875 1.6406-0.23438 0.79688-0.5 1.5312-0.25 0.71875-0.5 1.3594-0.23438 0.625-0.45312 1.1406h-0.90625q-0.75-1.6562-1.375-3.5t-1.1406-4.0781h1q0.17188 0.78125 0.40625 1.6875 0.25 0.89062 0.51562 1.7812 0.28125 0.89062 0.5625 1.6875 0.29688 0.78125 0.54688 1.3438 0.28125-0.73438 0.5625-1.5625 0.28125-0.84375 0.53125-1.6875 0.25-0.85938 0.46875-1.6875t0.375-1.5625h0.82812zm12.937 3.7969q0 0.89062-0.26562 1.625-0.25 0.73438-0.71875 1.25-0.45312 0.51562-1.0781 0.79688-0.625 0.28125-1.3906 0.28125-0.76562 0-1.3906-0.28125-0.625-0.28125-1.0938-0.79688-0.46875-0.51562-0.71875-1.25t-0.25-1.625 0.25-1.625 0.71875-1.25q0.46875-0.53125 1.0938-0.8125 0.625-0.28125 1.3906-0.28125 0.76562 0 1.3906 0.28125 0.625 0.28125 1.0781 0.8125 0.46875 0.51562 0.71875 1.25 0.26562 0.73438 0.26562 1.625zm-1 0q0-1.4219-0.67188-2.2656-0.65625-0.84375-1.7812-0.84375t-1.7969 0.84375q-0.65625 0.84375-0.65625 2.2656 0 1.4219 0.65625 2.2656 0.67188 0.82812 1.7969 0.82812t1.7812-0.82812q0.67188-0.84375 0.67188-2.2656zm5.655-3.9375q0.46875 0 0.875 0.078125 0.42188 0.0625 0.59375 0.14062l-0.20312 0.8125q-0.10938-0.046875-0.46875-0.10938-0.35938-0.078125-0.95312-0.078125-0.60938 0-0.98438 0.09375-0.375 0.078125-0.48438 0.14062v6.6406h-0.95312v-7.2188q0.35938-0.17188 1-0.32812 0.65625-0.17188 1.5781-0.17188zm4.919 3.5938q0.45312 0.3125 0.96875 0.79688 0.53125 0.48438 1.0312 1.0469 0.51562 0.5625 0.95312 1.1562 0.45312 0.59375 0.75 1.125h-1.125q-0.34375-0.59375-0.79688-1.1562-0.45312-0.5625-0.9375-1.0625t-0.98438-0.90625q-0.48438-0.40625-0.92188-0.6875v3.8125h-0.95312v-11.203l0.95312-0.17188v7.2188q0.35938-0.35938 0.8125-0.8125t0.90625-0.92188q0.46875-0.46875 0.875-0.90625 0.42188-0.4375 0.71875-0.78125h1.1406q-0.34375 0.35938-0.76562 0.79688-0.42188 0.4375-0.89062 0.92188-0.45312 0.46875-0.90625 0.92188-0.45312 0.45312-0.82812 0.8125zm13.19 2.6562q-0.14062-0.35938-0.42188-0.95312-0.26562-0.60938-0.60938-1.3125-0.32812-0.71875-0.6875-1.4688-0.34375-0.76562-0.67188-1.4219-0.3125-0.65625-0.5625-1.1562-0.25-0.5-0.375-0.70312-0.1875 1.8281-0.29688 3.9844-0.10938 2.1406-0.20312 4.5h-0.98438q0.14062-2.7656 0.29688-5.2969 0.17188-2.5469 0.42188-4.8594h0.89062q0.4375 0.73438 0.9375 1.7031 0.5 0.95312 0.98438 1.9844 0.48438 1.0312 0.95312 2.0469 0.46875 1 0.8125 1.7969 0.35938-0.79688 0.8125-1.7969 0.46875-1.0156 0.95312-2.0469 0.5-1.0312 0.98438-1.9844 0.5-0.96875 0.9375-1.7031h0.84375q0.25 2.3125 0.40625 4.8594 0.17188 2.5312 0.3125 5.2969h-1.0156q-0.078125-2.3594-0.20312-4.5-0.10938-2.1562-0.29688-3.9844-0.10938 0.20312-0.35938 0.70312t-0.57812 1.1562q-0.3125 0.65625-0.67188 1.4219-0.34375 0.75-0.6875 1.4688-0.34375 0.70312-0.60938 1.3125-0.26562 0.59375-0.42188 0.95312h-0.89062zm10.459 0.78125q0.54688 0 0.96875-0.03125 0.42188-0.046875 0.70312-0.10938v-2.6562q-0.15625-0.078125-0.51562-0.15625-0.34375-0.078125-0.95312-0.078125-0.35938 0-0.75 0.046875-0.375 0.046875-0.70312 0.21875-0.3125 0.17188-0.51562 0.46875-0.20312 0.28125-0.20312 0.76562 0 0.4375 0.14062 0.73438 0.14062 0.28125 0.39062 0.46875 0.26562 0.17188 0.60938 0.25 0.35938 0.078125 0.82812 0.078125zm-0.09375-7.0625q0.75 0 1.2656 0.21875 0.51562 0.20312 0.84375 0.57812 0.32812 0.375 0.46875 0.89062 0.14062 0.5 0.14062 1.1094v4.7812q-0.14062 0.046875-0.42188 0.09375-0.28125 0.046875-0.65625 0.10938-0.35938 0.0625-0.8125 0.09375-0.4375 0.03125-0.90625 0.03125-0.59375 0-1.1094-0.14062-0.5-0.125-0.875-0.40625t-0.59375-0.71875q-0.20312-0.45312-0.20312-1.1094 0-0.60938 0.23438-1.0469 0.23438-0.4375 0.65625-0.71875 0.42188-0.29688 1-0.42188 0.59375-0.14062 1.2969-0.14062 0.20312 0 0.42188 0.03125 0.23438 0.015625 0.4375 0.0625 0.21875 0.03125 0.375 0.0625t0.20312 0.0625v-0.46875q0-0.39062-0.0625-0.76562-0.046875-0.375-0.25-0.67188-0.1875-0.29688-0.54688-0.48438t-0.95312-0.1875q-0.82812 0-1.25 0.125-0.40625 0.10938-0.59375 0.1875l-0.14062-0.84375q0.25-0.10938 0.76562-0.20312 0.53125-0.10938 1.2656-0.10938zm5.1632 0.4375q0.42188-0.125 1.1406-0.26562 0.71875-0.14062 1.75-0.14062 0.875 0 1.4531 0.25 0.57812 0.25 0.92188 0.71875 0.34375 0.45312 0.48438 1.0938 0.15625 0.64062 0.15625 1.4219v4.2344h-0.95312v-3.9219q0-0.8125-0.10938-1.3594-0.10938-0.5625-0.375-0.90625-0.25-0.35938-0.67188-0.51562-0.42188-0.15625-1.0469-0.15625-0.67188 0-1.1719 0.078125-0.48438 0.0625-0.625 0.125v6.6562h-0.95312v-7.3125zm10.73 6.625q0.54688 0 0.96875-0.03125 0.42188-0.046875 0.70312-0.10938v-2.6562q-0.15625-0.078125-0.51562-0.15625-0.34375-0.078125-0.95312-0.078125-0.35938 0-0.75 0.046875-0.375 0.046875-0.70312 0.21875-0.3125 0.17188-0.51562 0.46875-0.20312 0.28125-0.20312 0.76562 0 0.4375 0.14062 0.73438 0.14062 0.28125 0.39062 0.46875 0.26562 0.17188 0.60938 0.25 0.35938 0.078125 0.82812 0.078125zm-0.09375-7.0625q0.75 0 1.2656 0.21875 0.51562 0.20312 0.84375 0.57812 0.32812 0.375 0.46875 0.89062 0.14062 0.5 0.14062 1.1094v4.7812q-0.14062 0.046875-0.42188 0.09375-0.28125 0.046875-0.65625 0.10938-0.35938 0.0625-0.8125 0.09375-0.4375 0.03125-0.90625 0.03125-0.59375 0-1.1094-0.14062-0.5-0.125-0.875-0.40625t-0.59375-0.71875q-0.20312-0.45312-0.20312-1.1094 0-0.60938 0.23438-1.0469 0.23438-0.4375 0.65625-0.71875 0.42188-0.29688 1-0.42188 0.59375-0.14062 1.2969-0.14062 0.20312 0 0.42188 0.03125 0.23438 0.015625 0.4375 0.0625 0.21875 0.03125 0.375 0.0625t0.20312 0.0625v-0.46875q0-0.39062-0.0625-0.76562-0.046875-0.375-0.25-0.67188-0.1875-0.29688-0.54688-0.48438t-0.95312-0.1875q-0.82812 0-1.25 0.125-0.40625 0.10938-0.59375 0.1875l-0.14062-0.84375q0.25-0.10938 0.76562-0.20312 0.53125-0.10938 1.2656-0.10938zm10.101 6.875q-0.09375 0.0625-0.26562 0.17188-0.17188 0.09375-0.4375 0.20312-0.25 0.09375-0.57812 0.15625t-0.75 0.0625q-0.65625 0-1.2812-0.20312-0.60938-0.20312-1.0781-0.64062-0.45312-0.4375-0.73438-1.125-0.26562-0.70312-0.26562-1.7031 0-0.8125 0.23438-1.5 0.25-0.6875 0.71875-1.1875 0.46875-0.51562 1.125-0.79688 0.67188-0.28125 1.5-0.28125 1.0625 0 1.7031 0.14062 0.64062 0.125 1.0469 0.26562v6.9219q0 1.6875-0.89062 2.4062-0.875 0.73438-2.6406 0.73438-0.73438 0-1.3281-0.10938-0.59375-0.10938-1.0156-0.25l0.1875-0.85938q0.34375 0.15625 0.95312 0.26562 0.60938 0.125 1.2344 0.125 1.3438 0 1.9531-0.53125 0.60938-0.51562 0.60938-1.7656v-0.5zm-0.015625-5.7812q-0.25-0.078125-0.65625-0.14062-0.39062-0.0625-1.125-0.0625-0.60938 0-1.0938 0.21875-0.46875 0.20312-0.8125 0.59375-0.32812 0.39062-0.51562 0.92188-0.17188 0.53125-0.17188 1.1875 0 0.75 0.20312 1.2812 0.21875 0.53125 0.54688 0.875 0.32812 0.32812 0.75 0.48438 0.42188 0.15625 0.85938 0.15625 0.65625 0 1.1875-0.1875 0.53125-0.20312 0.82812-0.4375v-4.8906zm3.0231 2.8594q0-1 0.28125-1.7344 0.28125-0.73438 0.73438-1.2344 0.46875-0.5 1.0625-0.73438 0.59375-0.25 1.2344-0.25 1.3906 0 2.2188 0.90625 0.82812 0.90625 0.82812 2.7969 0 0.125-0.015625 0.25 0 0.10938-0.015625 0.20312h-5.3281q0.046875 1.3906 0.6875 2.1406 0.65625 0.75 2.0625 0.75 0.76562 0 1.2188-0.14062 0.46875-0.15625 0.67188-0.25l0.17188 0.8125q-0.20312 0.125-0.76562 0.28125t-1.3281 0.15625q-1 0-1.7031-0.28125-0.70312-0.29688-1.1562-0.82812-0.45312-0.53125-0.65625-1.25-0.20312-0.73438-0.20312-1.5938zm5.375-0.59375q-0.03125-1.1875-0.5625-1.8438-0.53125-0.67188-1.4844-0.67188-0.51562 0-0.92188 0.20312-0.40625 0.20312-0.70312 0.5625-0.29688 0.34375-0.46875 0.79688-0.17188 0.45312-0.20312 0.95312h4.3438zm5.6879-3.3281q0.46875 0 0.875 0.078125 0.42188 0.0625 0.59375 0.14062l-0.20312 0.8125q-0.10938-0.046875-0.46875-0.10938-0.35938-0.078125-0.95312-0.078125-0.60938 0-0.98438 0.09375-0.375 0.078125-0.48438 0.14062v6.6406h-0.95312v-7.2188q0.35938-0.17188 1-0.32812 0.65625-0.17188 1.5781-0.17188z" fill="#434343"/>
  <path fill-rule="evenodd" d="m15.732 348.28c-4.2704 0-7.7323-3.4619-7.7323-7.7323v-97.102c0-2.0507 0.81465-4.0175 2.2647-5.4676 1.4501-1.4501 3.4168-2.2647 5.4676-2.2647h30.929c4.2704 0 7.7323 3.4619 7.7323 7.7323v97.102c0 4.2704-3.4619 7.7323-7.7323 7.7323z" fill="#749f8d"/>
  <path d="m35.417 324.42h0.85938v5.7812h-10.156v-1h9.2969v-4.7812zm0.85938-2.4825v0.95312h-7.5781v-0.95312h7.5781zm-9.8594-0.21875q0.32812 0 0.53125 0.21875 0.20312 0.20312 0.20312 0.48438 0 0.29688-0.20312 0.5t-0.53125 0.20312q-0.34375 0-0.53125-0.20312-0.20312-0.20312-0.20312-0.5 0-0.28125 0.20312-0.48438 0.1875-0.21875 0.53125-0.21875zm2.5469-2.3017q-0.125-0.42188-0.26562-1.1406-0.14062-0.71875-0.14062-1.75 0-0.875 0.25-1.4531 0.25-0.57812 0.71875-0.92188 0.45312-0.34375 1.0938-0.48438 0.64062-0.15625 1.4219-0.15625h4.2344v0.95312h-3.9219q-0.8125 0-1.3594 0.10938-0.5625 0.10938-0.90625 0.375-0.35938 0.25-0.51562 0.67188-0.15625 0.42188-0.15625 1.0469 0 0.67188 0.078125 1.1719 0.0625 0.48438 0.125 0.625h6.6563v0.95312h-7.3125zm7.0469-14.152q0.125 0.42188 0.26562 1.1406 0.14062 0.71875 0.14062 1.7656 0 0.84375-0.25 1.4219-0.25 0.5625-0.70312 0.92188-0.45312 0.34375-1.0938 0.5-0.64062 0.15625-1.4219 0.15625h-4.25v-0.95312h3.9375q0.8125 0 1.375-0.10938 0.54688-0.125 0.89062-0.39062 0.34375-0.26562 0.5-0.67188 0.15625-0.42188 0.15625-1.0312 0-0.67188-0.0625-1.1719-0.078125-0.5-0.14062-0.625h-6.6563v-0.95312h7.3125zm-3.1562-4.9019q0.42188 0.32812 0.89062 0.65625 0.46875 0.3125 0.92188 0.625 0.45312 0.29688 0.875 0.54688 0.40625 0.25 0.73438 0.42188v0.98438q-1.125-0.60938-2.0938-1.2656-0.98438-0.65625-1.9219-1.3438l-3.5625 2.4531v-1.1094l2.9062-1.9688-2.9062-1.9844v-1.0469l3.5 2.4219q0.40625-0.3125 0.89062-0.65625 0.48438-0.35938 1.0156-0.70312 0.51562-0.35938 1.0781-0.6875 0.54688-0.32812 1.0938-0.60938v1.0312q-0.32812 0.17188-0.73438 0.42188-0.42188 0.25-0.875 0.54688t-0.92188 0.64062q-0.46875 0.32812-0.89062 0.625zm-0.70312-10.296q0.3125-0.45312 0.79688-0.96875 0.48438-0.53125 1.0469-1.0312 0.5625-0.51562 1.1562-0.95312 0.59375-0.45312 1.125-0.75v1.125q-0.59375 0.34375-1.1562 0.79688-0.5625 0.45312-1.0625 0.9375t-0.90625 0.98438q-0.40625 0.48438-0.6875 0.92188h3.8125v0.95312h-11.203l-0.17188-0.95312h7.2188q-0.35938-0.35938-0.8125-0.8125t-0.92188-0.90625q-0.46875-0.46875-0.90625-0.875-0.4375-0.42188-0.78125-0.71875v-1.1406q0.35938 0.34375 0.79688 0.76562 0.4375 0.42188 0.92188 0.89062 0.46875 0.45312 0.92188 0.90625 0.45312 0.45312 0.8125 0.82812zm0.32812-4.7861q-1 0-1.7344-0.28125-0.73438-0.28125-1.2344-0.73438-0.5-0.46875-0.73438-1.0625-0.25-0.59375-0.25-1.2343 0-1.3906 0.90625-2.2188 0.90625-0.82812 2.7969-0.82812 0.125 0 0.25 0.015625 0.10938 0 0.20312 0.015625v5.3281q1.3906-0.046875 2.1406-0.6875 0.75-0.65625 0.75-2.0625 0-0.76562-0.14062-1.2188-0.15625-0.46875-0.25-0.67188l0.8125-0.17188q0.125 0.20312 0.28125 0.76562t0.15625 1.3281q0 0.99997-0.28125 1.7031-0.29688 0.70312-0.82812 1.1562-0.53125 0.45312-1.25 0.65625-0.73438 0.20312-1.5938 0.20312zm-0.59375-5.375q-1.1875 0.03125-1.8438 0.5625-0.67188 0.53125-0.67188 1.4844 0 0.51559 0.20312 0.92184t0.5625 0.70312q0.34375 0.29688 0.79688 0.46875 0.45312 0.17188 0.95312 0.20312v-4.3437zm-3.3281-5.6879q0-0.46875 0.078125-0.875 0.0625-0.42188 0.14062-0.59375l0.8125 0.20312q-0.046875 0.10938-0.10938 0.46875-0.078125 0.35938-0.078125 0.95312 0 0.60938 0.09375 0.98438 0.078125 0.375 0.14062 0.48438h6.6406v0.95312h-7.2188q-0.17188-0.35938-0.32812-1-0.17188-0.65625-0.17188-1.5781zm0.40625-2.9033q-0.125-0.42188-0.26562-1.1406-0.14062-0.71875-0.14062-1.75 0-0.875 0.25-1.4531 0.25-0.57812 0.71875-0.92188 0.45312-0.34375 1.0938-0.48438 0.64062-0.15625 1.4219-0.15625h4.2344v0.95312h-3.9219q-0.8125 0-1.3594 0.10938-0.5625 0.10938-0.90625 0.375-0.35938 0.25-0.51562 0.67188-0.15625 0.42188-0.15625 1.0469 0 0.67188 0.078125 1.1719 0.0625 0.48438 0.125 0.625h6.6563v0.95312h-7.3125zm3.5156-7.8863q-1 0-1.7344-0.28125-0.73438-0.28125-1.2344-0.73438-0.5-0.46875-0.73438-1.0625-0.25-0.59375-0.25-1.2344 0-1.3906 0.90625-2.2188 0.90625-0.82812 2.7969-0.82812 0.125 0 0.25 0.015625 0.10938 0 0.20312 0.015625v5.3281q1.3906-0.046875 2.1406-0.6875 0.75-0.65625 0.75-2.0625 0-0.76562-0.14062-1.2188-0.15625-0.46875-0.25-0.67188l0.8125-0.17188q0.125 0.20312 0.28125 0.76562t0.15625 1.3281q0 1-0.28125 1.7031-0.29688 0.70312-0.82812 1.1562-0.53125 0.45312-1.25 0.65625-0.73438 0.20312-1.5938 0.20312zm-0.59375-5.375q-1.1875 0.03125-1.8438 0.5625-0.67188 0.53125-0.67188 1.4844 0 0.51562 0.20312 0.92188 0.20312 0.40625 0.5625 0.70312 0.34375 0.29688 0.79688 0.46875 0.45312 0.17188 0.95312 0.20312v-4.3438zm4.5156-5.0317q0 0.48438-0.125 0.84375-0.10938 0.35938-0.32812 0.60938-0.23438 0.23438-0.59375 0.35938-0.35938 0.125-0.89062 0.125h-9.3906l-0.17188-0.95312h9.5313q0.34375 0 0.5625-0.0625t0.34375-0.1875q0.10938-0.14062 0.17188-0.34375 0.0625-0.21875 0.10938-0.51562l0.78125 0.125z" fill="#434343"/>
  <path fill-rule="evenodd" d="m81.475 156.71h140.21v43.546c-70.101 0-70.101 16.754-140.21 8.3771zm11.552 0v-5.6454h139.25v43.819c-5.2932 0-10.594 0.30353-10.594 0.30353v-38.477zm10.858-5.6454v-5.5088h140.46v43.682c-6.0321 0-12.064 0.22765-12.064 0.22765v-38.401z" fill="#ffb95a"/>
  <path fill-rule="evenodd" fill-opacity="0" d="m81.475 156.71h140.21v43.546c-70.101 0-70.101 16.754-140.21 8.3771zm11.552 0v-5.6454h139.25v43.819c-5.2932 0-10.594 0.30353-10.594 0.30353m-117.8-44.122v-5.5088h140.46v43.682c-6.0321 0-12.064 0.22765-12.064 0.22765" fill="#000"/>
  <path fill-rule="evenodd" fill-opacity="0" d="m81.475 208.63c70.108 8.3771 70.108-8.3771 140.21-8.3771v-5.0687s5.3007-0.30353 10.594-0.30353v-5.4178s6.0321-0.22765 12.064-0.22765v-43.682h-140.46v5.5088h-10.858v5.6454h-11.552z" fill="#000"/>
  <path stroke-linejoin="round" d="m81.475 156.71h140.21v43.546c-70.101 0-70.101 16.754-140.21 8.3771zm11.552 0v-5.6454h139.25v43.819c-5.2932 0-10.594 0.30353-10.594 0.30353m-117.8-44.122v-5.5088h140.46v43.682c-6.0321 0-12.064 0.22765-12.064 0.22765" fill-rule="evenodd" stroke="#fff" stroke-linecap="butt"/>
  <path d="m104.17 180.62q0.25-0.1875 0.79688-0.39062 0.54688-0.21875 1.2969-0.21875 0.8125 0 1.4531 0.29688 0.64062 0.28125 1.0781 0.8125 0.4375 0.53125 0.65625 1.2656 0.23438 0.71875 0.23438 1.5781 0 0.92188-0.26562 1.6562-0.26562 0.73438-0.76562 1.25-0.48438 0.51562-1.1719 0.78125-0.6875 0.26562-1.5156 0.26562-1.0156 0-1.6719-0.14062-0.65625-0.125-1.0781-0.26562v-10.969l0.95312-0.17188v4.25zm0 6.2344q0.21875 0.0625 0.64062 0.14062 0.4375 0.0625 1.1406 0.0625 1.2344 0 1.9844-0.79688t0.75-2.2969q0-0.625-0.14062-1.1875-0.125-0.57812-0.42188-0.98438-0.29688-0.42188-0.78125-0.67188-0.46875-0.25-1.1719-0.25-0.32812 0-0.64062 0.078125-0.3125 0.0625-0.57812 0.17188-0.26562 0.09375-0.46875 0.21875-0.1875 0.10938-0.3125 0.20312v5.3125zm9.9821 0.20312q0.54688 0 0.96875-0.03125 0.42188-0.046875 0.70312-0.10938v-2.6562q-0.15625-0.078125-0.51562-0.15625-0.34375-0.078125-0.95312-0.078125-0.35938 0-0.75 0.046875-0.375 0.046875-0.70312 0.21875-0.3125 0.17188-0.51562 0.46875-0.20312 0.28125-0.20312 0.76562 0 0.4375 0.14062 0.73438 0.14062 0.28125 0.39062 0.46875 0.26562 0.17188 0.60938 0.25 0.35938 0.078125 0.82812 0.078125zm-0.09375-7.0625q0.75 0 1.2656 0.21875 0.51562 0.20312 0.84375 0.57812 0.32812 0.375 0.46875 0.89062 0.14062 0.5 0.14062 1.1094v4.7812q-0.14062 0.046875-0.42188 0.09375-0.28125 0.046875-0.65625 0.10938-0.35938 0.0625-0.8125 0.09375-0.4375 0.03125-0.90625 0.03125-0.59375 0-1.1094-0.14062-0.5-0.125-0.875-0.40625t-0.59375-0.71875q-0.20312-0.45312-0.20312-1.1094 0-0.60938 0.23438-1.0469 0.23438-0.4375 0.65625-0.71875 0.42188-0.29688 1-0.42188 0.59375-0.14062 1.2969-0.14062 0.20312 0 0.42188 0.03125 0.23438 0.015625 0.4375 0.0625 0.21875 0.03125 0.375 0.0625t0.20312 0.0625v-0.46875q0-0.39062-0.0625-0.76562-0.046875-0.375-0.25-0.67188-0.1875-0.29688-0.54688-0.48438t-0.95312-0.1875q-0.82812 0-1.25 0.125-0.40625 0.10938-0.59375 0.1875l-0.14062-0.84375q0.25-0.10938 0.76562-0.20312 0.53125-0.10938 1.2656-0.10938zm8.2882 7.9062q-0.875 0-1.5469-0.26562-0.67188-0.28125-1.125-0.79688-0.4375-0.53125-0.67188-1.25-0.23438-0.73438-0.23438-1.6094 0-0.89062 0.23438-1.625 0.25-0.73438 0.70312-1.2656 0.45312-0.53125 1.0938-0.8125 0.64062-0.28125 1.4531-0.28125 0.60938 0 1.1406 0.10938 0.54688 0.09375 0.82812 0.25l-0.23438 0.82812q-0.29688-0.15625-0.67188-0.23438-0.35938-0.09375-0.98438-0.09375-1.25 0-1.9062 0.8125-0.65625 0.8125-0.65625 2.3125 0 0.67188 0.14062 1.2344 0.15625 0.5625 0.48438 0.96875 0.32812 0.40625 0.84375 0.64062 0.53125 0.21875 1.2812 0.21875 0.60938 0 1.0312-0.14062 0.42188-0.14062 0.60938-0.23438l0.20312 0.8125q-0.26562 0.14062-0.82812 0.28125-0.5625 0.14062-1.1875 0.14062zm5.6325-4.2812q0.45312 0.3125 0.96874 0.79688 0.53125 0.48438 1.0312 1.0469 0.51562 0.5625 0.95312 1.1562 0.45312 0.59375 0.75 1.125h-1.125q-0.34375-0.59375-0.79688-1.1562-0.45312-0.5625-0.9375-1.0625t-0.98437-0.90625q-0.48438-0.40625-0.92188-0.6875v3.8125h-0.95312v-11.203l0.95312-0.17188v7.2188q0.35938-0.35938 0.8125-0.8125t0.90624-0.92188q0.46875-0.46875 0.875-0.90625 0.42188-0.4375 0.71875-0.78125h1.1406q-0.34375 0.35938-0.76562 0.79688-0.42188 0.4375-0.89062 0.92188-0.45312 0.46875-0.90625 0.92188-0.45312 0.45312-0.82812 0.8125zm4.7861 0.32812q0-1 0.28125-1.7344 0.28125-0.73438 0.73438-1.2344 0.46875-0.5 1.0625-0.73438 0.59375-0.25 1.2344-0.25 1.3906 0 2.2188 0.90625 0.82812 0.90625 0.82812 2.7969 0 0.125-0.015625 0.25 0 0.10938-0.015625 0.20312h-5.3281q0.046875 1.3906 0.6875 2.1406 0.65625 0.75 2.0625 0.75 0.76562 0 1.2188-0.14062 0.46875-0.15625 0.67188-0.25l0.17188 0.8125q-0.20312 0.125-0.76562 0.28125t-1.3281 0.15625q-1 0-1.7031-0.28125-0.70312-0.29688-1.1562-0.82812-0.45312-0.53125-0.65625-1.25-0.20312-0.73438-0.20312-1.5938zm5.375-0.59375q-0.03125-1.1875-0.5625-1.8438-0.53125-0.67188-1.4844-0.67188-0.51562 0-0.92188 0.20312-0.40625 0.20312-0.70312 0.5625-0.29688 0.34375-0.46875 0.79688-0.17188 0.45312-0.20312 0.95312h4.3438zm3.1098-2.9219q0.42188-0.125 1.1406-0.26562 0.71875-0.14062 1.75-0.14062 0.875 0 1.4531 0.25 0.57812 0.25 0.92188 0.71875 0.34375 0.45312 0.48438 1.0938 0.15625 0.64062 0.15625 1.4219v4.2344h-0.95312v-3.9219q0-0.8125-0.10938-1.3594-0.10938-0.5625-0.375-0.90625-0.25-0.35938-0.67188-0.51562-0.42188-0.15625-1.0469-0.15625-0.67188 0-1.1719 0.078125-0.48438 0.0625-0.625 0.125v6.6562h-0.95312v-7.3125zm14.355 7.0781q-0.42188 0.14062-1.0781 0.26562-0.65625 0.14062-1.6719 0.14062-0.84375 0-1.5312-0.26562-0.67188-0.26562-1.1719-0.78125-0.48438-0.51562-0.75-1.25t-0.26562-1.6562q0-0.85938 0.21875-1.5781 0.23438-0.73438 0.67188-1.2656 0.4375-0.53125 1.0781-0.8125 0.64062-0.29688 1.4531-0.29688 0.75 0 1.2969 0.21875 0.54688 0.20312 0.79688 0.39062v-4.0781l0.95312-0.17188v11.141zm-0.95312-5.9688q-0.125-0.09375-0.32812-0.20312-0.20312-0.125-0.46875-0.21875-0.25-0.10938-0.5625-0.17188-0.3125-0.078125-0.64062-0.078125-0.70312 0-1.1875 0.25-0.46875 0.25-0.76562 0.67188-0.29688 0.40625-0.4375 0.98438-0.125 0.5625-0.125 1.1875 0 1.5 0.75 2.2969 0.75 0.79688 1.9844 0.79688 0.70312 0 1.125-0.0625 0.4375-0.078125 0.65625-0.14062v-5.3125zm9.9488 6.3594q-0.875 0-1.5469-0.26562-0.67188-0.28125-1.125-0.79688-0.4375-0.53125-0.67188-1.25-0.23438-0.73438-0.23438-1.6094 0-0.89062 0.23438-1.625 0.25-0.73438 0.70312-1.2656 0.45312-0.53125 1.0938-0.8125 0.64062-0.28125 1.4531-0.28125 0.60938 0 1.1406 0.10938 0.54688 0.09375 0.82812 0.25l-0.23438 0.82812q-0.29688-0.15625-0.67188-0.23438-0.35938-0.09375-0.98438-0.09375-1.25 0-1.9062 0.8125-0.65625 0.8125-0.65625 2.3125 0 0.67188 0.14062 1.2344 0.15625 0.5625 0.48438 0.96875 0.32812 0.40625 0.84375 0.64062 0.53125 0.21875 1.2812 0.21875 0.60938 0 1.0312-0.14062 0.42188-0.14062 0.60938-0.23438l0.20312 0.8125q-0.26562 0.14062-0.82812 0.28125-0.5625 0.14062-1.1875 0.14062zm10.07-3.9375q0 0.89062-0.26562 1.625-0.25 0.73438-0.71875 1.25-0.45312 0.51562-1.0781 0.79688-0.625 0.28125-1.3906 0.28125-0.76562 0-1.3906-0.28125-0.625-0.28125-1.0938-0.79688-0.46875-0.51562-0.71875-1.25t-0.25-1.625 0.25-1.625 0.71875-1.25q0.46875-0.53125 1.0938-0.8125 0.625-0.28125 1.3906-0.28125 0.76562 0 1.3906 0.28125 0.625 0.28125 1.0781 0.8125 0.46875 0.51562 0.71875 1.25 0.26562 0.73438 0.26562 1.625zm-1 0q0-1.4219-0.67188-2.2656-0.65625-0.84375-1.7812-0.84375t-1.7969 0.84375q-0.65625 0.84375-0.65625 2.2656 0 1.4219 0.65625 2.2656 0.67188 0.82812 1.7969 0.82812t1.7812-0.82812q0.67188-0.84375 0.67188-2.2656zm3.0768-3.5312q0.42188-0.125 1.1406-0.26562 0.71875-0.14062 1.75-0.14062 0.875 0 1.4531 0.25 0.57812 0.25 0.92188 0.71875 0.34375 0.45312 0.48438 1.0938 0.15625 0.64062 0.15625 1.4219v4.2344h-0.95312v-3.9219q0-0.8125-0.10938-1.3594-0.10938-0.5625-0.375-0.90625-0.25-0.35938-0.67188-0.51562-0.42188-0.15625-1.0469-0.15625-0.67188 0-1.1719 0.078125-0.48438 0.0625-0.625 0.125v6.6562h-0.95312v-7.3125zm11.121-4.0625q0.60938 0 1 0.09375t0.51562 0.17188l-0.20312 0.82812q-0.15625-0.078125-0.46875-0.15625t-0.79688-0.078125q-1.0156 0-1.4531 0.51562-0.42188 0.5-0.42188 1.625v0.79688h3.0469v0.8125h-3.0469v6.7656h-0.95312v-8.3906q0-1.4844 0.67188-2.2344 0.6875-0.75 2.1094-0.75zm3.6826 11.375h-0.95312v-7.5781h0.95312v7.5781zm0.21875-9.8594q0 0.32812-0.21875 0.53125-0.20312 0.20312-0.48438 0.20312-0.29688 0-0.5-0.20312t-0.20312-0.53125q0-0.34375 0.20312-0.53125 0.20312-0.20312 0.5-0.20312 0.28125 0 0.48438 0.20312 0.21875 0.1875 0.21875 0.53125zm7.2392 8.9844q-0.09375 0.0625-0.26562 0.17188-0.17188 0.09375-0.4375 0.20312-0.25 0.09375-0.57812 0.15625t-0.75 0.0625q-0.65625 0-1.2812-0.20312-0.60938-0.20312-1.0781-0.64062-0.45312-0.4375-0.73438-1.125-0.26562-0.70312-0.26562-1.7031 0-0.8125 0.23438-1.5 0.25-0.6875 0.71875-1.1875 0.46875-0.51562 1.125-0.79688 0.67188-0.28125 1.5-0.28125 1.0625 0 1.7031 0.14062 0.64062 0.125 1.0469 0.26562v6.9219q0 1.6875-0.89062 2.4062-0.875 0.73438-2.6406 0.73438-0.73438 0-1.3281-0.10938-0.59375-0.10938-1.0156-0.25l0.1875-0.85938q0.34375 0.15625 0.95312 0.26562 0.60938 0.125 1.2344 0.125 1.3438 0 1.9531-0.53125 0.60938-0.51562 0.60938-1.7656v-0.5zm-0.015625-5.7812q-0.25-0.078125-0.65625-0.14062-0.39062-0.0625-1.125-0.0625-0.60938 0-1.0938 0.21875-0.46875 0.20312-0.8125 0.59375-0.32812 0.39062-0.51562 0.92188-0.17188 0.53125-0.17188 1.1875 0 0.75 0.20312 1.2812 0.21875 0.53125 0.54688 0.875 0.32812 0.32812 0.75 0.48438 0.42188 0.15625 0.85938 0.15625 0.65625 0 1.1875-0.1875 0.53125-0.20312 0.82812-0.4375v-4.8906z" fill="#434343"/>
  <path fill-rule="evenodd" fill-opacity="0" d="m162.91 54.782v22.205" fill="#000"/>
  <path stroke-linejoin="round" d="m162.91 54.782v18.778" fill-rule="evenodd" stroke="#434343" stroke-linecap="butt"/>
  <path d="m162.91 73.56l-1.1246-1.1246 1.1246 3.0898 1.1246-3.0898z" fill-rule="evenodd" stroke="#434343" stroke-linecap="butt" fill="#434343"/>
  <path fill-rule="evenodd" fill-opacity="0" d="m162.91 123.36l11.213 22.205" fill="#000"/>
  <path stroke-linejoin="round" d="m162.91 123.36l9.6678 19.146" fill-rule="evenodd" stroke="#000" stroke-linecap="butt"/>
  <path d="m172.58 142.51l-1.5108-0.49695 2.3966 2.2512-0.38887-3.265z" fill-rule="evenodd" stroke="#000" stroke-linecap="butt" fill="#000"/>
  <path fill-rule="evenodd" fill-opacity="0" d="m162.91 123.36l-81.417 54.961" fill="#000"/>
  <path stroke-linejoin="round" d="m162.91 123.36l-78.577 53.043" fill-rule="evenodd" stroke="#000" stroke-linecap="butt"/>
  <path d="m84.331 176.41l0.30289-1.5613-1.9317 2.6608 3.1901-0.79663z" fill-rule="evenodd" stroke="#000" stroke-linecap="butt" fill="#000"/>
  <path fill-rule="evenodd" fill-opacity="0" d="m54.394 291.99l27.087-35.496" fill="#000"/>
  <path stroke-linejoin="round" d="m54.394 291.99l25.008-32.772" fill-rule="evenodd" stroke="#000" stroke-linecap="butt"/>
  <path d="m79.401 259.22l0.21181 1.5762 0.98035-3.1385-2.7684 1.7741z" fill-rule="evenodd" stroke="#000" stroke-linecap="butt" fill="#000"/>
  <path fill-rule="evenodd" fill-opacity="0" d="m54.394 291.99l27.087 33.102" fill="#000"/>
  <path stroke-linejoin="round" d="m54.394 291.99l24.916 30.45" fill-rule="evenodd" stroke="#000" stroke-linecap="butt"/>
  <path d="m79.31 322.44l-1.5825-0.15814 2.827 1.679-1.0863-3.1034z" fill-rule="evenodd" stroke="#000" stroke-linecap="butt" fill="#000"/>
  <path fill-rule="evenodd" fill-opacity="0" d="m162.91 123.36l81.449 54.961" fill="#000"/>
  <path stroke-linejoin="round" d="m162.91 123.36l78.608 53.044" fill-rule="evenodd" stroke="#000" stroke-linecap="butt"/>
  <path d="m241.52 176.41l-1.5612 0.30316 3.1902 0.79607-1.9322-2.6605z" fill-rule="evenodd" stroke="#000" stroke-linecap="butt" fill="#000"/>
  <path fill-rule="evenodd" fill-opacity="0" d="m151.58 208.63v-1.1609h117.76v117.6h-25.001" fill="#000"/>
  <path stroke-linejoin="round" d="m151.58 208.63v-1.1609h117.76v117.6h-21.574" fill-rule="evenodd" stroke="#000" stroke-linecap="butt"/>
  <path d="m247.77 325.07l1.1246-1.1246-3.0898 1.1246 3.0898 1.1246z" fill-rule="evenodd" stroke="#000" stroke-linecap="butt" fill="#000"/>
  <path fill-rule="evenodd" fill-opacity="0" d="m244.34 31.585h25.001v146.74h-24.938" fill="#000"/>
  <path stroke-linejoin="round" d="m244.34 31.585h25.001v146.74h-21.511" fill-rule="evenodd" stroke="#000" stroke-linecap="butt"/>
  <path d="m247.83 178.33l1.1246-1.1246-3.0898 1.1246 3.0898 1.1246z" fill-rule="evenodd" stroke="#000" stroke-linecap="butt" fill="#000"/>
  <path fill-rule="evenodd" fill-opacity="0" d="m151.58 208.63v-0.25278h117.76v48.127h-25.001" fill="#000"/>
  <path stroke-linejoin="round" d="m151.58 208.63v-0.25276h117.76v48.127h-21.574" fill-rule="evenodd" stroke="#000" stroke-linecap="butt"/>
  <path d="m247.77 256.5l1.1246-1.1246-3.0898 1.1246 3.0898 1.1246z" fill-rule="evenodd" stroke="#000" stroke-linecap="butt" fill="#000"/>
  <path fill-rule="evenodd" fill-opacity="0" d="m269.34 178.85v-145.83h33.291v145.83z" fill="#000"/>
  <path d="m291.55 129.46q0.0625 0.09375 0.17188 0.26562 0.09375 0.17188 0.20312 0.4375 0.09375 0.25 0.15625 0.57812t0.0625 0.75q0 0.65625-0.20312 1.2812-0.20312 0.60938-0.64062 1.0781-0.4375 0.45312-1.125 0.73438-0.70312 0.26562-1.7031 0.26562-0.8125 0-1.5-0.23438-0.6875-0.25-1.1875-0.71875-0.51562-0.46875-0.79688-1.125-0.28125-0.67188-0.28125-1.5 0-1.0625 0.14062-1.7031 0.125-0.64062 0.26562-1.0469h6.9219q1.6875 0 2.4062 0.89062 0.73438 0.875 0.73438 2.6406 0 0.73438-0.10938 1.3281-0.10938 0.59375-0.25 1.0156l-0.85938-0.1875q0.15625-0.34375 0.26562-0.95312 0.125-0.60938 0.125-1.2344 0-1.3438-0.53125-1.9531-0.51562-0.60938-1.7656-0.60938h-0.5zm-5.7812 0.015625q-0.078125 0.25-0.14062 0.65625-0.0625 0.39062-0.0625 1.125 0 0.60938 0.21875 1.0938 0.20312 0.46875 0.59375 0.8125 0.39062 0.32812 0.92188 0.51562 0.53125 0.17188 1.1875 0.17188 0.75 0 1.2812-0.20312 0.53125-0.21875 0.875-0.54688 0.32812-0.32812 0.48438-0.75 0.15625-0.42188 0.15625-0.85938 0-0.65625-0.1875-1.1875-0.20312-0.53125-0.4375-0.82812h-4.8906zm2.8594-3.0231q-1 0-1.7344-0.28125-0.73438-0.28125-1.2344-0.73438-0.5-0.46875-0.73438-1.0625-0.25-0.59375-0.25-1.2344 0-1.3906 0.90625-2.2188 0.90625-0.82812 2.7969-0.82812 0.125 0 0.25 0.015625 0.10938 0 0.20312 0.015625v5.3281q1.3906-0.046875 2.1406-0.6875 0.75-0.65625 0.75-2.0625 0-0.76562-0.14062-1.2188-0.15625-0.46875-0.25-0.67188l0.8125-0.17188q0.125 0.20312 0.28125 0.76562t0.15625 1.3281q0 1-0.28125 1.7031-0.29688 0.70312-0.82812 1.1562-0.53125 0.45312-1.25 0.65625-0.73438 0.20312-1.5938 0.20312zm-0.59375-5.375q-1.1875 0.03125-1.8438 0.5625-0.67188 0.53125-0.67188 1.4844 0 0.51562 0.20312 0.92188 0.20312 0.40625 0.5625 0.70312 0.34375 0.29688 0.79688 0.46875 0.45312 0.17188 0.95312 0.20312v-4.3438zm-2.9219-3.1098q-0.125-0.42188-0.26562-1.1406-0.14062-0.71875-0.14062-1.75 0-0.875 0.25-1.4531 0.25-0.57812 0.71875-0.92188 0.45312-0.34375 1.0938-0.48438 0.64062-0.15625 1.4219-0.15625h4.2344v0.95312h-3.9219q-0.8125 0-1.3594 0.10938-0.5625 0.10938-0.90625 0.375-0.35938 0.25-0.51562 0.67188-0.15625 0.42188-0.15625 1.0469 0 0.67188 0.078125 1.1719 0.0625 0.48438 0.125 0.625h6.6562v0.95312h-7.3125zm3.5156-7.8863q-1 0-1.7344-0.28125-0.73438-0.28125-1.2344-0.73438-0.5-0.46875-0.73438-1.0625-0.25-0.59375-0.25-1.2344 0-1.3906 0.90625-2.2188 0.90625-0.82812 2.7969-0.82812 0.125 0 0.25 0.015625 0.10938 0 0.20312 0.015625v5.3281q1.3906-0.046875 2.1406-0.6875 0.75-0.65625 0.75-2.0625 0-0.76562-0.14062-1.2188-0.15625-0.46875-0.25-0.67188l0.8125-0.17188q0.125 0.20312 0.28125 0.76562t0.15625 1.3281q0 1-0.28125 1.7031-0.29688 0.70312-0.82812 1.1562-0.53125 0.45312-1.25 0.65625-0.73438 0.20312-1.5938 0.20312zm-0.59375-5.375q-1.1875 0.03125-1.8438 0.5625-0.67188 0.53125-0.67188 1.4844 0 0.51562 0.20312 0.92188 0.20312 0.40625 0.5625 0.70312 0.34375 0.29688 0.79688 0.46875 0.45312 0.17188 0.95312 0.20312v-4.3438zm-3.3281-5.6879q0-0.46875 0.078125-0.875 0.0625-0.42188 0.14062-0.59375l0.8125 0.20312q-0.046875 0.10938-0.10938 0.46875-0.078125 0.35938-0.078125 0.95312 0 0.60938 0.09375 0.98438 0.078125 0.375 0.14062 0.48438h6.6406v0.95312h-7.2188q-0.17188-0.35938-0.32812-1-0.17188-0.65625-0.17188-1.5781zm7.0312-5.294q0-0.54688-0.03125-0.96875-0.046875-0.42188-0.10938-0.70312h-2.6562q-0.078125 0.15625-0.15625 0.51562-0.078125 0.34375-0.078125 0.95312 0 0.35938 0.046875 0.75 0.046875 0.375 0.21875 0.70312 0.17188 0.3125 0.46875 0.51562 0.28125 0.20312 0.76562 0.20312 0.4375 0 0.73438-0.14062 0.28125-0.14062 0.46875-0.39062 0.17188-0.26562 0.25-0.60938 0.078125-0.35938 0.078125-0.82812zm-7.0625 0.09375q0-0.75 0.21875-1.2656 0.20312-0.51562 0.57812-0.84375 0.375-0.32812 0.89062-0.46875 0.5-0.14062 1.1094-0.14062h4.7812q0.046875 0.14062 0.09375 0.42188 0.046875 0.28125 0.10938 0.65625 0.0625 0.35938 0.09375 0.8125 0.03125 0.4375 0.03125 0.90625 0 0.59375-0.14062 1.1094-0.125 0.5-0.40625 0.875t-0.71875 0.59375q-0.45312 0.20312-1.1094 0.20312-0.60938 0-1.0469-0.23438-0.4375-0.23438-0.71875-0.65625-0.29688-0.42188-0.42188-1-0.14062-0.59375-0.14062-1.2969 0-0.20312 0.03125-0.42188 0.015625-0.23438 0.0625-0.4375 0.03125-0.21875 0.0625-0.375t0.0625-0.20312h-0.46875q-0.39062 0-0.76562 0.0625-0.375 0.046875-0.67188 0.25-0.29688 0.1875-0.48438 0.54688t-0.1875 0.95312q0 0.82812 0.125 1.25 0.10938 0.40625 0.1875 0.59375l-0.84375 0.14062q-0.10938-0.25-0.20312-0.76562-0.10938-0.53125-0.10938-1.2656zm0.17188-6.0538v-3.0156h0.8125v3.0156h4.0312q0.64062 0 1.0469-0.10938 0.39062-0.10938 0.625-0.3125 0.21875-0.20312 0.29688-0.5 0.0625-0.29688 0.0625-0.64062 0-0.60938-0.14062-0.96875-0.14062-0.375-0.25-0.57812l0.78125-0.23438q0.14062 0.20312 0.3125 0.71875 0.15625 0.51562 0.15625 1.1094 0 0.71875-0.17188 1.1875-0.1875 0.46875-0.5625 0.76562-0.375 0.28125-0.92188 0.40625-0.5625 0.10938-1.3281 0.10938h-6.9844l-0.17188-0.95312h2.4062zm3.7812-4.3282q-1 0-1.7344-0.28125-0.73438-0.28125-1.2344-0.73438-0.5-0.46875-0.73438-1.0625-0.25-0.59375-0.25-1.2344 0-1.3906 0.90625-2.2188 0.90625-0.82812 2.7969-0.82812 0.125 0 0.25 0.015625 0.10938 0 0.20312 0.015625v5.3281q1.3906-0.046875 2.1406-0.6875 0.75-0.65625 0.75-2.0625 0-0.76562-0.14062-1.2188-0.15625-0.46875-0.25-0.67188l0.8125-0.17188q0.125 0.20312 0.28125 0.76562t0.15625 1.3281q0 1-0.28125 1.7031-0.29688 0.70312-0.82812 1.1562-0.53125 0.45312-1.25 0.65625-0.73438 0.20312-1.5938 0.20312zm-0.59375-5.375q-1.1875 0.03125-1.8438 0.5625-0.67188 0.53125-0.67188 1.4844 0 0.51562 0.20312 0.92188 0.20312 0.40625 0.5625 0.70312 0.34375 0.29688 0.79688 0.46875 0.45312 0.17188 0.95312 0.20312v-4.3438z" fill="#434343"/>
 </g>
</svg>
