<svg xmlns="http://www.w3.org/2000/svg" id="svg1" version="1.1" viewBox="0 0 1366 645">
  <style id="style1">
    .panel{fill:#9ec7da}.box{fill:#fff}text{fill:#33313b;font-family:sans-serif;font-size:24px;text-anchor:middle;dominant-baseline:middle}.arrow{fill:none;stroke:#33323c;stroke-width:3}.circle-inner{fill:#33323c}.circle-outer{fill:none;stroke:#4768b0;stroke-width:4}.arrow-head{fill:#33323c}.dashed-border{fill:none;stroke:#33323c;stroke-width:2;stroke-dasharray:5,5}
  </style>
  <rect id="rect1" width="1366" height="645" rx="8" style="fill:#cee3ec"/>
  <rect id="rect2" width="375" height="400" x="495" y="75" class="dashed-border" rx="10"/>
  <rect id="rect3" width="375" height="400" x="920" y="75" class="dashed-border" rx="10"/>
  <rect id="rect4" width="355" height="450" x="60" y="61" class="panel" rx="6"/>
  <rect id="rect5" width="335" height="280" x="515" y="148" class="panel" rx="6"/>
  <rect id="rect6" width="335" height="280" x="941" y="148" class="panel" rx="6"/>
  <text id="text6" x="187" y="99">Rancher Desktop</text>
  <text id="text7" x="576" y="111">Mac/Linux</text>
  <text id="text8" x="998" y="111">Windows</text>
  <g id="g9" transform="translate(0 -66)">
    <rect id="rect8" width="295" height="70" x="90" y="206" class="box" rx="6"/>
    <text id="text9" x="237" y="241">nerdctl</text>
  </g>
  <g id="g10" transform="translate(0 -66)">
    <rect id="rect9" width="295" height="70" x="90" y="296" class="box" rx="6"/>
    <text id="text10" x="237" y="331">kubectl</text>
  </g>
  <g id="g11" transform="translate(0 -66)">
    <rect id="rect10" width="295" height="70" x="90" y="386" class="box" rx="6"/>
    <text id="text11" x="237" y="421">Helm</text>
  </g>
  <g id="g12" transform="translate(0 -66)">
    <rect id="rect11" width="295" height="70" x="90" y="476" class="box" rx="6"/>
    <text id="text12" x="237" y="511">Docker CLI</text>
  </g>
  <g id="g13" transform="translate(0 -28)">
    <rect id="rect12" width="295" height="70" x="535" y="200" class="box" rx="6"/>
    <text id="text13" x="682" y="236">Kubernetes (k3s)</text>
  </g>
  <g id="g14" transform="translate(0 -43)">
    <rect id="rect13" width="295" height="70" x="535" y="300" class="box" rx="6"/>
    <text id="text14" x="682" y="340">containerd/dockerd</text>
  </g>
  <text id="text15" x="682" y="381">Lima/QEMU (Linux)</text>
  <g id="g16" transform="translate(0 -28)">
    <rect id="rect15" width="295" height="70" x="960" y="200" class="box" rx="6"/>
    <text id="text16" x="1108" y="236">Kubernetes (k3s)</text>
  </g>
  <g id="g17" transform="translate(0 -43)">
    <rect id="rect16" width="295" height="70" x="960" y="300" class="box" rx="6"/>
    <text id="text17" x="1108" y="340">containerd/dockerd</text>
  </g>
  <text id="text18" x="1108" y="367.7"><tspan id="tspan22" x="1108" y="367.7">Windows Subsystem</tspan><tspan id="tspan23" x="1108" y="397.7">for Linux v2</tspan></text>
  <circle id="circle18" cx="415" cy="271" r="10" class="circle-inner"/>
  <circle id="circle19" cx="415" cy="271" r="10" class="circle-outer" style="stroke-width:5;stroke-dasharray:none"/>
  <path id="path19" d="M415 271h75" class="arrow"/>
  <path id="path20" d="m472 279 25-8-25-7Z" class="arrow-head"/>
  <circle id="circle20" cx="238" cy="512" r="10" class="circle-inner"/>
  <circle id="circle21" cx="238" cy="512" r="10" class="circle-outer" style="stroke-width:5;stroke-dasharray:none"/>
  <path id="path21" d="M1108 496v43c0 20-17 37-37 37H275c-20 0-37-17-37-37v-34" class="arrow"/>
  <path id="path22" d="m1098 497 10-19 10 19z" class="arrow-head"/>
</svg>
